<mxfile host="app.diagrams.net" modified="2024-05-06T11:12:38.523Z" agent="Mozilla/5.0 (Windows NT 10.0; Win64; x64) AppleWebKit/537.36 (KHTML, like Gecko) Chrome/124.0.0.0 Safari/537.36 Edg/124.0.0.0" etag="nyXBWr6Bj6IjH1RRUdVF" version="24.3.1" type="device" pages="4">
  <diagram name="Example1" id="pPyVlyUevo6ivXi3FXMp">
    <mxGraphModel dx="1002" dy="545" grid="1" gridSize="10" guides="1" tooltips="1" connect="1" arrows="1" fold="1" page="1" pageScale="1" pageWidth="1100" pageHeight="850" math="0" shadow="0">
      <root>
        <mxCell id="0" />
        <mxCell id="1" parent="0" />
        <mxCell id="ZZtxFCG1aBXyH5nHKMqG-1" value="Example 1 -&amp;nbsp;&lt;span style=&quot;background-color: initial;&quot;&gt;One Application&amp;nbsp;&lt;/span&gt;&lt;span style=&quot;background-color: initial;&quot;&gt;One Database&lt;/span&gt;" style="text;html=1;align=center;verticalAlign=middle;whiteSpace=wrap;rounded=0;fontSize=20;" parent="1" vertex="1">
          <mxGeometry x="260" y="60" width="450" height="45" as="geometry" />
        </mxCell>
        <mxCell id="ZZtxFCG1aBXyH5nHKMqG-2" value="Client Web Application" style="rounded=1;whiteSpace=wrap;html=1;fillColor=#d5e8d4;strokeColor=#82b366;" parent="1" vertex="1">
          <mxGeometry x="140" y="190" width="120" height="100" as="geometry" />
        </mxCell>
        <mxCell id="ZZtxFCG1aBXyH5nHKMqG-3" value="ServiceBricks Web Application&lt;div&gt;&lt;br&gt;&lt;/div&gt;&lt;div&gt;&lt;br&gt;&lt;/div&gt;&lt;div&gt;&lt;br&gt;&lt;/div&gt;&lt;div&gt;&lt;br&gt;&lt;/div&gt;&lt;div&gt;&lt;br&gt;&lt;/div&gt;&lt;div&gt;&lt;br&gt;&lt;/div&gt;&lt;div&gt;&lt;br&gt;&lt;/div&gt;&lt;div&gt;&lt;br&gt;&lt;/div&gt;&lt;div&gt;&lt;br&gt;&lt;/div&gt;&lt;div&gt;&lt;br&gt;&lt;/div&gt;&lt;div&gt;&lt;br&gt;&lt;/div&gt;" style="rounded=1;whiteSpace=wrap;html=1;fillColor=#bac8d3;strokeColor=#23445d;" parent="1" vertex="1">
          <mxGeometry x="360" y="120" width="237.5" height="220" as="geometry" />
        </mxCell>
        <mxCell id="ZZtxFCG1aBXyH5nHKMqG-4" value="Database" style="shape=datastore;whiteSpace=wrap;html=1;fillColor=#ffe6cc;strokeColor=#d79b00;" parent="1" vertex="1">
          <mxGeometry x="710" y="180" width="100" height="100" as="geometry" />
        </mxCell>
        <mxCell id="ZZtxFCG1aBXyH5nHKMqG-5" value="Cache Microservice" style="rounded=1;whiteSpace=wrap;html=1;fillColor=#b0e3e6;strokeColor=#0e8088;" parent="1" vertex="1">
          <mxGeometry x="395" y="180" width="165" height="30" as="geometry" />
        </mxCell>
        <mxCell id="ZZtxFCG1aBXyH5nHKMqG-6" value="Logging Microservice" style="rounded=1;whiteSpace=wrap;html=1;fillColor=#b0e3e6;strokeColor=#0e8088;" parent="1" vertex="1">
          <mxGeometry x="395" y="220" width="165" height="30" as="geometry" />
        </mxCell>
        <mxCell id="ZZtxFCG1aBXyH5nHKMqG-7" value="Notification Microservice" style="rounded=1;whiteSpace=wrap;html=1;fillColor=#b0e3e6;strokeColor=#0e8088;" parent="1" vertex="1">
          <mxGeometry x="395" y="260" width="165" height="30" as="geometry" />
        </mxCell>
        <mxCell id="ZZtxFCG1aBXyH5nHKMqG-8" value="Security Microservice" style="rounded=1;whiteSpace=wrap;html=1;fillColor=#b0e3e6;strokeColor=#0e8088;" parent="1" vertex="1">
          <mxGeometry x="395" y="300" width="165" height="30" as="geometry" />
        </mxCell>
        <mxCell id="ZZtxFCG1aBXyH5nHKMqG-9" value="" style="endArrow=classic;html=1;rounded=0;exitX=1;exitY=0.5;exitDx=0;exitDy=0;entryX=-0.005;entryY=0.546;entryDx=0;entryDy=0;entryPerimeter=0;fillColor=#bac8d3;strokeColor=#23445d;" parent="1" source="ZZtxFCG1aBXyH5nHKMqG-2" target="ZZtxFCG1aBXyH5nHKMqG-3" edge="1">
          <mxGeometry width="50" height="50" relative="1" as="geometry">
            <mxPoint x="230" y="370" as="sourcePoint" />
            <mxPoint x="280" y="320" as="targetPoint" />
          </mxGeometry>
        </mxCell>
        <mxCell id="ZZtxFCG1aBXyH5nHKMqG-10" value="" style="endArrow=classic;html=1;rounded=0;exitX=1;exitY=0.5;exitDx=0;exitDy=0;entryX=0;entryY=0.3;entryDx=0;entryDy=0;fillColor=#f0a30a;strokeColor=#BD7000;" parent="1" source="ZZtxFCG1aBXyH5nHKMqG-5" target="ZZtxFCG1aBXyH5nHKMqG-4" edge="1">
          <mxGeometry width="50" height="50" relative="1" as="geometry">
            <mxPoint x="630" y="380" as="sourcePoint" />
            <mxPoint x="680" y="330" as="targetPoint" />
          </mxGeometry>
        </mxCell>
        <mxCell id="ZZtxFCG1aBXyH5nHKMqG-11" value="" style="endArrow=classic;html=1;rounded=0;exitX=1;exitY=0.5;exitDx=0;exitDy=0;entryX=0;entryY=0.5;entryDx=0;entryDy=0;fillColor=#f0a30a;strokeColor=#BD7000;" parent="1" source="ZZtxFCG1aBXyH5nHKMqG-6" target="ZZtxFCG1aBXyH5nHKMqG-4" edge="1">
          <mxGeometry width="50" height="50" relative="1" as="geometry">
            <mxPoint x="670" y="370" as="sourcePoint" />
            <mxPoint x="720" y="320" as="targetPoint" />
          </mxGeometry>
        </mxCell>
        <mxCell id="ZZtxFCG1aBXyH5nHKMqG-12" value="" style="endArrow=classic;html=1;rounded=0;exitX=1;exitY=0.5;exitDx=0;exitDy=0;entryX=0;entryY=0.7;entryDx=0;entryDy=0;fillColor=#f0a30a;strokeColor=#BD7000;" parent="1" source="ZZtxFCG1aBXyH5nHKMqG-7" target="ZZtxFCG1aBXyH5nHKMqG-4" edge="1">
          <mxGeometry width="50" height="50" relative="1" as="geometry">
            <mxPoint x="660" y="360" as="sourcePoint" />
            <mxPoint x="710" y="310" as="targetPoint" />
          </mxGeometry>
        </mxCell>
        <mxCell id="ZZtxFCG1aBXyH5nHKMqG-13" value="" style="endArrow=classic;html=1;rounded=0;exitX=1;exitY=0.5;exitDx=0;exitDy=0;entryX=-0.01;entryY=0.837;entryDx=0;entryDy=0;entryPerimeter=0;fillColor=#f0a30a;strokeColor=#BD7000;" parent="1" source="ZZtxFCG1aBXyH5nHKMqG-8" target="ZZtxFCG1aBXyH5nHKMqG-4" edge="1">
          <mxGeometry width="50" height="50" relative="1" as="geometry">
            <mxPoint x="650" y="340" as="sourcePoint" />
            <mxPoint x="700" y="290" as="targetPoint" />
          </mxGeometry>
        </mxCell>
        <mxCell id="ZZtxFCG1aBXyH5nHKMqG-14" value="" style="shape=image;verticalLabelPosition=bottom;labelBackgroundColor=default;verticalAlign=top;aspect=fixed;imageAspect=0;image=data:image/png,iVBORw0KGgoAAAANSUhEUgAAAfQAAADICAYAAAAeGRPoAAABhWlDQ1BJQ0MgcHJvZmlsZQAAKJF9kT1Iw0AcxV8/pCIVB0sRFclQnSyIijhKFYtgobQVWnUwufQLmjQkKS6OgmvBwY/FqoOLs64OroIg+AHi7OCk6CIl/i8ptIjx4Lgf7+497t4B3kaFKYZ/AlBUU0/FY0I2tyoEXuHHEMIYQVhkhpZIL2bgOr7u4eHrXZRnuZ/7c/TKeYMBHoF4jmm6SbxBPLNpapz3iUOsJMrE58TjOl2Q+JHrksNvnIs2e3lmSM+k5olDxEKxg6UOZiVdIZ4mjsiKSvnerMMy5y3OSqXGWvfkLwzm1ZU012kOI44lJJCEAAk1lFGBiSitKikGUrQfc/EP2v4kuSRylcHIsYAqFIi2H/wPfndrFKYmnaRgDOh6sayPUSCwCzTrlvV9bFnNE8D3DFypbX+1Acx+kl5va5EjoG8buLhua9IecLkDDDxpoi7ako+mt1AA3s/om3JA/y3Qs+b01trH6QOQoa6Wb4CDQ2CsSNnrLu/u7uzt3zOt/n4Amudyt8P7z4YAAAAGYktHRAAAAAAAAPlDu38AAAAJcEhZcwAALiMAAC4jAXilP3YAAAAHdElNRQfoBBsWKAuWf+3xAAAgAElEQVR42u2deZgUxfnHPz27yykKqPHWaFSixiPe8UQxImINoqLGixbaxCO/JN5Ro6LxQI0aNdGoDTbgGTxgCzyJwQM8MXiLRzyieCtyLuzu1O+PanTp7dnp2Z1zeT/PMw9sdU13V3VNffut430dBEGoOpRS2wGbAFsAm4bJg4C18jjN88Ab4f/fBd4E/qu1ni01LAjVhyNVIAgVL94/Bn4KKGBzYG+gBkgV4XIZoBn4AHgM0MBbWusP5EkIggi6IAj5i/j2wGGAB6wGdCnj7SwDvgN84F6t9UvyhARBBF0QhBiGDBniZDKZfsAxwEhg7Qq+3c+AMcDttbW1cx544AEjT1AQRNAFYWW3xHuGAn4MsFM7TvEFYIDZwAst0p8F3o7Jvzmwa4u/dwK2C/uCH7Xj+v8FbgH+prVeJE9UEETQBWFlFPKzgRPysMYXA68DTwAvAu85jvNSfX19pqP3k06nU8aY7cM+4XDsPP1WQI88rPZ/AZdord+SJywIIuiC0NmF/GfAqcCIBNmbga+B8cDDwIta6+9KeK+rATsCBwC7AbtgF+PlYixwrdb6NXnigiCCLgidTcjrgAuAPyXI/gFwA1CvtX63gsqwKZAGDgb2TPCVW4HrRdgFQQRdEDqLmJ8CjALWyGGNXwtMqq2tnVnpC82UUruHwn5qDqv9K+Bq4AaZYxcEEXRBqFYh3xH4G7BzG7+194GbgfFa60+rsIy1wInAacDGbWR9Hrhcaz1JWoYgiKALQrWIXO/Qcv0j2fePfxxa7RO01svadSE/2B7ojfUQB7A1dq47KTOBV8P/PwTMw3NfameZuwDHhmVaP0s2A9wJnKy1ni8tRRBE0AWhksV8d+Ca0CqPYwHwF+AqrfWSxD9UP+htrFvXY7Er0DelOHvVP8O6gX0CuL2348yZN3K4yaP83YFDgKuAdbJkmwccpLWeIS1GEETQBaGiCB3DjACuA3pmsU7HAOdprb9IKOK9jBXv44B9gdXLULT/ArOA8Q48YTx3QUJh7xHWxVHEb31bCPy9pqbmnEmTJoljGkEQQReEirDKVwP+CrhZsnwFHKG1fjzXuWr8oK4ZtsQO1+9L+5y9FIsvgAnABDz35YR1szXwd7Kviv8XcGgpt+MJggi6IAhxgtUbeBI7fx3HDcCZWuulbZ2nzg9SjTAUuAQbiKXSeRy4sQ4eaPTcTI466g6cAlxBfECZV4H+WutvpEUJggi6IJRDzAeE1me/mMOfAsO11o/l/BH6QR8DT2Mt82rjDQf2MJ77bYL62iK0yOPm1pcCByYZxRAEIZ6UVIEgtEvM9wEezCLmDzqOs0ESMQcw0K1KxRxgy/D+c6K1ftNxnA3CeovSFXgorFdBEETQBaFkYv4I8VvSLnMcR9XX1zdnPYEfbIEfnNwpK8cPTsYPtsh2uL6+vtlxHEX8eoMuwCMi6oIggi4IpRLzh4G61oY2x2utz2szWIof/AF4GetlrTNyMPByWM5sop7RWo8Djg/rrSV1wMMi6oIggi4IxRTzAVgHLFHL/FNga6110IaQb4If/Afr3rWuk1dVHXAtfvAf/GCTbJnC+to6rL+opf5QWN+CIIigC0LBxVxj53qjYr6b1vr1uO/V+kENfjAUeAsbd3xlYjvgLfxgaK0f1GQR9dex3u2iot4V0CLqgiCCLgiFFPO9gXqge+TQXGB3rfUHsT8uP+jSBD5w/0pglbdlrd/fBH63MeNSWUT9A2D3sD5b0j0U9TWlFQqCCLogdFTMe2M9nkW9nX0M7KW1fj/2i36wQQbeJLuzmZUNt8GYp/GDDbKI+vvAXmG9RkV9WvgcBEEQQReEdol5H+DfwLaRQx8B+2qt38si5htiHa9sIrW4Ar8AHg/rJ07U3wP2izm0DTBVqk8QRNAFob2cTfy89wit9TttiPk0bPAUoTWbAtPaEPU52NXvUXZTSo2W6hMEEXRByNc6PyQU9Dgx/1cWMd8A6wltsxyn/5IWzlUc+A47R1+N1If3v5wHw/K1xWbAv9oYfg+AEbTe0naqUmpXaZ2CEI+4fhWE1mK+BfASrT2gXa21PiOLmK+HDTn6kxyn/xoYEA1u0mfMOOdbY3YDpmBjnFc63wGD+zjOzG+j4VX9YNvwxSZXdLj3gL3x3E+yPIepwIGR5EXAOlrrBdJSBUEsdEHIxZgYMZ8KnJNFzNcBnkog5hlg37hIZd+OHG7w3BnAlVVSR6fguTO+jYuVbsu3b1jetvgJ8FRYf3EMwcZnb0lP4EZpooIggi4Iuazz07GLt6JW9W+01o1ZxHwmsHGC04/Fc19pK0NvxxkNLKnwanoVz72jzRy2nHckONfGwEzHD1qNSmitm4D+wOLIoWOUUsOktQrCitRKFQjC92K+HXBeJNkAv9Vaf5Lla9sC9ya8xM25MswbOdzgB8cDO1ZwVc1KmO8G4PMkGY211mfFiPocpdS52HjzLblFKaW11g3ScgXBInPogvCDoE8AjokkT9FaK6mdsj6XHtgpj/6RQ3/RWp8pNSQIFhlyFwQrGgfHiPm3wLFSO+VFa70YODV8Hi05Qyn1c6khQRBBF4TlYt4FuCLm0Ila63lSQxUh6rOBiTGHzpDaEQSLDLkLIuhKKVrvA79Pa31Y7Bf8QAMD23k5H8+NjYXe1Q9SS2EOsFEBivUU4OG577e47x9jt5NtUIDz393XcYZ/E7fK3V7rRsBr57lvwXN/G/OcugOv0no3wbZa61ekJQsi6IKwcor4+sBagAJ+A6wdybKL1vr5GKE6Ebipg5e/0YELjed+1eK824QW6OYFLOZteO6IFteYDuxdwPM/Apy1wsp9P+gHXBXWa3sxwH547uMxz+1YYHzMy8tzWN/5rwBva63nSysXRNAFoXMK+GrYiF6/CC3HVWkdcGU519fU1Pxh0qRJK1ifjh/0MTAD2KIAt7QA+BDrK/5wrBOWQu86mYHn7tFCbJ8O66CQNGG39f0T2Cd8IelSgPO+2c1xftYwcvgKe9nT6XSNMeaNHC8+84A3QuF/PJVKvTt58mQjvwKhsyPb1oTOLOI9gROAo7D7nddI8LUG4MKomIdm44UFEnOAXsDPwk+19yFrAf9X4PNu0WDMhdg6/576+vpmpdTVtL0FsDc2xvpuAJlM5n2l1D1AEPqKFwSx0AWhCkS8FugHnAsMCMUmHy7SWo9qleoHu2KHmFetouoohYVeTBY4sL7x3Pkxz/l1YMs8z5cBngf+DDwaOq4RBLHQBaGSSKfTKWPMYOByYKs8vrrc+9tkrJvRbPPj51aZmHcGehm7++CkmGOHAwdgR176AMOwu3Zq2jhfCtgVu6f9daXUzcDNWutlUtWCWOiCUBlW+aHYodmtE2Q3wDPAA8D7wNSc3sb8YHfg6Sqsmmq30AHmObBRnJUe0w42x3ruGwzsSbJ49K9iR2Xuk1+SIBa6IJRPyLcEzgKG58jaBNwPTK2trZ3wwAMP5LtA6hyp7bLR29iANSfmyqi1fht4G5g4dOhQp6mp6RfAUCBN9kV0WwP3KqVmY/0OPCdVLoiFLgilE/K+wJmhmLflHOlJ4G7g1vbOlzp+sLqBd6mOkKad0UJfbqVvajz36/Z8OVwZvxPWT/9BbWTNYFfrnyQOhYRqRDzFCdUm5nsBjwJ/bKP9TgH2SKVS/bXWN3Vk8ZOx8+a9pebLbqW3e/1CfX19s9b62VQqlQb6YlfIz8vSHx4JfKyU2lOqXag2ZMhdqCYx/w026la3eO3lIeAyrfUMqS0hSrgX/VvgRKXU2djwroNjsvYEHlVK3ai1Pl1qThBBF4TCCXkf4MbQeorjU+A0rfXd+ZzX8YMfhZbfr7Cro48OXwwex3NPlJqvUPzgH8C+2CnDO4Bm4C4HPjOeuzDJKbTW3wEHKaV2w25j2zeSpRtwmlJqV+AgrfW3UvGCCLogdFzMnyZ+z7EJLfZztNZLc50r5Qd1GevIZQBwmIGdiV9H8qbUfEWzDrBZ+P/ljmcuNvA5fvABNj79v1LwWsZzG3MI+0yl1EFY74F/obWXu92Ap5VS/bXWX0rVCyLogtA+Mf8FcEsWMf8EOEpr/WQCS3wVA5dk7L7lflKznZa1ws8uABmYgx/c5MCYtix3rfUS4Aal1MPAGOyWt5ZsiZ1XV1rrR6WahUpFFsUJlSrmvwSmE+8atd5xnA1zirkfbI8fTDAwF/i9iPlKRz/grwbm4geX4Qc75LDW33EcZx9aR94jtNx12C4FQQRdEBKK+X7Ag8QH+TjfcZyh9fX1mTaEfLswxOks4Bis3/Sk/A+Y9L11D18C91RpVT6d4+9q4Z7wOSxnUvicktIL60vgRfxAO37wo2wZwxXxQ8J2EyfqD4btUxAqDtmHLlSiZf4graeDDHCc1vr2NoR8XeBY4FLadgGajRnACDz37Zhz/wm7eKoa+ALYH899OaYc22K3/f2oSspyPp57SUw5NsfGdl+/HedsDM97RY62eAwwIeZQEzBIaz1NfrGCWOiCEN+BrgFcGyPmmQRiroDHgdHtFPO5gBsr5sCaqdSlwA1VUpUjYsUcCNNHhC9Ilc4NYb3HleNtbLjW9vgYqANG4wev4QdZo+eF7W1z4OPIodrQUl9DfrWCWOiC0FrM+2LnzKP+2JuB47XWcZYStX5Q02Q9xl1MxxZ5XoznXtjmj8UPehm7Ra5nBVfl7XjusTlz+cHzwE4VXI5FDqxjPHdBjnJcBZzRges0ARfUwpVNntucpW1uiB29iY4GvArsLVvahEpBVrkLZWfIkCFOJpO5IouYj8gm5mFvvF0osKM7eBt+rgzGcxfgByOp7BjmLybMdymwYwWX47WcYm65HhvDviP0DNvRrCyW+kdKqd8C97Hi6M/WwN1Dhgw5IHRaIwhioQsrvXU+Gjg7kpwB3LbEXBBK3E6PBQJaT1VeobX+o9SQUG5qpAqEMneSe2Cdw3SN6SSvkRoSKoW33377lX79+r2PjeDWkm379ev31Ntvv/2R1JJQTmTIXSinmK+KXQQX3VamHcf5U9Lz9B0zzmkuwP18N3J4m8Omq48Z5zQV8TrFPn9LVhszzinmdQpx/lrg6xxlKcR1aoBvEtQZgOM4dxljhgGqRXIv4Fql1ACt9Xz5ZQvlQobchXIK+kXABZHkuY7jbFhfX59Mo/3gd1j3n30KcEsj8dzblv/R9Z//Sy09fINMeJ2fYrdJrVOA69zby3GOWNBSRPxgy/D8axXg/HfjuUe1UWd3kt0vfj68AByP577R4tybArdRmDCtL3eBHZZ5bgagx93/7b74yE2WtLjW8VjPbh3lW+AiPPf6JJnDcKwfAetGDl2stb5QftmCCLqwson5TsATQPfIoS211m/GiNCGwDTgaDz3BQDHD9Yy8A75OY5piybgT8B4PPfTFtfeGxtXfe0CVsE/8NyTAFJ+0CVjV0xvXsDz3wmcjed+3KIcGwFjaR2IpCO8iOfu1OIaNwO/LuD5Pwmf+RMtrrEOcBEwksJtvV3gwGbGcz8Pr/Er7M6J/fDcD2Pa7xbAG5HkJdhV7y/IL1woBzLkLpSLa2LE/Nw4Me/iB6llMBEbkKNfaBliYPUCivny38NoYBR+MB0rssdinbAU2mfDT5b/J2PLsXmBz38UcCh+8DTwEnB4+ELStcDX2cjxg14tVqRvXODzrwc8jh98gXXysjXQn/gQuh2hV9iePg//PgjYFLiiix8ctXyUYDla6zeVUucCl7VI7h62a4mlLpQFcSwjlMM6H0TrIdmvgKvj8i+Df2Ajo5WKbthALmeGIlitv5Ou2MhyZwIbFUHMAdY0sEoJ+qm1w3IcUAQxb8vYOSJsf3FcHbbbluwetm9BEEEXVgrOZ8XpHgMcrbVe1iqnHwwBhkuVCWVkOH6wfzQxbK9Hs6LXPSds34Iggi50eut8f2DXSPLTcWEpwyAatxEfpEUQSkUX4G+OH/SNEfVHaR30ZtewnQuCCLrQqbmY1osxL4vLaGws9D5SZUIFsJmx3vXiiLZfJ2zngiCCLnRa63wfYJdI8pNa64dbZfaDzQCZixQqiRFhu4xa6Q8DT0aSdwnbuyCIoAudkiEJrJvl3I0MtQuVRReyxwy4LGF7FwQRdKHqrfNa4Pcx1vkjMdb5UcD2UmtCJTZl/KBfjJX+SIyV/vuw3QuCCLrQqTg9Ju3OPPIKQiVQh/VMSML2PEKqTBBBFzoN6XQ6Revhx7lYRyFR63xLbChLQahUjsAPtopJnxC26xWav1SXIIIudBqMMT2BX0SSH9NaL47J/ltpl0IV9Jut5sfD9vxYJHk/pVRPqTJBBF3oLBwSk3Z7q8boB12wLkoFodI5bZX4SG/Rdt0VOEyqSxBBFzoLwyJ/fwI8Fc2UsX7TV5fqEqqA1RcaMzAm/dmYtN2kugQRdKHqUUp1A6LzjW9orZfGZN8hx+neBt5r8fc8YHaVVs205f9xbJSuu6q0HDelbPjRVuWqMmaH7Wk592Aj+bVFq/lxrfVCWg+7y44NQQRd6BSsBvw4kjY5mqnGD2qxEa6ycRue2w/Pfeb7FM+di+f+HDiniurjQ2AzPPfK5QnGc+eF8ctPqaJyfAociOeenPHchhbP5EpsVLwPq6gs5+C5P8dz57Yox/3AfsC4Nr63Qxc/iOtD/xP5e0el1FrSFQgi6EK1s3tM2oxoQjNsgP3E8Qaem337j+eOBu6vgrrIAAPw3HezlONGsjvaqTT+jOc+lKUc72KnT6qBv4ftJ64cHwHnAu9m+e7OTVATk/5MTNp60hUIIuhCtbNlTNrrMWmD2xSP3FxZBXVxFZ77Xo4f5EXA1xVejll9Hecfbebw3KewvvgrGifX6I612s9v4w1tZEzy1Ji0A6UrEIqNeDESik10T/lUrXVjTL5tiZ+zdICXc12kBmY1w/QKt4Qm5zThPXcZfjAWOLiCy/H4NyOHmwT57gYq2Z/5zNUcZ+G83PleDq30uDIvatVgHafZGPNG5GW2l3QFQgleUAWheCil3sbOqS7nPq21bOMROnu7vxc4tEXSu1rrzaRmhGIiQ+5CqXlPqkBYCWiK/G2kSoRiI0PuQjGtlFWB3pHkN2LfLK1TmaydXsZzG9u6Vo0f1JoCjDhlu06hzl8HzUs9N1PsctRC87KY63Txg1SWhVwFOf9yuvpBqrEA13HANHtuU6nPH2mbdW2dIuO5y2LSHwSOkF5AEAtd6Cz8CFgzZ6fqB6tmYGkGlmX5LMEPvo+N3uOf/3O6/vN/P7RdP9i+GT5v4/uJP/jBda08gPnBjs3wZSHOvxT+bwWB/+f/vn+prvODmmZ4oRDXWQaz8IOtI+XYehnMKtD5p9T5QU1cOdYcO95ZCncX4jrN8CV+sGPLYqwyZpyzFO4t0Pk/xw+2jytHWGeDMrCkjXMsdfxg1fh3hRVYVym1tnQJggi6sLJTA2j84CSAxYdvYJYevkEm7HAPxjoz6Vuga/1uoTHntXjZ6AFMihlpaC/X4geX4QcbAzQevkFTWI79G2EmhQtMsx1wdiTt7AKef1AjTMYPNouUY+MvM5l7aO0dsL30BiaFzwGA8PkMLdD5+wLTwnb0QzlsWUYBmgKMBAA9gVXkpywUExlyF8qOSbYyvQa4ET+4DrgVu6d7eNhJFnpx504t7m0tCrty3sFulTobP/CBRqwnsV2LUI4f5/i7owwGDsAPngdeArbBujmtKfB11gufw/vR51Mg+gD34wcLsY5kUsAJ2FCpgiCCLgh5cFAeeeuAkztBmVPArzvJ6MkvaB1Nr9pwsFvLfis/R6GaOxVBKDfzpQoEQRBE0IXqN43ulFoQBEEQQRc6haYLgiAIIuiCIAiVzSfAx1INggi6UK18Gn4EobPyOXanQpQdI38v1lo3SHUJIuhCVaK1XgQsjCSraD4HlgBvSY0JVcgbxnOXxKSvI1UjiKALnY2c8+Ohu1Wx5IXORNSNsbRvQQRdqHqiK9i3SafTcY5HXpOqEqoQHU1QStXR2pPdY1JVggi6UO1E5xc3M8bEtbsXpaqEKuSZmLTVaO0t7zupKkEEXah2/hmTdkRMQ7xbqkqoMpalrMvbnO07y+9AEETQhapiXkzaDtGEbo7TCDwh1SVUEVOzhE7dO/L3F8AiqS5BBF2oarTWXwAvRJK3juZbPHK4Id7aKTVN2FjWADjWLe0ztBGrvUIxwORI2uQqLcczzorugR8Mn1O5eTaaEM6fbxNJ/kBrvVB6A0EEXegMzIz8PUAp1Ssm36Qy3+dbwI/x3Ju/VxPP/RrP3Q04qYrq+31gTzz3qhVS7d978kPUsmrgJDx3N+O5X7cox83YyHHl3uoYN4y+DdAvkjZRugBBBF3oLDwVk9Yq0tiaqdRTwIwy3WMjMADP/ST2qBWRK6rEoh2O587IUo4ZwJ+qxFK/ouXLVaQcnwADiHfqUpKX1DVTqQ9j0vvHpE2XLkAQQRc6Cw/Sei79sGimL0ccZ4D6Mt3jKDx3bo4fywVVUNcz8dyn2szhuXfSetSk0vgiBefnKMdcYFSZ7u/6sL1+j1KqC+BF8r0NvCxdgFAKJB66UHS01kuUUtMiIr6rUmoNrfVXkQZ5dRMcQuttP8VmSq4MGc9dhh9cTetFT5WEnzDfQ0DXCi7HtNDhUJLnNrTE99ZcC/fGTOJvBvw0Ws9a60bpBYRSIFGuhJKglDoWGB9JvkhrPUpqR+gkbfwK4KxI8q5a6+ekdoRSIEPuQmneHB3nDmBOJPnYdDotbVDoDGLem9bD7XMcxxGHSULJkCF3oSTU19dnlFL1wJktkjcxxihab6+izg9qmqBHiyRjPDd264/jBz3o+BB9q/OvOvFjZ/6w9U2L63QvxG/GeO6C2LdrP6gz0K0Ab+lLmj0367auGj+ozUD3Dr+kQUPcsHiNH9RlClAOoKll4JO+9/zX+eaITUzk2a9CB0caHViaZT959PxZ22Ao5n0jaf+or69vll+/IBa60Bn5KxDt4GIXPjVBDwP/MzA//CzAD25tldEPLjXwZYt87f0swA+ObHnqxcbUthDbrgZmF+A68/GD8TV+UBspx64ZeL0Q52+GqbV+EPuCU+sHNc0wtRDXycDr+MHO0ZeFZnioEOc3MDvlB9/P8y81dInU2ZEGFhSgHG/iB/1bnrqrH6Twg1sj5/9vFut8DVovmGxGvMMJIuhCZ0VrPReYEEneQSl1aBYr9tRI8kj8YK8WHfr6YZ4eBbrFu/CDc7uNGZcCaDp8g8bwOjtmrK/5zQt0nWOb4dKI5X8PdlFVIdi/CabiB1tFBHCrJpgK7F+g62wGnBdRsTHY7WSFYPMMvIgf7Aiw6MhNlgJ0GzMuhR9cB9xVoOtsAjwYtif78gBH03oI/egs3z8KiPpVuCxs74JQMmTIXSg1NwPHRV4m/6SUeiK64h3PvQ0/OI4f9vY6wIYtcqxKAYaOI1zaYMyl+MGE0MraLvwUmp9///ICvSPlKgQDgYH4wV1Wn9iaGJe7BWBPxw9WM567PPhIoeOA/wx4AT+YDcwGahqMObYI5egetqflDI4cn4DnPhZjna8OXB5jnfvyUxfEQhc6u5X+LK0dzWyXzfpx4HBgcRlu9VjALZKYl5JfheXYoUjn72MKN0LSFtuF5Ti2RPXWcl5+rgOnZMn3R1qX/1Kt9UfyaxdE0IWVgRFAdBHSaKXUltGMxnO/DK0l8YUtlINFwNFxCxmVUrvRelpoGXbaQRBE0IWVwkr/L3BtJLkbMDb2C547Hfib1JxQBk4L219UzFcF/k7r3RV/EOtcEEEXVjauB76KpO2ilDozi6ifE/MSIAjF5Fo895Ysx86n9XTMx2KdCyLowspopc/FzktGg4Sco5TaOYuon+ZYl6WCUGzOwXNPizsQts8zIskGOFRrvUyqThBBF1ZGUf8noCPJfYDxSqlYP+MrhNEUhGLhudn2nO8IPBxz6O9a6+el4gQRdGFl5jjgm0haP2CaUqqbVI9QKYTt8ZrwpbMlj8dY7IIggi6sdFb6d8ABMYf2AO6VGhIqRMx7AI8Ae0YOfQWcrrVeKrUkiKALIupav0DrKFUAg5VSp2X9oue+AZyI3VokCO1lMbDvqo7zZhYx7wk8COwVc/hErfVsqUJBBF0QfhD1q4CrYg79RSl1ehuifjPWK9p/pBaFdjDbgfXx3H/PHzncZBHzKcDeMd89S2t9n1ShIIIuCK25EJgRSXOAq5RSp4eda5yoz3DsEP0lwAKpRiEBC4FLHNjdeO63WSzzHljf9/1jDl8SvoQKggi6IMRY6UtCa/vpGFH/C/BgtoVyxnMX47nnYwOPTJfaFNrg3w5siueebzx3cRYx74bdIhlnmT8NXCHVKIigC0Lbor4IODBG1MHOYT6ilMrul9xzn8Vz9wlfDJ6k9T73SmApcF+Lt5VFwL9oHVq20skANzgrrmG4LyxfpWHC9jAQz93XeO7n2TIqpXYC3iR+zvxp4ECttbgiFioOR6pAqESUUr2wC5H2iDn8DTAo0b5fP/glNsDLiAp5gX3DgQHGcz+LudfDgbur5HdpgCPx3FYxvx0/WNvYF5QtK+SlYyzwz7hoaTHt7kisS9e+bYi5TOsIIuiCkKeor4J14rF7lixXA6MSWUt+8BMgDRyM3XpUjrbfBGyI537axn2eS4tY6RXMEXFi3qIc2wMvlOklymAj+k0C6vHc9xK2tVuBI7Nk+TNwpVjmggi6IHRM2M8GRmc5/DJwktb6mcQn9IMNgH2BQcC2wE9LVJTz8NzL2srQY8w4Z7ExH1D4+OiFZOYaKWePr0YMNznq+VHglyW6p7fCtvAQ8Die+7882tdRwC1AzyxZ/qi1ljlzQQRdEAok6ocB/wBWjzmcwc7dnq+1npPPeev8oKYZUhnYBtg1TF6nxf8LyZl4bu7tdX5wdgmFsD08hudekaAchwInFeH6zwLLRzmeTcErNZBp9NzmPNtUv9DyHpYlyzfAQK31i/ILFETQBTGZ/hQAACAASURBVKGwov5z7DD7PlmyNAI3ARdrrcXnu5CtHW2G9XlwIFCXJdu/gYO01oulxgQRdEEoTmfcFetP++Q2ss0PO+QztdbvSK0JESEfBHTJkm0e1h/CLVrrBqk1QQRdEIrfOe+KdSQzoI1sjcDr2NjVT8jq5JWynayCdQ98NLBVGxZ5MzANOFVr/abUnCCCLgil7ay7AUcAFwEb5cj+JTYq1izgZqBBYld3yjbRBegG/AbYAbv4cc0cX/sQu/DtbqlBQQRdEMpIOp1OGWNOwIaw3DTh194BXg1FfjbwPIDjOM319fUZqdWqEO/l1vbOwHaheG8NbJbwFO8Cf3Ec51Z55oIIuiBUXif/f8Ap2Jjq7eF54GOpyYrHAIe287tzgL9rrW+QahRE0AWh8oV9J+A0rCOZblIjKz0NWEcz14ThegVBBF0QqkzYa7H7jA8G9iPepafQOfkGu9BtEjBRa90kVSKIoAtC5xD37livcAOAw4BeVIa/caEwvIENn3sv1pf8W2EEP0EQQReEzkw6na41xiz3PJcG1gr/vwHZndcI5ecd4JkWfdh4oMFxnK/r6+vFChcEQRAEQRAEQRAEQRAEQRAEQRAEQRAEQRAEQRAEQRAEQRAEQRAEQRAEQRAEQRAEQRAEQRAEQRAEQRAEQRAEQRAEQRAEQRAEQRAEQRAEQRAEQRAEQRAEQRAEQRAEQRAEQRAEQRAEQRAEQRAEQRAEQRAEQRAEQRAEQRAEQeisOB09QY0f1GWgr4EjgV5Zss1zYCJgjOd+0aEb9oMebVynqHVVA182eW5zlvtaBehZqIsZz/28g/XUB+gSSW42nvtVySvOD1YFuicpY50f1DTBmoBpkbzUeO68It7fWgZ2A7YK29YhkeuPD//90oFJwCLjuQs7cL01gJoytOFlxnO/LfRJlVK9ga4FPm1Ga/1lhd/jIq31wgLe42pAt5z9UE3N55MmTTIFfobdgdUAL0xaHRjc8nkAE0LNcIDbgAat9VftvF4voEeObE1a6687WK68+mWtdd797qhRo1IvvfTSz4wxOzuOs7Mx5mdAX6A30Cesu4XAAmA+8L4x5m3Hcd4GXl9nnXVm3XLLLY2FeI617f6mH2wLHNtsH/pPcwoU3AAY/OB5YKIDtxjPXZC30MGJwNXlePtpgs2Ad7Pc17nAOQW7mB+82OKlayIwMwXPZTx3WcJ6ugQ4uVUR/OCneO57paw3Aw8Dv4gkvwDsHM3bCOsBH0aSH4x0Lh1ilTHjnEXG9DEwGvi5gR1zfOXPLcryD+Az/GAacEcNTGv23KY86+MlYIMyNOEngP5FOO84IF3on5tSanb4//eAWcDNWuv57f1FAYcW+B4/U0p9HP7/aeAp4CGt9ZJ2nu8fWMOoTZqbm7sDDQUQ8S7h7/JYYP8EbfKSFv+/GFimlHoOuBf4h9Z6WR6Xvxj4Q448rwM/60D51g2fy8YJvxLbJ2VjyJAhGzQ3N4+YNWvW8cBGAMZkfc/qBqwR/n9bx/nBlv70008XK6WecRzniebm5gemTp36WskEPeUHXTIwBjimnSMCuwC7GPgLfnAncA2eOyu//rAiyRT4fC1FZofwAh/gB7cA4/DcuTm+f2WMoNeGb+DnlKxW/GBvYNeYI1eUpW79YNeFxpwPHNiBs6wdtv9jmuEV/ODhGjgvD2Fv7iRttJjnrW3xG9gROAK4Uik1EbiqpqbmxTyt1GLc49rhZ/k9/gH4Vik1DfhLTU3NCxVwj61Ip9MpY8wZYf+wUQdO1QXYM/ycpZR62HGcE+vr65P8DkwJ6mNaHmL+HHBAkoxDhw5dvampaXQmkxnhOE6qAI+kBzDAGDMglUpdnE6nZwO319fXX5Ov3uV3M34wNANz2ynmcRwFvIgfXBUOWQtt82PgMuAJ/OCMNluI43wEzIw5dIrjB6uX8J4PovXUziIH/l3SmvODdfCD0cD0Dop5lG2As5ptO05LEy06w4Dnm5ub7w2HqCuNPuE9Ptfc3HydUqpvJd2cUmp3Y8yc8IV6owKeej1gpDHmA6XUKKVUbZnLORbYIg/L/ACtdc5pvYMOOuj4pqamOaFhlCrGvRtjtjPG/KV///55T8slvyE/OBO4Hzu3UmjOMHYYcxfprxKxKXAVfnB7tgyLRw432GmA6BteL5NgWK8Q9BgzzgHiXjzONp77TQnF/OfAY8DZFH4edTnbApPxg1HhOg+huBwCTFNK9ange/w/4DGl1NblvpEhQ4Y4SqnLsNMCmxbxUusBFwJTlVL9yijmxyfMvhgYkkvMhw0bVpNOp29xHGdskTSwICR7i/KDrYHzshxdGA5tTK6BO0zrMZNfAFtj52j2I/tCiJ7ATPzg93ju3/Isx0LgWQqwyK8NnPDh58PrwGcduOaAHMePxg9Y1XGOnW8FfEU89wn8YG74I2vJscDfi924FhtzZkzyUuyceKnEfBCgaXsR2leh4M90YIITec4Z2CRsuz8DBuWwbC400N/xg8HGcxflcaf/KkFtzO5kor4j8IhS6gCt9TcVeo/bA7OUUj/XWr9eJoHbOJPJjKU46yeysT8wQym1dynLnaeYLwQGa60/zdX3NzQ0jMeOKFc0OQXd8YPuxnZ2ccNbDzpwlPHc7yDrxOCT4efvjh/0MHAYdpHRhjF5Pw4733x5D8/9ZQXW72g89/Z2v0H4QS8De4UNaQCwVpyozzfmO+CULKe5FvhLJG1n/GAfPLdow97dx4xzlhgTt5DtQTz3/RKJ+YHA5DbEfA5wpgPTjOcuIRzOMPH55sD3a0hOAs4C1s1y3r0NTHH8QCVdDV8LA7PtoBDaZCfgTEq5LiR/6oDxSqlflvrFQym1Udj/rl+Gcq8OPKWU2ktr/VoxLzRkyBAnk8n47RDzJ3NlPOigg86rBjGHBEPu4fBsnJBciOcOXi7mSTCeuxjPHe/YVfHnYpfwL6cZOBXP/VD6qO/rawGeOxXPPdqBnwB3Zsl6An4wIMsDvh5ojBltOLqY977EmN2wLyNRxpVIzAdjt5jFvbR+C4xMwTZ4rl4u5knIeO4yPPc6x+54+HUbozZbGrt1RSg+Zymlflbh97g9cMHQoUOdUl0w3Ko3o0xi3tJonF/si2QymdOBEQmzL04q5oMHD97CcZwLquWHkGQOPW4B3J147sUdEKoleO7lwN7h2yPAFXju/dI3Za2zRTUwPMvzqAMu6eoHqRgBasTuGY1yPH7w0yLecpzF9FoNTC12XYWL/m4O6yXKp8D2eO7YpFsA23g5vRU7H/litNqBNJ77kbTckvVjB1fBff6+qalph1JcKJ1O1wI30Xq6rZQ0A6dorYv6O1BKDWbFLXVt2hrYBXBPJmpYqdSoLP1INr4yxlznOM4gYKMFCxZ032GHHWq6devWC9gok8nsBZziOM54OjYdm/XtqS0rZ0Ng95iHdGlBru65sx0/GGTgtzVwrYw35vh1eG5TjR/cE+79/1Xk8K5L7TTGBzFfHY19Gega6QSHAG8VQVD7mPj5unH57tnOl75jxjnfGDMlS0c2F9gDz/2gYBf03E8dP9jfwGn8sM7kFDz3OWmxK/AWMCXp+1L44roWyRfuFsJCfwc7RZPk/oZj1/3k60zqiJgXwMIbAMYcRfsWvy4EbsH6SpgTObY7dtRtEDGOomJeao/XWk8ospgfCNxHssWuS4H9tdZPJzn3wIED+2IXXybF79at26kTJ05cYZpt+vTpy+t1IfARdmHijYCjlNrFcZzhxpijKYDDtFxz6JvHVFQznvtGAS3PxcCVIubJRd3xgxGmtaATdjIXxYjO+/jBLKw3tBUshtXGjLvyu7gFdR15ptb5T7Sj+8KBG4vtROAbY04ift/7x0D/Yszfh97XzscPvgDm47njpKW24mWt9Zl55D9LKbUncDfZ1yqsIJTpdPqo+vr6juxdfjWPezwr3Jp1Anb3RNItYIOVUudorYv2YquUWg87QpUPywAvhwC/CFwXDuUfF1rF2URoQgnEfBDwAK09YmYT8wFa6xlJz19XV/dLkvtquU9rfUK+XYfW+lng2WHDhv2xoaHhpLAt9e7IUFW+PCZ9U3kxnttA/Erxn7TxtdExaet8Z8w+BbbOu2MXjUW5PXx5KxqOH/RuY/Rov6J7yPPcG0TMC4fW+inglxV8f01a65tSqdTG2C29SdgioQB1hDHkdiHbkknAekkFWGs9T2t9PbAOEMRkqXccZ2SRxfwAoD5hXTYA++Uj5gCO42yXNG8mk7muI+WZOHHid1rr0cuWLftJljotmqD/UrqayuhPYtL2aENsNHb+OMopBbbOhxDvQvL2YleIgcOzvN1ehOfOkSZTlaL+BvBQJd/j5MmTDfBH7HBqEn5TRKHbDrvFMilXa62Htscnu9Z6kdb6eOx001ctxHxofX19cxHLuBZ2aiSp9XxY0mH2iKCvm0fegiz8e+SRR77RWh+vtXamT5+e9yhOewQ9FQaXEMpsqLfjO3HW6yH4wcYFvK9jY8Xcc/9Tgjq5PCbt09oWvtiFqqS+Cl483sHO5ZabA0ke+GeG1vqMApT9WmAg1pfCWR2c9kgi5o/lMcpxtda6XQtxjTGJnVClUqn9KqEd5hL0+bTeXl5rChgoQygdjrWS497Ezy7IBfxgM+Ldqk4ueuH8YHes280oN8j+7qoniQvPlxzHKXech2cqoK6SbrGai3XLXKgXmpe01vtprYs2EqaUWhPrxCyp572rU6nUme29Xj5WtzHmgsGDB+9Z2YLuuc9jl/lHuSnsQIXyEef7vk0rOPQZ8HjMoQNSflCIeb1fx6S93s1xSrEdMU1rT4HNKbhGmkr1opRag2QGxAvh0PfKXFeHkdy18RVJfJdXUNlWx8ZhSLqb4epUKnVmR9qEMSafUN+rplKp6Uqpe4YMGbLfsGHDyhEeOdEcxG1Yn8Qt6Q48gh8MWd1xHv+6wKukhRwtZ8w4Z74xcZbwywm+fh52rrklG2XAxW5Xaa+FvA6to7sB3NAwcngpoki5MWn3ZDx3qbSYqhWovthRpZ/kyJrBhmde2UlquX6EDdVaTe3gaRKE6Q65phBTCbkMpCwG8uGZTObwhoaGeel0+t/GmKdSqdTMtdZa66VCxTzvqKBfAYyktQ/2nsC0r42Zhh/8OQXPdsRRh5Cc+cbsCuwbc+jVXN+tgQ+arfBvGzl0RJ8x4279tv0vZ7+MaSPLHLi32G97Xf0gtTTeNXG9tJaKoVYplXSf7S7YPc+/JtmWtYnl8pMeYa+E+YrVsScVPD/P2OXl5m95lO1arfXphbhoXV3dzMbGxgztW2vW2xgzFBiayWT49NNPlyilXgCmZzKZaT169Jg5ceLEgk8F5r5Rz/2EuL3NP7Af8EQG5uAHN+IHe6f8oA6hKISRvK6NOfS1Ez+cvgKhY5e4OfN9vzVmnQ7c2rkxaRcZz/262HWyFBSthxobE45YCKXhUOyanCSfx4BRCcX8BeJHhkptRW4ZljEJYwp9/XQ6XUPy4CtPV0ujUUpdS7zPjTiu01qfVqhr33///Z9i5+wLQffwhe+CVCr1ZENDw2dKqVvT6XRBp66TLfv33CvxAwNc2UauH2P3H5+UAfCD+4FXgI9ScFfG7p0uFn3xg+EUJ9ras3juW5XQuB0/WMXYBhYXZvaupH71UzA9Y90Orh05dBnxQ9c53veDbWk9LNpM6aKqxQ0CLKuU55aEJhiOHxRjaiKD547vpC8JLwIDtdbflvMm0ul0jTHmKuy+7FzMJWscq451D8CPEuadUSXPd2uSTyMAFDzwjTHmSsdx9i9C2dYAPGOMl06nZxtjLtFad3iXRPIg9J57FX5ADlFvySHhhwyMxQ/uxYZv1HjuKwWunA3owGb8HPyWIrhHbYdobmnAzyLmb6fg9KRqkPHcpfjBeGzEsBWemeMHZxvP/TzPu/t1TFuahud2tnCdxWRMkc7bBHRGQb8fGKG1/q5cN6CU6gocbIz5a8zLcTYeLvNw96e2S+6UXKiUmq21LthU25QpU/6llLoH67K3ONaIMdsB9yqlngRcrXW7vVnW5pXbivo04FTi9xu3xWHh52L84HXgGjw3QMgl5PtiHVEcRvwUydfAUfmuX0jBBZnWgt7L2CmUO/IYNVjTWPeXUa6UhycUkc+x0ewKKejbKaX+ljDvjtgIavlOL15X5np7rphuZ8tMCrhSKfWi1npuoU66dOnSkd26ddvUGFPswDp7AbOGDBly+OTJk9s11F+b9zesg5Dj8IOrsd6R9iX5UM/ySt8auA0/OBO4rA7ubuyce4V/FQ5Ht4dB2GArbS0k+gbYH899Kd+Th1b6OKz/95aMzkfQjZ1miXZq7/V0nH8vEtERisdJwEil1B3A77XWCwpwzk0osOfECLdprV+RR1dU+gETgAGFOuGjjz66aODAgft36dLlLmD/It9/n0wmUz948OCBU6dOfao9bzTtw3NfxnN/5djwkQqYCOTrK3tL4PZGqMcPNuiEjetA4Ix2frbKIebTsf7JX+rA/V1D6/nndfP0MRC3EOjCRbKVsVJwOnHZugDHAw8rpXap8HudRwUs3gO2DBfQdWb2VUoV1P/EI4888s0OO+wwyHGcs4EFRb7/7qlU6u5hw4atVnwLPWqhee4CbFjEKWHoyk2BfbDz2iOx24l6JBC+mfjBbnju/9pxG2+FLxUF77wc+KLClOkT4AwH6jsc7MRzX8EPXmHFLWwp4CiSLJzxg8OAbSKpCx34l6h53vyU4sxtrgyPYjfgMaXU/mH0qkpjATbSV0MF3MvmxpgairMwr5I4SSn1iNb6kUKdcNSoURngynQ6Pc4Yc3b4Mtm7SPe/7tKlS8+j9bRocQW9Jd9Yq+yd8AM2pOT62D3KO4UCn80j2frADPzgF+FWuXxYiue+W4xarYDesAkbLeg24N4UPJfx3KUFvK+rab1oysMPRid4uRoSkzbWeO5nFfCDrsMPNsJzP6yG3qcW3u3kLmqbiPc62RY9ST6K2AsYm06nty5mYJB2sBDYW2v9nwq6p22x2/2qkddI5i2uG3CbUmrLQnvEq6+v/xw4TSn1J8dxhhljDsOuPepWyOsYY0b079//gunTpzfk0Y8UGc/9OBSj2/CD0cAB2H3Qm8Tk3gC7berSTtKJNedpddXGjDJ8l4J1ly96yxT++UzAD26JNMblQ5kXt2Gd/xw4JubItWWo5/+GdV0TKcOWwIcIlcC9Wutf5fOFcBh9O6xnw/4JxH2L0JnHvRVQXgM8AYzUWv+32BdzHKfZGPMEsHeC7L+qUkF/WWu9nVJKk8wP/TrAVKyTooKjtV4MjAPGKaV6OI6zO7CXMWb30IBdpYOXWH2VVVbZHRv0pkIEfUXx+Ai4BT94FLgEODom14X4QdAOK70SGY7nJl5ghh+MDYV0hYeagUdTfrB/ET3xnQ9cFUk7uk1Bt8PyUabiuR+UvJY99zX8oJHWUabSVHjozZWIvKfDtNbPAc8BNyulDsZuVct1nt9WgKC/CIxqb5Sv9jB58mSjlEq63XSQUupsrXVjFbWfV/lhQZqHdV+bJP7EbkqpqwvlPS6HuD8Wfhg2bFjNkiVLfpZKpfobY/YJDdmuef9oHGenfAQ9VZZH47kf4LnHAHfGHK0L38pXuk7MsT7z4+YA987AiUW8yQnYYf2WbI4fDI3N7wfdid+2eHkZ6zrOD/1I0dHOgdZ6UmgE5GJvpdRqZbzVlx3H2bWUYt6CKQnz/RS7i6ZaeA27BuGLsC18jp3uS/pCcrJSqqSR0CZOnNg8ZcqUl+vr66/TWh9cU1OztuM455LntJPjOBvlkz9V1sfkuUfzw3x7S9TK2GkZz12E3eMfF7bvOvxgpyJd93PsqvkoJ8Tmt8Ofa0WSP3LgpTJW3+zYl0M/OBGhs5B0mHi9dp7/i9Aaivu8mfAc2xpjxpbFenCcO0i+7OcqpVQ1uOh+A+ivtf4y8oL3MMkdJnUDrlFK9SlXISZNmjSvvr7+8lQqtSPwZdLvZTKZvBbdpSrggU3tqGXbqfDcZ4HfZTn6sOMHPyrSlc/CLlxqySD8YMeWCTV+UEu805iLjOcuKWPNPQrERVb7rejgSkd743w/Hcb0bvXBjhomjUtwjFLqwFIXur6+PoONTpeEzYkfIW0XSqk1lVI3KaX2KWCRPgf21FrH1ntNTc0JJAhIFbIj8PdyN8zJkye/YYxJGrMex3Hy0sJKEHQt/c+KrOE447M0vr4Gbkv5QdeCX9RzX8UuLotySMs/mq3P9ugq0wYH7irzi9An2BX7UbbCDzxpVZ2CnmXrpKy71hF59Ku3KKV6l+FW787DSh+qlDq+EGKO3eZ6IvCQUmrfApXlC631N21YvSbsn5J6vvuVUur0PMo1L51OTxw4cGDfQj4gY0w+wXHyWqFfCYLegLACX40cbhz4E/FD2AdmrO/0YnBeTNrvQqt8OXE7EG4ts3W+nGxDjtc7frCatKyqJ2lnXJQRvtBHeFKf++tRhhjtWusHiV+HE2vkAr5S6nilVJd8r5VOp2uUUodg/YBsFiZ3BaYopQaUqLzvEr9ANxsX5OOEyBhzWJcuXV5Pp9MFC/5VU1OzZh4W+juFFXQ/WA8/GN1zzLhiDYMPQGjdkDx3HnZRV9zK9uvwg70Kfc2UjR8e3Xves9luG8Lxg95Yp0FRLq+ISvPcN4DrY450N/C44werFPX6fnAkfvC44wdrSAsuHEqpHkqpG7DDpkm4r4i383vi17jEcYRSKl2GKrs8Dys9BYwFHlBKbZPHM9nEGHNXWNdRC7Y7UF8qUXcc54FwZCIJqwJjlVL57Blf2xgTKKVmpdPpQzoq7MYYL4+yPZPPuWtzdFAbYBdLbbLImFW6+MHvlnluobdCx60+fB8BPHc2fnACdq9j1AK5Az/Yp5AOdTKeuww/mEzreeeRwJ3GbmWL/nin93SczyrFb7sDFxu7Aj96n9sbeMLxg72N5y4sgpgfEY4QpAw85fjBXsZzv5RG/INw5LkIa4fwsylwXMzzbIui1bvWepFS6lfEr/2JUgdcXehgIQnuUSulbie/AFoHAgcqpSYAz4ci3xjT75yA3Q76yxzC1gPQSqmDtNaPF7O89fX1TUqp47AeAzdM8JUtsQvqDs/zUj83xtynlHofCJqbm+9+8MEH30765WHDhnVvaGi4LI8Rhc+7dOnyXCEt9LH84ADmlGXwGn6wTsGehHVOEp1vKWUc7WoQ9fHED92tD1yxSoFHThw77B6dt9oXP9g+poMwwHmV5LfdeO43ZJ+S2N7AdMcPVi3U9VYdM87BD/6KXUOw/Pf00/A6a0kD/qE/C0ebkn6eAf4G/CFPMZ9e7JCq4bB2Uv8SmwJ/LkN9n0L74oMfG/Y3i2KeydLwmeyf0ErtDkwt8EK5bM+kkdY+PNpsj0qpM9t5uY2Bi2pqauak0+k5SqmblVIjhwwZstshhxyyzrBhw7qPGjUqlU6ne6XT6X5py5UNDQ3vhe05qXV+68SJE/PyephqQ2zHYd3ZtWQL4H/4wUUFEPP1sKsso85A5hQhXnpV49j9t6/HHDpkoTHnFVgQ5wNPxhy6j9ax2D/Ec2dW4EvQfcBp2Sw/A0/hB3sUoA1vOt+Yp7DDsNEObktjvR4KpeWaEl3nZOCrhHmHK6UOKGUlhNHn0ljXs+WkG/GLVYtR5seJXweUjT8qpbbtyDWNMZuHBoSfyWRmNDY2zm1oaFg8a9asZmPMfGPMW8aYycaYM7Ge65LyVSqVyrve2rLQs60crAEuwA/eCoeD29MRpoFpWAcHUa6SPqmVyH6BdaQQN59+cRgzvZBcEZP245i06yu1zmqsJZFtNek2wBP4wf34wRbtaL8b4QdXAnPI7lZyLJ57hbTekvKa4zglGd3TWs8n3tNltj5TK6VKOmKjtZ6BdSCzoIzP5E1gYMmMH8cZjV0LlIS+2AV83SqtITuO85tJkybl7YO+tg0rZyR+8CTWD3vc8Eo/rBvXa4EAGz51fhgvPa4TXDscqhiFHWaPu/YdXWH80vzLv27YwRZ7//o0PPeRsjxhz30PPzgn5m3XAcbgB3u1M1JdK1Z3nOe+zu0XOkMFbzls9tzGlB/sl7GLZQ7O8jI7FDgIP3gYO2T+Th38pzEuSIof7IDdi7wLNoZ8W6uCx3Z3HC+fZf9NcAV+UOypCycFf8p4bmfcWfINMLyUgVlSqdRjmUxmAsnmqmvDvrSk+9O11k8rpQZj5/x7lfiZ3A6cqrX+qlQXrK+vzyilTgN2BtZO8JX1QyPy/ypIzC+qr6+/vz3frc0hIuPwgxewPpT7ZcnVEztfcwpg8IPPswjrKrS9j/RjB05d2r5Fd2sCZ5agrpcAj5TrQXeBvy6DXbHzkVHr+dpaPziiEBG7vh453OAHt+cQ9BuKFeGuUGQ8dykwFD84jezDfnVYz4QKoBG+xA+ibdAk7ByWAYfXwZQl+a8rOL0UdWKsf/7OJujfYV2Dzi7lRUP/6b/DLuz9cYKvDFJKnaS1vqnEov5UOOR/bSh0xWYxcKvjOKfW19eXfH2N1vo9pdQR2AXdSYy8k5VSz2qt7yh3QzbGjNJat3tKO/e2Nc99o9Y6ErkIu1CizZeLsONbK+bTlpg/COwmq4JzqIV92fkd8F7M4UOb8oydm+PlYSx2SDmLLjCxairOc68B9gCShHVdM6btJhHzl4B+eO7kxs4dBrWSMMDDwKalFvMW4jGP/OIsXKOU6luG+5yJXRM1IRTcYjEfUFrrP5RDzFuU90mSTwmmgGuVUlGjtZTrDz4C1JQpUzq0Pi2RY5kmz23Cc0c5dsX7H4l3sdkelgJ/qoN0oYaLOz021vgJ2N0AUS7CDwoypBe+PGSbi3oaz51RZfU2I2WnfI4HChnJ7wVgGJ67Q1kiza2cLAX+jfXxPaiUQ7qxVozjPIp9AU5CN+DOgw8+uOTurbXWC7TWxwF7AU+RfK96EhYCJwE/LvY2ldOORQAAAkVJREFUtTz4I5D0XtYE/HQ6/f0i7W7dum2G3TI5vcB1tUJXC1zbrVu3rbTWUzp6srw8xRnP/QLPvcKxw0vDgcnEL9RKUohzgE3w3EvFoslbnP6NDXkapQ64poDbpf6a5cXh8mqstoznNuC5QY1tvyeHotCettcE3AMcgefujOfeK42yaDRh90M3AjcCvwE211rvG1phZSe0RC8g+4hWlIHNzc3Dy2i9ztJa7xUK+/VhHbdHsJqx4W3/AKyvtf6H1vrbSmk4WusG7A6UpNv39jDGfL8oe+LEiUu01hO01vs0NTVtGI7EaHKPVCfhFeDU2tradbXWp02cOLEgowHtiodurJU4nuXRbvxgMLAadn/i8oaxMXYP5mPLX2TDN515eO6kjjwn4MMytZG32jh2F61dtb5YRFG/HD94O8sPsbFA15iLH/wGO1z9vXXkwMxiva468JWBwyLl+qyQ12j23CbgJuCm0HnSTvwQ0ONI7P7ZFUck4F2sX+WnHXjIeG5Hhi1PwjreKLkxmYIlRXh7vhI7lFsMprflzzsPria3N7F2O3/RWn+ilDqGZI5NIH7l+V/J7eXOcRynIL9vrfXTYdv+vVJqD6wjn+2Adfkh9nhL3g3zO9hp0pe11nPaefmA7LtQljO/AGV8TSm1G7BV8i6oNQ899NDHwM3AzYMGDerapUuXHTKZzI6O42xhjPlJWGdrYNeKdQ3PswC7vuM74HNjzH9SqdSLqVTqhUmTJn0g7+qCIAiCIAiCIAiCIAiCIAiCULH8P1F8RIwORTGdAAAAAElFTkSuQmCC;" parent="1" vertex="1">
          <mxGeometry x="140" y="80" width="150" height="60" as="geometry" />
        </mxCell>
      </root>
    </mxGraphModel>
  </diagram>
  <diagram name="Example2" id="bmMo-kMBVeC-j3qhsVfa">
    <mxGraphModel dx="1038" dy="622" grid="1" gridSize="10" guides="1" tooltips="1" connect="1" arrows="1" fold="1" page="1" pageScale="1" pageWidth="1100" pageHeight="850" math="0" shadow="0">
      <root>
        <mxCell id="nKclH4B31BSQ5JyQafjo-0" />
        <mxCell id="nKclH4B31BSQ5JyQafjo-1" parent="nKclH4B31BSQ5JyQafjo-0" />
        <mxCell id="nKclH4B31BSQ5JyQafjo-2" value="Example 2 -&amp;nbsp;&lt;span style=&quot;background-color: initial;&quot;&gt;One Application&amp;nbsp;&lt;/span&gt;&lt;span style=&quot;background-color: initial;&quot;&gt;Multiple Databases&lt;/span&gt;" style="text;html=1;align=center;verticalAlign=middle;whiteSpace=wrap;rounded=0;fontSize=20;" vertex="1" parent="nKclH4B31BSQ5JyQafjo-1">
          <mxGeometry x="260" y="60" width="450" height="45" as="geometry" />
        </mxCell>
        <mxCell id="nKclH4B31BSQ5JyQafjo-3" value="Client Web Application" style="rounded=1;whiteSpace=wrap;html=1;fillColor=#d5e8d4;strokeColor=#82b366;" vertex="1" parent="nKclH4B31BSQ5JyQafjo-1">
          <mxGeometry x="140" y="190" width="120" height="100" as="geometry" />
        </mxCell>
        <mxCell id="nKclH4B31BSQ5JyQafjo-4" value="ServiceBricks Web Application&lt;div&gt;&lt;br&gt;&lt;/div&gt;&lt;div&gt;&lt;br&gt;&lt;/div&gt;&lt;div&gt;&lt;br&gt;&lt;/div&gt;&lt;div&gt;&lt;br&gt;&lt;/div&gt;&lt;div&gt;&lt;br&gt;&lt;/div&gt;&lt;div&gt;&lt;br&gt;&lt;/div&gt;&lt;div&gt;&lt;br&gt;&lt;/div&gt;&lt;div&gt;&lt;br&gt;&lt;/div&gt;&lt;div&gt;&lt;br&gt;&lt;/div&gt;&lt;div&gt;&lt;br&gt;&lt;/div&gt;&lt;div&gt;&lt;br&gt;&lt;/div&gt;" style="rounded=1;whiteSpace=wrap;html=1;fillColor=#bac8d3;strokeColor=#23445d;" vertex="1" parent="nKclH4B31BSQ5JyQafjo-1">
          <mxGeometry x="360" y="120" width="237.5" height="220" as="geometry" />
        </mxCell>
        <mxCell id="nKclH4B31BSQ5JyQafjo-5" value="&lt;div&gt;Cache&lt;/div&gt;Database" style="shape=datastore;whiteSpace=wrap;html=1;fillColor=#ffe6cc;strokeColor=#d79b00;" vertex="1" parent="nKclH4B31BSQ5JyQafjo-1">
          <mxGeometry x="730" y="120" width="110" height="50" as="geometry" />
        </mxCell>
        <mxCell id="nKclH4B31BSQ5JyQafjo-6" value="Cache Microservice" style="rounded=1;whiteSpace=wrap;html=1;fillColor=#b0e3e6;strokeColor=#0e8088;" vertex="1" parent="nKclH4B31BSQ5JyQafjo-1">
          <mxGeometry x="395" y="180" width="165" height="30" as="geometry" />
        </mxCell>
        <mxCell id="nKclH4B31BSQ5JyQafjo-7" value="Logging Microservice" style="rounded=1;whiteSpace=wrap;html=1;fillColor=#b0e3e6;strokeColor=#0e8088;" vertex="1" parent="nKclH4B31BSQ5JyQafjo-1">
          <mxGeometry x="395" y="220" width="165" height="30" as="geometry" />
        </mxCell>
        <mxCell id="nKclH4B31BSQ5JyQafjo-8" value="Notification Microservice" style="rounded=1;whiteSpace=wrap;html=1;fillColor=#b0e3e6;strokeColor=#0e8088;" vertex="1" parent="nKclH4B31BSQ5JyQafjo-1">
          <mxGeometry x="395" y="260" width="165" height="30" as="geometry" />
        </mxCell>
        <mxCell id="nKclH4B31BSQ5JyQafjo-9" value="Security Microservice" style="rounded=1;whiteSpace=wrap;html=1;fillColor=#b0e3e6;strokeColor=#0e8088;" vertex="1" parent="nKclH4B31BSQ5JyQafjo-1">
          <mxGeometry x="395" y="300" width="165" height="30" as="geometry" />
        </mxCell>
        <mxCell id="nKclH4B31BSQ5JyQafjo-10" value="" style="endArrow=classic;html=1;rounded=0;exitX=1;exitY=0.5;exitDx=0;exitDy=0;entryX=-0.005;entryY=0.546;entryDx=0;entryDy=0;entryPerimeter=0;fillColor=#bac8d3;strokeColor=#23445d;" edge="1" parent="nKclH4B31BSQ5JyQafjo-1" source="nKclH4B31BSQ5JyQafjo-3" target="nKclH4B31BSQ5JyQafjo-4">
          <mxGeometry width="50" height="50" relative="1" as="geometry">
            <mxPoint x="230" y="370" as="sourcePoint" />
            <mxPoint x="280" y="320" as="targetPoint" />
          </mxGeometry>
        </mxCell>
        <mxCell id="nKclH4B31BSQ5JyQafjo-11" value="" style="endArrow=classic;html=1;rounded=0;exitX=1;exitY=0.5;exitDx=0;exitDy=0;entryX=0;entryY=0.5;entryDx=0;entryDy=0;fillColor=#f0a30a;strokeColor=#BD7000;" edge="1" parent="nKclH4B31BSQ5JyQafjo-1" source="nKclH4B31BSQ5JyQafjo-6" target="nKclH4B31BSQ5JyQafjo-5">
          <mxGeometry width="50" height="50" relative="1" as="geometry">
            <mxPoint x="630" y="380" as="sourcePoint" />
            <mxPoint x="680" y="330" as="targetPoint" />
          </mxGeometry>
        </mxCell>
        <mxCell id="nKclH4B31BSQ5JyQafjo-12" value="" style="endArrow=classic;html=1;rounded=0;exitX=1;exitY=0.5;exitDx=0;exitDy=0;entryX=0;entryY=0.5;entryDx=0;entryDy=0;fillColor=#f0a30a;strokeColor=#BD7000;" edge="1" parent="nKclH4B31BSQ5JyQafjo-1" source="nKclH4B31BSQ5JyQafjo-7" target="R69Dx21KJxL1sE7gVKIl-0">
          <mxGeometry width="50" height="50" relative="1" as="geometry">
            <mxPoint x="670" y="370" as="sourcePoint" />
            <mxPoint x="720" y="320" as="targetPoint" />
          </mxGeometry>
        </mxCell>
        <mxCell id="nKclH4B31BSQ5JyQafjo-13" value="" style="endArrow=classic;html=1;rounded=0;exitX=1;exitY=0.5;exitDx=0;exitDy=0;entryX=0;entryY=0.5;entryDx=0;entryDy=0;fillColor=#f0a30a;strokeColor=#BD7000;" edge="1" parent="nKclH4B31BSQ5JyQafjo-1" source="nKclH4B31BSQ5JyQafjo-8" target="R69Dx21KJxL1sE7gVKIl-1">
          <mxGeometry width="50" height="50" relative="1" as="geometry">
            <mxPoint x="660" y="360" as="sourcePoint" />
            <mxPoint x="710" y="310" as="targetPoint" />
          </mxGeometry>
        </mxCell>
        <mxCell id="nKclH4B31BSQ5JyQafjo-14" value="" style="endArrow=classic;html=1;rounded=0;exitX=1;exitY=0.5;exitDx=0;exitDy=0;entryX=0;entryY=0.5;entryDx=0;entryDy=0;fillColor=#f0a30a;strokeColor=#BD7000;" edge="1" parent="nKclH4B31BSQ5JyQafjo-1" source="nKclH4B31BSQ5JyQafjo-9" target="R69Dx21KJxL1sE7gVKIl-2">
          <mxGeometry width="50" height="50" relative="1" as="geometry">
            <mxPoint x="650" y="340" as="sourcePoint" />
            <mxPoint x="700" y="290" as="targetPoint" />
          </mxGeometry>
        </mxCell>
        <mxCell id="nKclH4B31BSQ5JyQafjo-15" value="" style="shape=image;verticalLabelPosition=bottom;labelBackgroundColor=default;verticalAlign=top;aspect=fixed;imageAspect=0;image=data:image/png,iVBORw0KGgoAAAANSUhEUgAAAfQAAADICAYAAAAeGRPoAAABhWlDQ1BJQ0MgcHJvZmlsZQAAKJF9kT1Iw0AcxV8/pCIVB0sRFclQnSyIijhKFYtgobQVWnUwufQLmjQkKS6OgmvBwY/FqoOLs64OroIg+AHi7OCk6CIl/i8ptIjx4Lgf7+497t4B3kaFKYZ/AlBUU0/FY0I2tyoEXuHHEMIYQVhkhpZIL2bgOr7u4eHrXZRnuZ/7c/TKeYMBHoF4jmm6SbxBPLNpapz3iUOsJMrE58TjOl2Q+JHrksNvnIs2e3lmSM+k5olDxEKxg6UOZiVdIZ4mjsiKSvnerMMy5y3OSqXGWvfkLwzm1ZU012kOI44lJJCEAAk1lFGBiSitKikGUrQfc/EP2v4kuSRylcHIsYAqFIi2H/wPfndrFKYmnaRgDOh6sayPUSCwCzTrlvV9bFnNE8D3DFypbX+1Acx+kl5va5EjoG8buLhua9IecLkDDDxpoi7ako+mt1AA3s/om3JA/y3Qs+b01trH6QOQoa6Wb4CDQ2CsSNnrLu/u7uzt3zOt/n4Amudyt8P7z4YAAAAGYktHRAAAAAAAAPlDu38AAAAJcEhZcwAALiMAAC4jAXilP3YAAAAHdElNRQfoBBsWKAuWf+3xAAAgAElEQVR42u2deZgUxfnHPz27yykKqPHWaFSixiPe8UQxImINoqLGixbaxCO/JN5Ro6LxQI0aNdGoDTbgGTxgCzyJwQM8MXiLRzyieCtyLuzu1O+PanTp7dnp2Z1zeT/PMw9sdU13V3VNffut430dBEGoOpRS2wGbAFsAm4bJg4C18jjN88Ab4f/fBd4E/qu1ni01LAjVhyNVIAgVL94/Bn4KKGBzYG+gBkgV4XIZoBn4AHgM0MBbWusP5EkIggi6IAj5i/j2wGGAB6wGdCnj7SwDvgN84F6t9UvyhARBBF0QhBiGDBniZDKZfsAxwEhg7Qq+3c+AMcDttbW1cx544AEjT1AQRNAFYWW3xHuGAn4MsFM7TvEFYIDZwAst0p8F3o7Jvzmwa4u/dwK2C/uCH7Xj+v8FbgH+prVeJE9UEETQBWFlFPKzgRPysMYXA68DTwAvAu85jvNSfX19pqP3k06nU8aY7cM+4XDsPP1WQI88rPZ/AZdord+SJywIIuiC0NmF/GfAqcCIBNmbga+B8cDDwIta6+9KeK+rATsCBwC7AbtgF+PlYixwrdb6NXnigiCCLgidTcjrgAuAPyXI/gFwA1CvtX63gsqwKZAGDgb2TPCVW4HrRdgFQQRdEDqLmJ8CjALWyGGNXwtMqq2tnVnpC82UUruHwn5qDqv9K+Bq4AaZYxcEEXRBqFYh3xH4G7BzG7+194GbgfFa60+rsIy1wInAacDGbWR9Hrhcaz1JWoYgiKALQrWIXO/Qcv0j2fePfxxa7RO01svadSE/2B7ojfUQB7A1dq47KTOBV8P/PwTMw3NfameZuwDHhmVaP0s2A9wJnKy1ni8tRRBE0AWhksV8d+Ca0CqPYwHwF+AqrfWSxD9UP+htrFvXY7Er0DelOHvVP8O6gX0CuL2348yZN3K4yaP83YFDgKuAdbJkmwccpLWeIS1GEETQBaGiCB3DjACuA3pmsU7HAOdprb9IKOK9jBXv44B9gdXLULT/ArOA8Q48YTx3QUJh7xHWxVHEb31bCPy9pqbmnEmTJoljGkEQQReEirDKVwP+CrhZsnwFHKG1fjzXuWr8oK4ZtsQO1+9L+5y9FIsvgAnABDz35YR1szXwd7Kviv8XcGgpt+MJggi6IAhxgtUbeBI7fx3HDcCZWuulbZ2nzg9SjTAUuAQbiKXSeRy4sQ4eaPTcTI466g6cAlxBfECZV4H+WutvpEUJggi6IJRDzAeE1me/mMOfAsO11o/l/BH6QR8DT2Mt82rjDQf2MJ77bYL62iK0yOPm1pcCByYZxRAEIZ6UVIEgtEvM9wEezCLmDzqOs0ESMQcw0K1KxRxgy/D+c6K1ftNxnA3CeovSFXgorFdBEETQBaFkYv4I8VvSLnMcR9XX1zdnPYEfbIEfnNwpK8cPTsYPtsh2uL6+vtlxHEX8eoMuwCMi6oIggi4IpRLzh4G61oY2x2utz2szWIof/AF4GetlrTNyMPByWM5sop7RWo8Djg/rrSV1wMMi6oIggi4IxRTzAVgHLFHL/FNga6110IaQb4If/Afr3rWuk1dVHXAtfvAf/GCTbJnC+to6rL+opf5QWN+CIIigC0LBxVxj53qjYr6b1vr1uO/V+kENfjAUeAsbd3xlYjvgLfxgaK0f1GQR9dex3u2iot4V0CLqgiCCLgiFFPO9gXqge+TQXGB3rfUHsT8uP+jSBD5w/0pglbdlrd/fBH63MeNSWUT9A2D3sD5b0j0U9TWlFQqCCLogdFTMe2M9nkW9nX0M7KW1fj/2i36wQQbeJLuzmZUNt8GYp/GDDbKI+vvAXmG9RkV9WvgcBEEQQReEdol5H+DfwLaRQx8B+2qt38si5htiHa9sIrW4Ar8AHg/rJ07U3wP2izm0DTBVqk8QRNAFob2cTfy89wit9TttiPk0bPAUoTWbAtPaEPU52NXvUXZTSo2W6hMEEXRByNc6PyQU9Dgx/1cWMd8A6wltsxyn/5IWzlUc+A47R1+N1If3v5wHw/K1xWbAv9oYfg+AEbTe0naqUmpXaZ2CEI+4fhWE1mK+BfASrT2gXa21PiOLmK+HDTn6kxyn/xoYEA1u0mfMOOdbY3YDpmBjnFc63wGD+zjOzG+j4VX9YNvwxSZXdLj3gL3x3E+yPIepwIGR5EXAOlrrBdJSBUEsdEHIxZgYMZ8KnJNFzNcBnkog5hlg37hIZd+OHG7w3BnAlVVSR6fguTO+jYuVbsu3b1jetvgJ8FRYf3EMwcZnb0lP4EZpooIggi4Iuazz07GLt6JW9W+01o1ZxHwmsHGC04/Fc19pK0NvxxkNLKnwanoVz72jzRy2nHckONfGwEzHD1qNSmitm4D+wOLIoWOUUsOktQrCitRKFQjC92K+HXBeJNkAv9Vaf5Lla9sC9ya8xM25MswbOdzgB8cDO1ZwVc1KmO8G4PMkGY211mfFiPocpdS52HjzLblFKaW11g3ScgXBInPogvCDoE8AjokkT9FaK6mdsj6XHtgpj/6RQ3/RWp8pNSQIFhlyFwQrGgfHiPm3wLFSO+VFa70YODV8Hi05Qyn1c6khQRBBF4TlYt4FuCLm0Ila63lSQxUh6rOBiTGHzpDaEQSLDLkLIuhKKVrvA79Pa31Y7Bf8QAMD23k5H8+NjYXe1Q9SS2EOsFEBivUU4OG577e47x9jt5NtUIDz393XcYZ/E7fK3V7rRsBr57lvwXN/G/OcugOv0no3wbZa61ekJQsi6IKwcor4+sBagAJ+A6wdybKL1vr5GKE6Ebipg5e/0YELjed+1eK824QW6OYFLOZteO6IFteYDuxdwPM/Apy1wsp9P+gHXBXWa3sxwH547uMxz+1YYHzMy8tzWN/5rwBva63nSysXRNAFoXMK+GrYiF6/CC3HVWkdcGU519fU1Pxh0qRJK1ifjh/0MTAD2KIAt7QA+BDrK/5wrBOWQu86mYHn7tFCbJ8O66CQNGG39f0T2Cd8IelSgPO+2c1xftYwcvgKe9nT6XSNMeaNHC8+84A3QuF/PJVKvTt58mQjvwKhsyPb1oTOLOI9gROAo7D7nddI8LUG4MKomIdm44UFEnOAXsDPwk+19yFrAf9X4PNu0WDMhdg6/576+vpmpdTVtL0FsDc2xvpuAJlM5n2l1D1AEPqKFwSx0AWhCkS8FugHnAsMCMUmHy7SWo9qleoHu2KHmFetouoohYVeTBY4sL7x3Pkxz/l1YMs8z5cBngf+DDwaOq4RBLHQBaGSSKfTKWPMYOByYKs8vrrc+9tkrJvRbPPj51aZmHcGehm7++CkmGOHAwdgR176AMOwu3Zq2jhfCtgVu6f9daXUzcDNWutlUtWCWOiCUBlW+aHYodmtE2Q3wDPAA8D7wNSc3sb8YHfg6Sqsmmq30AHmObBRnJUe0w42x3ruGwzsSbJ49K9iR2Xuk1+SIBa6IJRPyLcEzgKG58jaBNwPTK2trZ3wwAMP5LtA6hyp7bLR29iANSfmyqi1fht4G5g4dOhQp6mp6RfAUCBN9kV0WwP3KqVmY/0OPCdVLoiFLgilE/K+wJmhmLflHOlJ4G7g1vbOlzp+sLqBd6mOkKad0UJfbqVvajz36/Z8OVwZvxPWT/9BbWTNYFfrnyQOhYRqRDzFCdUm5nsBjwJ/bKP9TgH2SKVS/bXWN3Vk8ZOx8+a9pebLbqW3e/1CfX19s9b62VQqlQb6YlfIz8vSHx4JfKyU2lOqXag2ZMhdqCYx/w026la3eO3lIeAyrfUMqS0hSrgX/VvgRKXU2djwroNjsvYEHlVK3ai1Pl1qThBBF4TCCXkf4MbQeorjU+A0rfXd+ZzX8YMfhZbfr7Cro48OXwwex3NPlJqvUPzgH8C+2CnDO4Bm4C4HPjOeuzDJKbTW3wEHKaV2w25j2zeSpRtwmlJqV+AgrfW3UvGCCLogdFzMnyZ+z7EJLfZztNZLc50r5Qd1GevIZQBwmIGdiV9H8qbUfEWzDrBZ+P/ljmcuNvA5fvABNj79v1LwWsZzG3MI+0yl1EFY74F/obWXu92Ap5VS/bXWX0rVCyLogtA+Mf8FcEsWMf8EOEpr/WQCS3wVA5dk7L7lflKznZa1ws8uABmYgx/c5MCYtix3rfUS4Aal1MPAGOyWt5ZsiZ1XV1rrR6WahUpFFsUJlSrmvwSmE+8atd5xnA1zirkfbI8fTDAwF/i9iPlKRz/grwbm4geX4Qc75LDW33EcZx9aR94jtNx12C4FQQRdEBKK+X7Ag8QH+TjfcZyh9fX1mTaEfLswxOks4Bis3/Sk/A+Y9L11D18C91RpVT6d4+9q4Z7wOSxnUvicktIL60vgRfxAO37wo2wZwxXxQ8J2EyfqD4btUxAqDtmHLlSiZf4graeDDHCc1vr2NoR8XeBY4FLadgGajRnACDz37Zhz/wm7eKoa+ALYH899OaYc22K3/f2oSspyPp57SUw5NsfGdl+/HedsDM97RY62eAwwIeZQEzBIaz1NfrGCWOiCEN+BrgFcGyPmmQRiroDHgdHtFPO5gBsr5sCaqdSlwA1VUpUjYsUcCNNHhC9Ilc4NYb3HleNtbLjW9vgYqANG4wev4QdZo+eF7W1z4OPIodrQUl9DfrWCWOiC0FrM+2LnzKP+2JuB47XWcZYStX5Q02Q9xl1MxxZ5XoznXtjmj8UPehm7Ra5nBVfl7XjusTlz+cHzwE4VXI5FDqxjPHdBjnJcBZzRges0ARfUwpVNntucpW1uiB29iY4GvArsLVvahEpBVrkLZWfIkCFOJpO5IouYj8gm5mFvvF0osKM7eBt+rgzGcxfgByOp7BjmLybMdymwYwWX47WcYm65HhvDviP0DNvRrCyW+kdKqd8C97Hi6M/WwN1Dhgw5IHRaIwhioQsrvXU+Gjg7kpwB3LbEXBBK3E6PBQJaT1VeobX+o9SQUG5qpAqEMneSe2Cdw3SN6SSvkRoSKoW33377lX79+r2PjeDWkm379ev31Ntvv/2R1JJQTmTIXSinmK+KXQQX3VamHcf5U9Lz9B0zzmkuwP18N3J4m8Omq48Z5zQV8TrFPn9LVhszzinmdQpx/lrg6xxlKcR1aoBvEtQZgOM4dxljhgGqRXIv4Fql1ACt9Xz5ZQvlQobchXIK+kXABZHkuY7jbFhfX59Mo/3gd1j3n30KcEsj8dzblv/R9Z//Sy09fINMeJ2fYrdJrVOA69zby3GOWNBSRPxgy/D8axXg/HfjuUe1UWd3kt0vfj68AByP577R4tybArdRmDCtL3eBHZZ5bgagx93/7b74yE2WtLjW8VjPbh3lW+AiPPf6JJnDcKwfAetGDl2stb5QftmCCLqwson5TsATQPfIoS211m/GiNCGwDTgaDz3BQDHD9Yy8A75OY5piybgT8B4PPfTFtfeGxtXfe0CVsE/8NyTAFJ+0CVjV0xvXsDz3wmcjed+3KIcGwFjaR2IpCO8iOfu1OIaNwO/LuD5Pwmf+RMtrrEOcBEwksJtvV3gwGbGcz8Pr/Er7M6J/fDcD2Pa7xbAG5HkJdhV7y/IL1woBzLkLpSLa2LE/Nw4Me/iB6llMBEbkKNfaBliYPUCivny38NoYBR+MB0rssdinbAU2mfDT5b/J2PLsXmBz38UcCh+8DTwEnB4+ELStcDX2cjxg14tVqRvXODzrwc8jh98gXXysjXQn/gQuh2hV9iePg//PgjYFLiiix8ctXyUYDla6zeVUucCl7VI7h62a4mlLpQFcSwjlMM6H0TrIdmvgKvj8i+Df2Ajo5WKbthALmeGIlitv5Ou2MhyZwIbFUHMAdY0sEoJ+qm1w3IcUAQxb8vYOSJsf3FcHbbbluwetm9BEEEXVgrOZ8XpHgMcrbVe1iqnHwwBhkuVCWVkOH6wfzQxbK9Hs6LXPSds34Iggi50eut8f2DXSPLTcWEpwyAatxEfpEUQSkUX4G+OH/SNEfVHaR30ZtewnQuCCLrQqbmY1osxL4vLaGws9D5SZUIFsJmx3vXiiLZfJ2zngiCCLnRa63wfYJdI8pNa64dbZfaDzQCZixQqiRFhu4xa6Q8DT0aSdwnbuyCIoAudkiEJrJvl3I0MtQuVRReyxwy4LGF7FwQRdKHqrfNa4Pcx1vkjMdb5UcD2UmtCJTZl/KBfjJX+SIyV/vuw3QuCCLrQqTg9Ju3OPPIKQiVQh/VMSML2PEKqTBBBFzoN6XQ6Revhx7lYRyFR63xLbChLQahUjsAPtopJnxC26xWav1SXIIIudBqMMT2BX0SSH9NaL47J/ltpl0IV9Jut5sfD9vxYJHk/pVRPqTJBBF3oLBwSk3Z7q8boB12wLkoFodI5bZX4SG/Rdt0VOEyqSxBBFzoLwyJ/fwI8Fc2UsX7TV5fqEqqA1RcaMzAm/dmYtN2kugQRdKHqUUp1A6LzjW9orZfGZN8hx+neBt5r8fc8YHaVVs205f9xbJSuu6q0HDelbPjRVuWqMmaH7Wk592Aj+bVFq/lxrfVCWg+7y44NQQRd6BSsBvw4kjY5mqnGD2qxEa6ycRue2w/Pfeb7FM+di+f+HDiniurjQ2AzPPfK5QnGc+eF8ctPqaJyfAociOeenPHchhbP5EpsVLwPq6gs5+C5P8dz57Yox/3AfsC4Nr63Qxc/iOtD/xP5e0el1FrSFQgi6EK1s3tM2oxoQjNsgP3E8Qaem337j+eOBu6vgrrIAAPw3HezlONGsjvaqTT+jOc+lKUc72KnT6qBv4ftJ64cHwHnAu9m+e7OTVATk/5MTNp60hUIIuhCtbNlTNrrMWmD2xSP3FxZBXVxFZ77Xo4f5EXA1xVejll9Hecfbebw3KewvvgrGifX6I612s9v4w1tZEzy1Ji0A6UrEIqNeDESik10T/lUrXVjTL5tiZ+zdICXc12kBmY1w/QKt4Qm5zThPXcZfjAWOLiCy/H4NyOHmwT57gYq2Z/5zNUcZ+G83PleDq30uDIvatVgHafZGPNG5GW2l3QFQgleUAWheCil3sbOqS7nPq21bOMROnu7vxc4tEXSu1rrzaRmhGIiQ+5CqXlPqkBYCWiK/G2kSoRiI0PuQjGtlFWB3pHkN2LfLK1TmaydXsZzG9u6Vo0f1JoCjDhlu06hzl8HzUs9N1PsctRC87KY63Txg1SWhVwFOf9yuvpBqrEA13HANHtuU6nPH2mbdW2dIuO5y2LSHwSOkF5AEAtd6Cz8CFgzZ6fqB6tmYGkGlmX5LMEPvo+N3uOf/3O6/vN/P7RdP9i+GT5v4/uJP/jBda08gPnBjs3wZSHOvxT+bwWB/+f/vn+prvODmmZ4oRDXWQaz8IOtI+XYehnMKtD5p9T5QU1cOdYcO95ZCncX4jrN8CV+sGPLYqwyZpyzFO4t0Pk/xw+2jytHWGeDMrCkjXMsdfxg1fh3hRVYVym1tnQJggi6sLJTA2j84CSAxYdvYJYevkEm7HAPxjoz6Vuga/1uoTHntXjZ6AFMihlpaC/X4geX4QcbAzQevkFTWI79G2EmhQtMsx1wdiTt7AKef1AjTMYPNouUY+MvM5l7aO0dsL30BiaFzwGA8PkMLdD5+wLTwnb0QzlsWUYBmgKMBAA9gVXkpywUExlyF8qOSbYyvQa4ET+4DrgVu6d7eNhJFnpx504t7m0tCrty3sFulTobP/CBRqwnsV2LUI4f5/i7owwGDsAPngdeArbBujmtKfB11gufw/vR51Mg+gD34wcLsY5kUsAJ2FCpgiCCLgh5cFAeeeuAkztBmVPArzvJ6MkvaB1Nr9pwsFvLfis/R6GaOxVBKDfzpQoEQRBE0IXqN43ulFoQBEEQQRc6haYLgiAIIuiCIAiVzSfAx1INggi6UK18Gn4EobPyOXanQpQdI38v1lo3SHUJIuhCVaK1XgQsjCSraD4HlgBvSY0JVcgbxnOXxKSvI1UjiKALnY2c8+Ohu1Wx5IXORNSNsbRvQQRdqHqiK9i3SafTcY5HXpOqEqoQHU1QStXR2pPdY1JVggi6UO1E5xc3M8bEtbsXpaqEKuSZmLTVaO0t7zupKkEEXah2/hmTdkRMQ7xbqkqoMpalrMvbnO07y+9AEETQhapiXkzaDtGEbo7TCDwh1SVUEVOzhE7dO/L3F8AiqS5BBF2oarTWXwAvRJK3juZbPHK4Id7aKTVN2FjWADjWLe0ztBGrvUIxwORI2uQqLcczzorugR8Mn1O5eTaaEM6fbxNJ/kBrvVB6A0EEXegMzIz8PUAp1Ssm36Qy3+dbwI/x3Ju/VxPP/RrP3Q04qYrq+31gTzz3qhVS7d978kPUsmrgJDx3N+O5X7cox83YyHHl3uoYN4y+DdAvkjZRugBBBF3oLDwVk9Yq0tiaqdRTwIwy3WMjMADP/ST2qBWRK6rEoh2O587IUo4ZwJ+qxFK/ouXLVaQcnwADiHfqUpKX1DVTqQ9j0vvHpE2XLkAQQRc6Cw/Sei79sGimL0ccZ4D6Mt3jKDx3bo4fywVVUNcz8dyn2szhuXfSetSk0vgiBefnKMdcYFSZ7u/6sL1+j1KqC+BF8r0NvCxdgFAKJB66UHS01kuUUtMiIr6rUmoNrfVXkQZ5dRMcQuttP8VmSq4MGc9dhh9cTetFT5WEnzDfQ0DXCi7HtNDhUJLnNrTE99ZcC/fGTOJvBvw0Ws9a60bpBYRSIFGuhJKglDoWGB9JvkhrPUpqR+gkbfwK4KxI8q5a6+ekdoRSIEPuQmneHB3nDmBOJPnYdDotbVDoDGLem9bD7XMcxxGHSULJkCF3oSTU19dnlFL1wJktkjcxxihab6+izg9qmqBHiyRjPDd264/jBz3o+BB9q/OvOvFjZ/6w9U2L63QvxG/GeO6C2LdrP6gz0K0Ab+lLmj0367auGj+ozUD3Dr+kQUPcsHiNH9RlClAOoKll4JO+9/zX+eaITUzk2a9CB0caHViaZT959PxZ22Ao5n0jaf+or69vll+/IBa60Bn5KxDt4GIXPjVBDwP/MzA//CzAD25tldEPLjXwZYt87f0swA+ObHnqxcbUthDbrgZmF+A68/GD8TV+UBspx64ZeL0Q52+GqbV+EPuCU+sHNc0wtRDXycDr+MHO0ZeFZnioEOc3MDvlB9/P8y81dInU2ZEGFhSgHG/iB/1bnrqrH6Twg1sj5/9vFut8DVovmGxGvMMJIuhCZ0VrPReYEEneQSl1aBYr9tRI8kj8YK8WHfr6YZ4eBbrFu/CDc7uNGZcCaDp8g8bwOjtmrK/5zQt0nWOb4dKI5X8PdlFVIdi/CabiB1tFBHCrJpgK7F+g62wGnBdRsTHY7WSFYPMMvIgf7Aiw6MhNlgJ0GzMuhR9cB9xVoOtsAjwYtif78gBH03oI/egs3z8KiPpVuCxs74JQMmTIXSg1NwPHRV4m/6SUeiK64h3PvQ0/OI4f9vY6wIYtcqxKAYaOI1zaYMyl+MGE0MraLvwUmp9///ICvSPlKgQDgYH4wV1Wn9iaGJe7BWBPxw9WM567PPhIoeOA/wx4AT+YDcwGahqMObYI5egetqflDI4cn4DnPhZjna8OXB5jnfvyUxfEQhc6u5X+LK0dzWyXzfpx4HBgcRlu9VjALZKYl5JfheXYoUjn72MKN0LSFtuF5Ti2RPXWcl5+rgOnZMn3R1qX/1Kt9UfyaxdE0IWVgRFAdBHSaKXUltGMxnO/DK0l8YUtlINFwNFxCxmVUrvRelpoGXbaQRBE0IWVwkr/L3BtJLkbMDb2C547Hfib1JxQBk4L219UzFcF/k7r3RV/EOtcEEEXVjauB76KpO2ilDozi6ifE/MSIAjF5Fo895Ysx86n9XTMx2KdCyLowspopc/FzktGg4Sco5TaOYuon+ZYl6WCUGzOwXNPizsQts8zIskGOFRrvUyqThBBF1ZGUf8noCPJfYDxSqlYP+MrhNEUhGLhudn2nO8IPBxz6O9a6+el4gQRdGFl5jjgm0haP2CaUqqbVI9QKYTt8ZrwpbMlj8dY7IIggi6sdFb6d8ABMYf2AO6VGhIqRMx7AI8Ae0YOfQWcrrVeKrUkiKALIupav0DrKFUAg5VSp2X9oue+AZyI3VokCO1lMbDvqo7zZhYx7wk8COwVc/hErfVsqUJBBF0QfhD1q4CrYg79RSl1ehuifjPWK9p/pBaFdjDbgfXx3H/PHzncZBHzKcDeMd89S2t9n1ShIIIuCK25EJgRSXOAq5RSp4eda5yoz3DsEP0lwAKpRiEBC4FLHNjdeO63WSzzHljf9/1jDl8SvoQKggi6IMRY6UtCa/vpGFH/C/BgtoVyxnMX47nnYwOPTJfaFNrg3w5siueebzx3cRYx74bdIhlnmT8NXCHVKIigC0Lbor4IODBG1MHOYT6ilMrul9xzn8Vz9wlfDJ6k9T73SmApcF+Lt5VFwL9oHVq20skANzgrrmG4LyxfpWHC9jAQz93XeO7n2TIqpXYC3iR+zvxp4ECttbgiFioOR6pAqESUUr2wC5H2iDn8DTAo0b5fP/glNsDLiAp5gX3DgQHGcz+LudfDgbur5HdpgCPx3FYxvx0/WNvYF5QtK+SlYyzwz7hoaTHt7kisS9e+bYi5TOsIIuiCkKeor4J14rF7lixXA6MSWUt+8BMgDRyM3XpUjrbfBGyI537axn2eS4tY6RXMEXFi3qIc2wMvlOklymAj+k0C6vHc9xK2tVuBI7Nk+TNwpVjmggi6IHRM2M8GRmc5/DJwktb6mcQn9IMNgH2BQcC2wE9LVJTz8NzL2srQY8w4Z7ExH1D4+OiFZOYaKWePr0YMNznq+VHglyW6p7fCtvAQ8Die+7882tdRwC1AzyxZ/qi1ljlzQQRdEAok6ocB/wBWjzmcwc7dnq+1npPPeev8oKYZUhnYBtg1TF6nxf8LyZl4bu7tdX5wdgmFsD08hudekaAchwInFeH6zwLLRzmeTcErNZBp9NzmPNtUv9DyHpYlyzfAQK31i/ILFETQBTGZ/hQAACAASURBVKGwov5z7DD7PlmyNAI3ARdrrcXnu5CtHW2G9XlwIFCXJdu/gYO01oulxgQRdEEoTmfcFetP++Q2ss0PO+QztdbvSK0JESEfBHTJkm0e1h/CLVrrBqk1QQRdEIrfOe+KdSQzoI1sjcDr2NjVT8jq5JWynayCdQ98NLBVGxZ5MzANOFVr/abUnCCCLgil7ay7AUcAFwEb5cj+JTYq1izgZqBBYld3yjbRBegG/AbYAbv4cc0cX/sQu/DtbqlBQQRdEMpIOp1OGWNOwIaw3DTh194BXg1FfjbwPIDjOM319fUZqdWqEO/l1vbOwHaheG8NbJbwFO8Cf3Ec51Z55oIIuiBUXif/f8Ap2Jjq7eF54GOpyYrHAIe287tzgL9rrW+QahRE0AWh8oV9J+A0rCOZblIjKz0NWEcz14ThegVBBF0QqkzYa7H7jA8G9iPepafQOfkGu9BtEjBRa90kVSKIoAtC5xD37livcAOAw4BeVIa/caEwvIENn3sv1pf8W2EEP0EQQReEzkw6na41xiz3PJcG1gr/vwHZndcI5ecd4JkWfdh4oMFxnK/r6+vFChcEQRAEQRAEQRAEQRAEQRAEQRAEQRAEQRAEQRAEQRAEQRAEQRAEQRAEQRAEQRAEQRAEQRAEQRAEQRAEQRAEQRAEQRAEQRAEQRAEQRAEQRAEQRAEQRAEQRAEQRAEQRAEQRAEQRAEQRAEQRAEQRAEQRAEQRAEQRAEQRAEQeisOB09QY0f1GWgr4EjgV5Zss1zYCJgjOd+0aEb9oMebVynqHVVA182eW5zlvtaBehZqIsZz/28g/XUB+gSSW42nvtVySvOD1YFuicpY50f1DTBmoBpkbzUeO68It7fWgZ2A7YK29YhkeuPD//90oFJwCLjuQs7cL01gJoytOFlxnO/LfRJlVK9ga4FPm1Ga/1lhd/jIq31wgLe42pAt5z9UE3N55MmTTIFfobdgdUAL0xaHRjc8nkAE0LNcIDbgAat9VftvF4voEeObE1a6687WK68+mWtdd797qhRo1IvvfTSz4wxOzuOs7Mx5mdAX6A30Cesu4XAAmA+8L4x5m3Hcd4GXl9nnXVm3XLLLY2FeI617f6mH2wLHNtsH/pPcwoU3AAY/OB5YKIDtxjPXZC30MGJwNXlePtpgs2Ad7Pc17nAOQW7mB+82OKlayIwMwXPZTx3WcJ6ugQ4uVUR/OCneO57paw3Aw8Dv4gkvwDsHM3bCOsBH0aSH4x0Lh1ilTHjnEXG9DEwGvi5gR1zfOXPLcryD+Az/GAacEcNTGv23KY86+MlYIMyNOEngP5FOO84IF3on5tSanb4//eAWcDNWuv57f1FAYcW+B4/U0p9HP7/aeAp4CGt9ZJ2nu8fWMOoTZqbm7sDDQUQ8S7h7/JYYP8EbfKSFv+/GFimlHoOuBf4h9Z6WR6Xvxj4Q448rwM/60D51g2fy8YJvxLbJ2VjyJAhGzQ3N4+YNWvW8cBGAMZkfc/qBqwR/n9bx/nBlv70008XK6WecRzniebm5gemTp36WskEPeUHXTIwBjimnSMCuwC7GPgLfnAncA2eOyu//rAiyRT4fC1FZofwAh/gB7cA4/DcuTm+f2WMoNeGb+DnlKxW/GBvYNeYI1eUpW79YNeFxpwPHNiBs6wdtv9jmuEV/ODhGjgvD2Fv7iRttJjnrW3xG9gROAK4Uik1EbiqpqbmxTyt1GLc49rhZ/k9/gH4Vik1DfhLTU3NCxVwj61Ip9MpY8wZYf+wUQdO1QXYM/ycpZR62HGcE+vr65P8DkwJ6mNaHmL+HHBAkoxDhw5dvampaXQmkxnhOE6qAI+kBzDAGDMglUpdnE6nZwO319fXX5Ov3uV3M34wNANz2ynmcRwFvIgfXBUOWQtt82PgMuAJ/OCMNluI43wEzIw5dIrjB6uX8J4PovXUziIH/l3SmvODdfCD0cD0Dop5lG2As5ptO05LEy06w4Dnm5ub7w2HqCuNPuE9Ptfc3HydUqpvJd2cUmp3Y8yc8IV6owKeej1gpDHmA6XUKKVUbZnLORbYIg/L/ACtdc5pvYMOOuj4pqamOaFhlCrGvRtjtjPG/KV///55T8slvyE/OBO4Hzu3UmjOMHYYcxfprxKxKXAVfnB7tgyLRw432GmA6BteL5NgWK8Q9BgzzgHiXjzONp77TQnF/OfAY8DZFH4edTnbApPxg1HhOg+huBwCTFNK9ange/w/4DGl1NblvpEhQ4Y4SqnLsNMCmxbxUusBFwJTlVL9yijmxyfMvhgYkkvMhw0bVpNOp29xHGdskTSwICR7i/KDrYHzshxdGA5tTK6BO0zrMZNfAFtj52j2I/tCiJ7ATPzg93ju3/Isx0LgWQqwyK8NnPDh58PrwGcduOaAHMePxg9Y1XGOnW8FfEU89wn8YG74I2vJscDfi924FhtzZkzyUuyceKnEfBCgaXsR2leh4M90YIITec4Z2CRsuz8DBuWwbC400N/xg8HGcxflcaf/KkFtzO5kor4j8IhS6gCt9TcVeo/bA7OUUj/XWr9eJoHbOJPJjKU46yeysT8wQym1dynLnaeYLwQGa60/zdX3NzQ0jMeOKFc0OQXd8YPuxnZ2ccNbDzpwlPHc7yDrxOCT4efvjh/0MHAYdpHRhjF5Pw4733x5D8/9ZQXW72g89/Z2v0H4QS8De4UNaQCwVpyozzfmO+CULKe5FvhLJG1n/GAfPLdow97dx4xzlhgTt5DtQTz3/RKJ+YHA5DbEfA5wpgPTjOcuIRzOMPH55sD3a0hOAs4C1s1y3r0NTHH8QCVdDV8LA7PtoBDaZCfgTEq5LiR/6oDxSqlflvrFQym1Udj/rl+Gcq8OPKWU2ktr/VoxLzRkyBAnk8n47RDzJ3NlPOigg86rBjGHBEPu4fBsnJBciOcOXi7mSTCeuxjPHe/YVfHnYpfwL6cZOBXP/VD6qO/rawGeOxXPPdqBnwB3Zsl6An4wIMsDvh5ojBltOLqY977EmN2wLyNRxpVIzAdjt5jFvbR+C4xMwTZ4rl4u5knIeO4yPPc6x+54+HUbozZbGrt1RSg+Zymlflbh97g9cMHQoUOdUl0w3Ko3o0xi3tJonF/si2QymdOBEQmzL04q5oMHD97CcZwLquWHkGQOPW4B3J147sUdEKoleO7lwN7h2yPAFXju/dI3Za2zRTUwPMvzqAMu6eoHqRgBasTuGY1yPH7w0yLecpzF9FoNTC12XYWL/m4O6yXKp8D2eO7YpFsA23g5vRU7H/litNqBNJ77kbTckvVjB1fBff6+qalph1JcKJ1O1wI30Xq6rZQ0A6dorYv6O1BKDWbFLXVt2hrYBXBPJmpYqdSoLP1INr4yxlznOM4gYKMFCxZ032GHHWq6devWC9gok8nsBZziOM54OjYdm/XtqS0rZ0Ng95iHdGlBru65sx0/GGTgtzVwrYw35vh1eG5TjR/cE+79/1Xk8K5L7TTGBzFfHY19Gega6QSHAG8VQVD7mPj5unH57tnOl75jxjnfGDMlS0c2F9gDz/2gYBf03E8dP9jfwGn8sM7kFDz3OWmxK/AWMCXp+1L44roWyRfuFsJCfwc7RZPk/oZj1/3k60zqiJgXwMIbAMYcRfsWvy4EbsH6SpgTObY7dtRtEDGOomJeao/XWk8ospgfCNxHssWuS4H9tdZPJzn3wIED+2IXXybF79at26kTJ05cYZpt+vTpy+t1IfARdmHijYCjlNrFcZzhxpijKYDDtFxz6JvHVFQznvtGAS3PxcCVIubJRd3xgxGmtaATdjIXxYjO+/jBLKw3tBUshtXGjLvyu7gFdR15ptb5T7Sj+8KBG4vtROAbY04ift/7x0D/Yszfh97XzscPvgDm47njpKW24mWt9Zl55D9LKbUncDfZ1yqsIJTpdPqo+vr6juxdfjWPezwr3Jp1Anb3RNItYIOVUudorYv2YquUWg87QpUPywAvhwC/CFwXDuUfF1rF2URoQgnEfBDwAK09YmYT8wFa6xlJz19XV/dLkvtquU9rfUK+XYfW+lng2WHDhv2xoaHhpLAt9e7IUFW+PCZ9U3kxnttA/Erxn7TxtdExaet8Z8w+BbbOu2MXjUW5PXx5KxqOH/RuY/Rov6J7yPPcG0TMC4fW+inglxV8f01a65tSqdTG2C29SdgioQB1hDHkdiHbkknAekkFWGs9T2t9PbAOEMRkqXccZ2SRxfwAoD5hXTYA++Uj5gCO42yXNG8mk7muI+WZOHHid1rr0cuWLftJljotmqD/UrqayuhPYtL2aENsNHb+OMopBbbOhxDvQvL2YleIgcOzvN1ehOfOkSZTlaL+BvBQJd/j5MmTDfBH7HBqEn5TRKHbDrvFMilXa62Htscnu9Z6kdb6eOx001ctxHxofX19cxHLuBZ2aiSp9XxY0mH2iKCvm0fegiz8e+SRR77RWh+vtXamT5+e9yhOewQ9FQaXEMpsqLfjO3HW6yH4wcYFvK9jY8Xcc/9Tgjq5PCbt09oWvtiFqqS+Cl483sHO5ZabA0ke+GeG1vqMApT9WmAg1pfCWR2c9kgi5o/lMcpxtda6XQtxjTGJnVClUqn9KqEd5hL0+bTeXl5rChgoQygdjrWS497Ezy7IBfxgM+Ldqk4ueuH8YHes280oN8j+7qoniQvPlxzHKXech2cqoK6SbrGai3XLXKgXmpe01vtprYs2EqaUWhPrxCyp572rU6nUme29Xj5WtzHmgsGDB+9Z2YLuuc9jl/lHuSnsQIXyEef7vk0rOPQZ8HjMoQNSflCIeb1fx6S93s1xSrEdMU1rT4HNKbhGmkr1opRag2QGxAvh0PfKXFeHkdy18RVJfJdXUNlWx8ZhSLqb4epUKnVmR9qEMSafUN+rplKp6Uqpe4YMGbLfsGHDyhEeOdEcxG1Yn8Qt6Q48gh8MWd1xHv+6wKukhRwtZ8w4Z74xcZbwywm+fh52rrklG2XAxW5Xaa+FvA6to7sB3NAwcngpoki5MWn3ZDx3qbSYqhWovthRpZ/kyJrBhmde2UlquX6EDdVaTe3gaRKE6Q65phBTCbkMpCwG8uGZTObwhoaGeel0+t/GmKdSqdTMtdZa66VCxTzvqKBfAYyktQ/2nsC0r42Zhh/8OQXPdsRRh5Cc+cbsCuwbc+jVXN+tgQ+arfBvGzl0RJ8x4279tv0vZ7+MaSPLHLi32G97Xf0gtTTeNXG9tJaKoVYplXSf7S7YPc+/JtmWtYnl8pMeYa+E+YrVsScVPD/P2OXl5m95lO1arfXphbhoXV3dzMbGxgztW2vW2xgzFBiayWT49NNPlyilXgCmZzKZaT169Jg5ceLEgk8F5r5Rz/2EuL3NP7Af8EQG5uAHN+IHe6f8oA6hKISRvK6NOfS1Ez+cvgKhY5e4OfN9vzVmnQ7c2rkxaRcZz/262HWyFBSthxobE45YCKXhUOyanCSfx4BRCcX8BeJHhkptRW4ZljEJYwp9/XQ6XUPy4CtPV0ujUUpdS7zPjTiu01qfVqhr33///Z9i5+wLQffwhe+CVCr1ZENDw2dKqVvT6XRBp66TLfv33CvxAwNc2UauH2P3H5+UAfCD+4FXgI9ScFfG7p0uFn3xg+EUJ9ras3juW5XQuB0/WMXYBhYXZvaupH71UzA9Y90Orh05dBnxQ9c53veDbWk9LNpM6aKqxQ0CLKuU55aEJhiOHxRjaiKD547vpC8JLwIDtdbflvMm0ul0jTHmKuy+7FzMJWscq451D8CPEuadUSXPd2uSTyMAFDzwjTHmSsdx9i9C2dYAPGOMl06nZxtjLtFad3iXRPIg9J57FX5ADlFvySHhhwyMxQ/uxYZv1HjuKwWunA3owGb8HPyWIrhHbYdobmnAzyLmb6fg9KRqkPHcpfjBeGzEsBWemeMHZxvP/TzPu/t1TFuahud2tnCdxWRMkc7bBHRGQb8fGKG1/q5cN6CU6gocbIz5a8zLcTYeLvNw96e2S+6UXKiUmq21LthU25QpU/6llLoH67K3ONaIMdsB9yqlngRcrXW7vVnW5pXbivo04FTi9xu3xWHh52L84HXgGjw3QMgl5PtiHVEcRvwUydfAUfmuX0jBBZnWgt7L2CmUO/IYNVjTWPeXUa6UhycUkc+x0ewKKejbKaX+ljDvjtgIavlOL15X5np7rphuZ8tMCrhSKfWi1npuoU66dOnSkd26ddvUGFPswDp7AbOGDBly+OTJk9s11F+b9zesg5Dj8IOrsd6R9iX5UM/ySt8auA0/OBO4rA7ubuyce4V/FQ5Ht4dB2GArbS0k+gbYH899Kd+Th1b6OKz/95aMzkfQjZ1miXZq7/V0nH8vEtERisdJwEil1B3A77XWCwpwzk0osOfECLdprV+RR1dU+gETgAGFOuGjjz66aODAgft36dLlLmD/It9/n0wmUz948OCBU6dOfao9bzTtw3NfxnN/5djwkQqYCOTrK3tL4PZGqMcPNuiEjetA4Ix2frbKIebTsf7JX+rA/V1D6/nndfP0MRC3EOjCRbKVsVJwOnHZugDHAw8rpXap8HudRwUs3gO2DBfQdWb2VUoV1P/EI4888s0OO+wwyHGcs4EFRb7/7qlU6u5hw4atVnwLPWqhee4CbFjEKWHoyk2BfbDz2iOx24l6JBC+mfjBbnju/9pxG2+FLxUF77wc+KLClOkT4AwH6jsc7MRzX8EPXmHFLWwp4CiSLJzxg8OAbSKpCx34l6h53vyU4sxtrgyPYjfgMaXU/mH0qkpjATbSV0MF3MvmxpgairMwr5I4SSn1iNb6kUKdcNSoURngynQ6Pc4Yc3b4Mtm7SPe/7tKlS8+j9bRocQW9Jd9Yq+yd8AM2pOT62D3KO4UCn80j2frADPzgF+FWuXxYiue+W4xarYDesAkbLeg24N4UPJfx3KUFvK+rab1oysMPRid4uRoSkzbWeO5nFfCDrsMPNsJzP6yG3qcW3u3kLmqbiPc62RY9ST6K2AsYm06nty5mYJB2sBDYW2v9nwq6p22x2/2qkddI5i2uG3CbUmrLQnvEq6+v/xw4TSn1J8dxhhljDsOuPepWyOsYY0b079//gunTpzfk0Y8UGc/9OBSj2/CD0cAB2H3Qm8Tk3gC7berSTtKJNedpddXGjDJ8l4J1ly96yxT++UzAD26JNMblQ5kXt2Gd/xw4JubItWWo5/+GdV0TKcOWwIcIlcC9Wutf5fOFcBh9O6xnw/4JxH2L0JnHvRVQXgM8AYzUWv+32BdzHKfZGPMEsHeC7L+qUkF/WWu9nVJKk8wP/TrAVKyTooKjtV4MjAPGKaV6OI6zO7CXMWb30IBdpYOXWH2VVVbZHRv0pkIEfUXx+Ai4BT94FLgEODom14X4QdAOK70SGY7nJl5ghh+MDYV0hYeagUdTfrB/ET3xnQ9cFUk7uk1Bt8PyUabiuR+UvJY99zX8oJHWUabSVHjozZWIvKfDtNbPAc8BNyulDsZuVct1nt9WgKC/CIxqb5Sv9jB58mSjlEq63XSQUupsrXVjFbWfV/lhQZqHdV+bJP7EbkqpqwvlPS6HuD8Wfhg2bFjNkiVLfpZKpfobY/YJDdmuef9oHGenfAQ9VZZH47kf4LnHAHfGHK0L38pXuk7MsT7z4+YA987AiUW8yQnYYf2WbI4fDI3N7wfdid+2eHkZ6zrOD/1I0dHOgdZ6UmgE5GJvpdRqZbzVlx3H2bWUYt6CKQnz/RS7i6ZaeA27BuGLsC18jp3uS/pCcrJSqqSR0CZOnNg8ZcqUl+vr66/TWh9cU1OztuM455LntJPjOBvlkz9V1sfkuUfzw3x7S9TK2GkZz12E3eMfF7bvOvxgpyJd93PsqvkoJ8Tmt8Ofa0WSP3LgpTJW3+zYl0M/OBGhs5B0mHi9dp7/i9Aaivu8mfAc2xpjxpbFenCcO0i+7OcqpVQ1uOh+A+ivtf4y8oL3MMkdJnUDrlFK9SlXISZNmjSvvr7+8lQqtSPwZdLvZTKZvBbdpSrggU3tqGXbqfDcZ4HfZTn6sOMHPyrSlc/CLlxqySD8YMeWCTV+UEu805iLjOcuKWPNPQrERVb7rejgSkd743w/Hcb0bvXBjhomjUtwjFLqwFIXur6+PoONTpeEzYkfIW0XSqk1lVI3KaX2KWCRPgf21FrH1ntNTc0JJAhIFbIj8PdyN8zJkye/YYxJGrMex3Hy0sJKEHQt/c+KrOE447M0vr4Gbkv5QdeCX9RzX8UuLotySMs/mq3P9ugq0wYH7irzi9An2BX7UbbCDzxpVZ2CnmXrpKy71hF59Ku3KKV6l+FW787DSh+qlDq+EGKO3eZ6IvCQUmrfApXlC631N21YvSbsn5J6vvuVUur0PMo1L51OTxw4cGDfQj4gY0w+wXHyWqFfCYLegLACX40cbhz4E/FD2AdmrO/0YnBeTNrvQqt8OXE7EG4ts3W+nGxDjtc7frCatKyqJ2lnXJQRvtBHeFKf++tRhhjtWusHiV+HE2vkAr5S6nilVJd8r5VOp2uUUodg/YBsFiZ3BaYopQaUqLzvEr9ANxsX5OOEyBhzWJcuXV5Pp9MFC/5VU1OzZh4W+juFFXQ/WA8/GN1zzLhiDYMPQGjdkDx3HnZRV9zK9uvwg70Kfc2UjR8e3Xves9luG8Lxg95Yp0FRLq+ISvPcN4DrY450N/C44werFPX6fnAkfvC44wdrSAsuHEqpHkqpG7DDpkm4r4i383vi17jEcYRSKl2GKrs8Dys9BYwFHlBKbZPHM9nEGHNXWNdRC7Y7UF8qUXcc54FwZCIJqwJjlVL57Blf2xgTKKVmpdPpQzoq7MYYL4+yPZPPuWtzdFAbYBdLbbLImFW6+MHvlnluobdCx60+fB8BPHc2fnACdq9j1AK5Az/Yp5AOdTKeuww/mEzreeeRwJ3GbmWL/nin93SczyrFb7sDFxu7Aj96n9sbeMLxg72N5y4sgpgfEY4QpAw85fjBXsZzv5RG/INw5LkIa4fwsylwXMzzbIui1bvWepFS6lfEr/2JUgdcXehgIQnuUSulbie/AFoHAgcqpSYAz4ci3xjT75yA3Q76yxzC1gPQSqmDtNaPF7O89fX1TUqp47AeAzdM8JUtsQvqDs/zUj83xtynlHofCJqbm+9+8MEH30765WHDhnVvaGi4LI8Rhc+7dOnyXCEt9LH84ADmlGXwGn6wTsGehHVOEp1vKWUc7WoQ9fHED92tD1yxSoFHThw77B6dt9oXP9g+poMwwHmV5LfdeO43ZJ+S2N7AdMcPVi3U9VYdM87BD/6KXUOw/Pf00/A6a0kD/qE/C0ebkn6eAf4G/CFPMZ9e7JCq4bB2Uv8SmwJ/LkN9n0L74oMfG/Y3i2KeydLwmeyf0ErtDkwt8EK5bM+kkdY+PNpsj0qpM9t5uY2Bi2pqauak0+k5SqmblVIjhwwZstshhxyyzrBhw7qPGjUqlU6ne6XT6X5py5UNDQ3vhe05qXV+68SJE/PyephqQ2zHYd3ZtWQL4H/4wUUFEPP1sKsso85A5hQhXnpV49j9t6/HHDpkoTHnFVgQ5wNPxhy6j9ax2D/Ec2dW4EvQfcBp2Sw/A0/hB3sUoA1vOt+Yp7DDsNEObktjvR4KpeWaEl3nZOCrhHmHK6UOKGUlhNHn0ljXs+WkG/GLVYtR5seJXweUjT8qpbbtyDWNMZuHBoSfyWRmNDY2zm1oaFg8a9asZmPMfGPMW8aYycaYM7Ge65LyVSqVyrve2rLQs60crAEuwA/eCoeD29MRpoFpWAcHUa6SPqmVyH6BdaQQN59+cRgzvZBcEZP245i06yu1zmqsJZFtNek2wBP4wf34wRbtaL8b4QdXAnPI7lZyLJ57hbTekvKa4zglGd3TWs8n3tNltj5TK6VKOmKjtZ6BdSCzoIzP5E1gYMmMH8cZjV0LlIS+2AV83SqtITuO85tJkybl7YO+tg0rZyR+8CTWD3vc8Eo/rBvXa4EAGz51fhgvPa4TXDscqhiFHWaPu/YdXWH80vzLv27YwRZ7//o0PPeRsjxhz30PPzgn5m3XAcbgB3u1M1JdK1Z3nOe+zu0XOkMFbzls9tzGlB/sl7GLZQ7O8jI7FDgIP3gYO2T+Th38pzEuSIof7IDdi7wLNoZ8W6uCx3Z3HC+fZf9NcAV+UOypCycFf8p4bmfcWfINMLyUgVlSqdRjmUxmAsnmqmvDvrSk+9O11k8rpQZj5/x7lfiZ3A6cqrX+qlQXrK+vzyilTgN2BtZO8JX1QyPy/ypIzC+qr6+/vz3frc0hIuPwgxewPpT7ZcnVEztfcwpg8IPPswjrKrS9j/RjB05d2r5Fd2sCZ5agrpcAj5TrQXeBvy6DXbHzkVHr+dpaPziiEBG7vh453OAHt+cQ9BuKFeGuUGQ8dykwFD84jezDfnVYz4QKoBG+xA+ibdAk7ByWAYfXwZQl+a8rOL0UdWKsf/7OJujfYV2Dzi7lRUP/6b/DLuz9cYKvDFJKnaS1vqnEov5UOOR/bSh0xWYxcKvjOKfW19eXfH2N1vo9pdQR2AXdSYy8k5VSz2qt7yh3QzbGjNJat3tKO/e2Nc99o9Y6ErkIu1CizZeLsONbK+bTlpg/COwmq4JzqIV92fkd8F7M4UOb8oydm+PlYSx2SDmLLjCxairOc68B9gCShHVdM6btJhHzl4B+eO7kxs4dBrWSMMDDwKalFvMW4jGP/OIsXKOU6luG+5yJXRM1IRTcYjEfUFrrP5RDzFuU90mSTwmmgGuVUlGjtZTrDz4C1JQpUzq0Pi2RY5kmz23Cc0c5dsX7H4l3sdkelgJ/qoN0oYaLOz021vgJ2N0AUS7CDwoypBe+PGSbi3oaz51RZfU2I2WnfI4HChnJ7wVgGJ67Q1kiza2cLAX+jfXxPaiUQ7qxVozjPIp9AU5CN+DOgw8+uOTurbXWC7TWxwF7AU+RfK96EhYCJwE/LvY2ldOORQAAAkVJREFUtTz4I5D0XtYE/HQ6/f0i7W7dum2G3TI5vcB1tUJXC1zbrVu3rbTWUzp6srw8xRnP/QLPvcKxw0vDgcnEL9RKUohzgE3w3EvFoslbnP6NDXkapQ64poDbpf6a5cXh8mqstoznNuC5QY1tvyeHotCettcE3AMcgefujOfeK42yaDRh90M3AjcCvwE211rvG1phZSe0RC8g+4hWlIHNzc3Dy2i9ztJa7xUK+/VhHbdHsJqx4W3/AKyvtf6H1vrbSmk4WusG7A6UpNv39jDGfL8oe+LEiUu01hO01vs0NTVtGI7EaHKPVCfhFeDU2tradbXWp02cOLEgowHtiodurJU4nuXRbvxgMLAadn/i8oaxMXYP5mPLX2TDN515eO6kjjwn4MMytZG32jh2F61dtb5YRFG/HD94O8sPsbFA15iLH/wGO1z9vXXkwMxiva468JWBwyLl+qyQ12j23CbgJuCm0HnSTvwQ0ONI7P7ZFUck4F2sX+WnHXjIeG5Hhi1PwjreKLkxmYIlRXh7vhI7lFsMprflzzsPria3N7F2O3/RWn+ilDqGZI5NIH7l+V/J7eXOcRynIL9vrfXTYdv+vVJqD6wjn+2Adfkh9nhL3g3zO9hp0pe11nPaefmA7LtQljO/AGV8TSm1G7BV8i6oNQ899NDHwM3AzYMGDerapUuXHTKZzI6O42xhjPlJWGdrYNeKdQ3PswC7vuM74HNjzH9SqdSLqVTqhUmTJn0g7+qCIAiCIAiCIAiCIAiCIAiCULH8P1F8RIwORTGdAAAAAElFTkSuQmCC;" vertex="1" parent="nKclH4B31BSQ5JyQafjo-1">
          <mxGeometry x="140" y="80" width="150" height="60" as="geometry" />
        </mxCell>
        <mxCell id="R69Dx21KJxL1sE7gVKIl-0" value="&lt;div&gt;Logging&lt;/div&gt;Database" style="shape=datastore;whiteSpace=wrap;html=1;fillColor=#ffe6cc;strokeColor=#d79b00;" vertex="1" parent="nKclH4B31BSQ5JyQafjo-1">
          <mxGeometry x="730" y="180" width="110" height="50" as="geometry" />
        </mxCell>
        <mxCell id="R69Dx21KJxL1sE7gVKIl-1" value="&lt;div&gt;Notification&lt;/div&gt;Database" style="shape=datastore;whiteSpace=wrap;html=1;fillColor=#ffe6cc;strokeColor=#d79b00;" vertex="1" parent="nKclH4B31BSQ5JyQafjo-1">
          <mxGeometry x="730" y="240" width="110" height="50" as="geometry" />
        </mxCell>
        <mxCell id="R69Dx21KJxL1sE7gVKIl-2" value="&lt;div&gt;Security&lt;/div&gt;Database" style="shape=datastore;whiteSpace=wrap;html=1;fillColor=#ffe6cc;strokeColor=#d79b00;" vertex="1" parent="nKclH4B31BSQ5JyQafjo-1">
          <mxGeometry x="730" y="300" width="110" height="50" as="geometry" />
        </mxCell>
      </root>
    </mxGraphModel>
  </diagram>
  <diagram name="Example 3" id="raZ20Fer0EyXN-Pw3Uow">
    <mxGraphModel dx="1002" dy="545" grid="1" gridSize="10" guides="1" tooltips="1" connect="1" arrows="1" fold="1" page="1" pageScale="1" pageWidth="1100" pageHeight="850" math="0" shadow="0">
      <root>
        <mxCell id="j1-eY5sRp-LMkJEAcrBZ-0" />
        <mxCell id="j1-eY5sRp-LMkJEAcrBZ-1" parent="j1-eY5sRp-LMkJEAcrBZ-0" />
        <mxCell id="V0OLn-leTy9lyK8CeLU7-2" value="ServiceBricks Security Web Application&lt;div&gt;&lt;br&gt;&lt;/div&gt;&lt;div&gt;&lt;br&gt;&lt;/div&gt;&lt;div&gt;&lt;br&gt;&lt;/div&gt;&lt;div&gt;&lt;br&gt;&lt;/div&gt;&lt;div&gt;&lt;br&gt;&lt;/div&gt;" style="rounded=1;whiteSpace=wrap;html=1;fillColor=#bac8d3;strokeColor=#23445d;" parent="j1-eY5sRp-LMkJEAcrBZ-1" vertex="1">
          <mxGeometry x="360" y="460" width="237.5" height="120" as="geometry" />
        </mxCell>
        <mxCell id="V0OLn-leTy9lyK8CeLU7-1" value="ServiceBricks Notification Web Application&lt;div&gt;&lt;br&gt;&lt;/div&gt;&lt;div&gt;&lt;br&gt;&lt;/div&gt;&lt;div&gt;&lt;br&gt;&lt;/div&gt;&lt;div&gt;&lt;br&gt;&lt;/div&gt;&lt;div&gt;&lt;br&gt;&lt;/div&gt;" style="rounded=1;whiteSpace=wrap;html=1;fillColor=#bac8d3;strokeColor=#23445d;" parent="j1-eY5sRp-LMkJEAcrBZ-1" vertex="1">
          <mxGeometry x="360" y="340" width="237.5" height="110" as="geometry" />
        </mxCell>
        <mxCell id="V0OLn-leTy9lyK8CeLU7-0" value="ServiceBricks Logging Web Application&lt;div&gt;&lt;br&gt;&lt;/div&gt;&lt;div&gt;&lt;br&gt;&lt;/div&gt;&lt;div&gt;&lt;br&gt;&lt;/div&gt;" style="rounded=1;whiteSpace=wrap;html=1;fillColor=#bac8d3;strokeColor=#23445d;" parent="j1-eY5sRp-LMkJEAcrBZ-1" vertex="1">
          <mxGeometry x="358.75" y="240" width="237.5" height="90" as="geometry" />
        </mxCell>
        <mxCell id="j1-eY5sRp-LMkJEAcrBZ-2" value="Example 3 -&amp;nbsp;&lt;span style=&quot;background-color: initial;&quot;&gt;Multiple Applications&amp;nbsp;&lt;/span&gt;&lt;span style=&quot;background-color: initial;&quot;&gt;One Database&lt;/span&gt;" style="text;html=1;align=center;verticalAlign=middle;whiteSpace=wrap;rounded=0;fontSize=20;" parent="j1-eY5sRp-LMkJEAcrBZ-1" vertex="1">
          <mxGeometry x="260" y="70" width="450" height="45" as="geometry" />
        </mxCell>
        <mxCell id="j1-eY5sRp-LMkJEAcrBZ-3" value="Client Web Application" style="rounded=1;whiteSpace=wrap;html=1;fillColor=#d5e8d4;strokeColor=#82b366;" parent="j1-eY5sRp-LMkJEAcrBZ-1" vertex="1">
          <mxGeometry x="110" y="280" width="120" height="100" as="geometry" />
        </mxCell>
        <mxCell id="j1-eY5sRp-LMkJEAcrBZ-4" value="ServiceBricks Cache Web Application&lt;div&gt;&lt;br&gt;&lt;/div&gt;&lt;div&gt;&lt;br&gt;&lt;div&gt;&lt;br&gt;&lt;/div&gt;&lt;div&gt;&lt;br&gt;&lt;/div&gt;&lt;div&gt;&lt;br&gt;&lt;/div&gt;&lt;/div&gt;" style="rounded=1;whiteSpace=wrap;html=1;fillColor=#bac8d3;strokeColor=#23445d;" parent="j1-eY5sRp-LMkJEAcrBZ-1" vertex="1">
          <mxGeometry x="360" y="120" width="237.5" height="110" as="geometry" />
        </mxCell>
        <mxCell id="j1-eY5sRp-LMkJEAcrBZ-5" value="Database" style="shape=datastore;whiteSpace=wrap;html=1;fillColor=#ffe6cc;strokeColor=#d79b00;" parent="j1-eY5sRp-LMkJEAcrBZ-1" vertex="1">
          <mxGeometry x="790" y="170" width="100" height="100" as="geometry" />
        </mxCell>
        <mxCell id="j1-eY5sRp-LMkJEAcrBZ-6" value="Cache Microservice" style="rounded=1;whiteSpace=wrap;html=1;fillColor=#b0e3e6;strokeColor=#0e8088;" parent="j1-eY5sRp-LMkJEAcrBZ-1" vertex="1">
          <mxGeometry x="395" y="150" width="165" height="30" as="geometry" />
        </mxCell>
        <mxCell id="j1-eY5sRp-LMkJEAcrBZ-7" value="Logging Microservice" style="rounded=1;whiteSpace=wrap;html=1;fillColor=#b0e3e6;strokeColor=#0e8088;" parent="j1-eY5sRp-LMkJEAcrBZ-1" vertex="1">
          <mxGeometry x="396.25" y="280" width="165" height="30" as="geometry" />
        </mxCell>
        <mxCell id="j1-eY5sRp-LMkJEAcrBZ-8" value="Notification Microservice" style="rounded=1;whiteSpace=wrap;html=1;fillColor=#b0e3e6;strokeColor=#0e8088;" parent="j1-eY5sRp-LMkJEAcrBZ-1" vertex="1">
          <mxGeometry x="395" y="370" width="165" height="30" as="geometry" />
        </mxCell>
        <mxCell id="j1-eY5sRp-LMkJEAcrBZ-9" value="Security Microservice" style="rounded=1;whiteSpace=wrap;html=1;fillColor=#b0e3e6;strokeColor=#0e8088;" parent="j1-eY5sRp-LMkJEAcrBZ-1" vertex="1">
          <mxGeometry x="395" y="500" width="165" height="30" as="geometry" />
        </mxCell>
        <mxCell id="j1-eY5sRp-LMkJEAcrBZ-10" value="" style="endArrow=classic;html=1;rounded=0;exitX=1;exitY=0.5;exitDx=0;exitDy=0;entryX=-0.005;entryY=0.546;entryDx=0;entryDy=0;entryPerimeter=0;fillColor=#bac8d3;strokeColor=#23445d;" parent="j1-eY5sRp-LMkJEAcrBZ-1" source="j1-eY5sRp-LMkJEAcrBZ-3" target="j1-eY5sRp-LMkJEAcrBZ-4" edge="1">
          <mxGeometry width="50" height="50" relative="1" as="geometry">
            <mxPoint x="230" y="370" as="sourcePoint" />
            <mxPoint x="280" y="320" as="targetPoint" />
          </mxGeometry>
        </mxCell>
        <mxCell id="j1-eY5sRp-LMkJEAcrBZ-11" value="" style="endArrow=classic;html=1;rounded=0;exitX=1;exitY=0.5;exitDx=0;exitDy=0;entryX=0;entryY=0.3;entryDx=0;entryDy=0;fillColor=#f0a30a;strokeColor=#BD7000;" parent="j1-eY5sRp-LMkJEAcrBZ-1" source="j1-eY5sRp-LMkJEAcrBZ-6" target="j1-eY5sRp-LMkJEAcrBZ-5" edge="1">
          <mxGeometry width="50" height="50" relative="1" as="geometry">
            <mxPoint x="630" y="380" as="sourcePoint" />
            <mxPoint x="680" y="330" as="targetPoint" />
          </mxGeometry>
        </mxCell>
        <mxCell id="j1-eY5sRp-LMkJEAcrBZ-12" value="" style="endArrow=classic;html=1;rounded=0;exitX=1;exitY=0.5;exitDx=0;exitDy=0;fillColor=#f0a30a;strokeColor=#BD7000;" parent="j1-eY5sRp-LMkJEAcrBZ-1" source="j1-eY5sRp-LMkJEAcrBZ-7" edge="1">
          <mxGeometry width="50" height="50" relative="1" as="geometry">
            <mxPoint x="670" y="370" as="sourcePoint" />
            <mxPoint x="780" y="230" as="targetPoint" />
          </mxGeometry>
        </mxCell>
        <mxCell id="j1-eY5sRp-LMkJEAcrBZ-13" value="" style="endArrow=classic;html=1;rounded=0;exitX=1;exitY=0.5;exitDx=0;exitDy=0;fillColor=#f0a30a;strokeColor=#BD7000;" parent="j1-eY5sRp-LMkJEAcrBZ-1" source="j1-eY5sRp-LMkJEAcrBZ-8" edge="1">
          <mxGeometry width="50" height="50" relative="1" as="geometry">
            <mxPoint x="660" y="360" as="sourcePoint" />
            <mxPoint x="780" y="240" as="targetPoint" />
          </mxGeometry>
        </mxCell>
        <mxCell id="j1-eY5sRp-LMkJEAcrBZ-14" value="" style="endArrow=classic;html=1;rounded=0;exitX=1;exitY=0.5;exitDx=0;exitDy=0;entryX=-0.01;entryY=0.837;entryDx=0;entryDy=0;entryPerimeter=0;fillColor=#f0a30a;strokeColor=#BD7000;" parent="j1-eY5sRp-LMkJEAcrBZ-1" source="j1-eY5sRp-LMkJEAcrBZ-9" target="j1-eY5sRp-LMkJEAcrBZ-5" edge="1">
          <mxGeometry width="50" height="50" relative="1" as="geometry">
            <mxPoint x="650" y="340" as="sourcePoint" />
            <mxPoint x="700" y="290" as="targetPoint" />
          </mxGeometry>
        </mxCell>
        <mxCell id="j1-eY5sRp-LMkJEAcrBZ-15" value="" style="shape=image;verticalLabelPosition=bottom;labelBackgroundColor=default;verticalAlign=top;aspect=fixed;imageAspect=0;image=data:image/png,iVBORw0KGgoAAAANSUhEUgAAAfQAAADICAYAAAAeGRPoAAABhWlDQ1BJQ0MgcHJvZmlsZQAAKJF9kT1Iw0AcxV8/pCIVB0sRFclQnSyIijhKFYtgobQVWnUwufQLmjQkKS6OgmvBwY/FqoOLs64OroIg+AHi7OCk6CIl/i8ptIjx4Lgf7+497t4B3kaFKYZ/AlBUU0/FY0I2tyoEXuHHEMIYQVhkhpZIL2bgOr7u4eHrXZRnuZ/7c/TKeYMBHoF4jmm6SbxBPLNpapz3iUOsJMrE58TjOl2Q+JHrksNvnIs2e3lmSM+k5olDxEKxg6UOZiVdIZ4mjsiKSvnerMMy5y3OSqXGWvfkLwzm1ZU012kOI44lJJCEAAk1lFGBiSitKikGUrQfc/EP2v4kuSRylcHIsYAqFIi2H/wPfndrFKYmnaRgDOh6sayPUSCwCzTrlvV9bFnNE8D3DFypbX+1Acx+kl5va5EjoG8buLhua9IecLkDDDxpoi7ako+mt1AA3s/om3JA/y3Qs+b01trH6QOQoa6Wb4CDQ2CsSNnrLu/u7uzt3zOt/n4Amudyt8P7z4YAAAAGYktHRAAAAAAAAPlDu38AAAAJcEhZcwAALiMAAC4jAXilP3YAAAAHdElNRQfoBBsWKAuWf+3xAAAgAElEQVR42u2deZgUxfnHPz27yykKqPHWaFSixiPe8UQxImINoqLGixbaxCO/JN5Ro6LxQI0aNdGoDTbgGTxgCzyJwQM8MXiLRzyieCtyLuzu1O+PanTp7dnp2Z1zeT/PMw9sdU13V3VNffut430dBEGoOpRS2wGbAFsAm4bJg4C18jjN88Ab4f/fBd4E/qu1ni01LAjVhyNVIAgVL94/Bn4KKGBzYG+gBkgV4XIZoBn4AHgM0MBbWusP5EkIggi6IAj5i/j2wGGAB6wGdCnj7SwDvgN84F6t9UvyhARBBF0QhBiGDBniZDKZfsAxwEhg7Qq+3c+AMcDttbW1cx544AEjT1AQRNAFYWW3xHuGAn4MsFM7TvEFYIDZwAst0p8F3o7Jvzmwa4u/dwK2C/uCH7Xj+v8FbgH+prVeJE9UEETQBWFlFPKzgRPysMYXA68DTwAvAu85jvNSfX19pqP3k06nU8aY7cM+4XDsPP1WQI88rPZ/AZdord+SJywIIuiC0NmF/GfAqcCIBNmbga+B8cDDwIta6+9KeK+rATsCBwC7AbtgF+PlYixwrdb6NXnigiCCLgidTcjrgAuAPyXI/gFwA1CvtX63gsqwKZAGDgb2TPCVW4HrRdgFQQRdEDqLmJ8CjALWyGGNXwtMqq2tnVnpC82UUruHwn5qDqv9K+Bq4AaZYxcEEXRBqFYh3xH4G7BzG7+194GbgfFa60+rsIy1wInAacDGbWR9Hrhcaz1JWoYgiKALQrWIXO/Qcv0j2fePfxxa7RO01svadSE/2B7ojfUQB7A1dq47KTOBV8P/PwTMw3NfameZuwDHhmVaP0s2A9wJnKy1ni8tRRBE0AWhksV8d+Ca0CqPYwHwF+AqrfWSxD9UP+htrFvXY7Er0DelOHvVP8O6gX0CuL2348yZN3K4yaP83YFDgKuAdbJkmwccpLWeIS1GEETQBaGiCB3DjACuA3pmsU7HAOdprb9IKOK9jBXv44B9gdXLULT/ArOA8Q48YTx3QUJh7xHWxVHEb31bCPy9pqbmnEmTJoljGkEQQReEirDKVwP+CrhZsnwFHKG1fjzXuWr8oK4ZtsQO1+9L+5y9FIsvgAnABDz35YR1szXwd7Kviv8XcGgpt+MJggi6IAhxgtUbeBI7fx3HDcCZWuulbZ2nzg9SjTAUuAQbiKXSeRy4sQ4eaPTcTI466g6cAlxBfECZV4H+WutvpEUJggi6IJRDzAeE1me/mMOfAsO11o/l/BH6QR8DT2Mt82rjDQf2MJ77bYL62iK0yOPm1pcCByYZxRAEIZ6UVIEgtEvM9wEezCLmDzqOs0ESMQcw0K1KxRxgy/D+c6K1ftNxnA3CeovSFXgorFdBEETQBaFkYv4I8VvSLnMcR9XX1zdnPYEfbIEfnNwpK8cPTsYPtsh2uL6+vtlxHEX8eoMuwCMi6oIggi4IpRLzh4G61oY2x2utz2szWIof/AF4GetlrTNyMPByWM5sop7RWo8Djg/rrSV1wMMi6oIggi4IxRTzAVgHLFHL/FNga6110IaQb4If/Afr3rWuk1dVHXAtfvAf/GCTbJnC+to6rL+opf5QWN+CIIigC0LBxVxj53qjYr6b1vr1uO/V+kENfjAUeAsbd3xlYjvgLfxgaK0f1GQR9dex3u2iot4V0CLqgiCCLgiFFPO9gXqge+TQXGB3rfUHsT8uP+jSBD5w/0pglbdlrd/fBH63MeNSWUT9A2D3sD5b0j0U9TWlFQqCCLogdFTMe2M9nkW9nX0M7KW1fj/2i36wQQbeJLuzmZUNt8GYp/GDDbKI+vvAXmG9RkV9WvgcBEEQQReEdol5H+DfwLaRQx8B+2qt38si5htiHa9sIrW4Ar8AHg/rJ07U3wP2izm0DTBVqk8QRNAFob2cTfy89wit9TttiPk0bPAUoTWbAtPaEPU52NXvUXZTSo2W6hMEEXRByNc6PyQU9Dgx/1cWMd8A6wltsxyn/5IWzlUc+A47R1+N1If3v5wHw/K1xWbAv9oYfg+AEbTe0naqUmpXaZ2CEI+4fhWE1mK+BfASrT2gXa21PiOLmK+HDTn6kxyn/xoYEA1u0mfMOOdbY3YDpmBjnFc63wGD+zjOzG+j4VX9YNvwxSZXdLj3gL3x3E+yPIepwIGR5EXAOlrrBdJSBUEsdEHIxZgYMZ8KnJNFzNcBnkog5hlg37hIZd+OHG7w3BnAlVVSR6fguTO+jYuVbsu3b1jetvgJ8FRYf3EMwcZnb0lP4EZpooIggi4Iuazz07GLt6JW9W+01o1ZxHwmsHGC04/Fc19pK0NvxxkNLKnwanoVz72jzRy2nHckONfGwEzHD1qNSmitm4D+wOLIoWOUUsOktQrCitRKFQjC92K+HXBeJNkAv9Vaf5Lla9sC9ya8xM25MswbOdzgB8cDO1ZwVc1KmO8G4PMkGY211mfFiPocpdS52HjzLblFKaW11g3ScgXBInPogvCDoE8AjokkT9FaK6mdsj6XHtgpj/6RQ3/RWp8pNSQIFhlyFwQrGgfHiPm3wLFSO+VFa70YODV8Hi05Qyn1c6khQRBBF4TlYt4FuCLm0Ila63lSQxUh6rOBiTGHzpDaEQSLDLkLIuhKKVrvA79Pa31Y7Bf8QAMD23k5H8+NjYXe1Q9SS2EOsFEBivUU4OG577e47x9jt5NtUIDz393XcYZ/E7fK3V7rRsBr57lvwXN/G/OcugOv0no3wbZa61ekJQsi6IKwcor4+sBagAJ+A6wdybKL1vr5GKE6Ebipg5e/0YELjed+1eK824QW6OYFLOZteO6IFteYDuxdwPM/Apy1wsp9P+gHXBXWa3sxwH547uMxz+1YYHzMy8tzWN/5rwBva63nSysXRNAFoXMK+GrYiF6/CC3HVWkdcGU519fU1Pxh0qRJK1ifjh/0MTAD2KIAt7QA+BDrK/5wrBOWQu86mYHn7tFCbJ8O66CQNGG39f0T2Cd8IelSgPO+2c1xftYwcvgKe9nT6XSNMeaNHC8+84A3QuF/PJVKvTt58mQjvwKhsyPb1oTOLOI9gROAo7D7nddI8LUG4MKomIdm44UFEnOAXsDPwk+19yFrAf9X4PNu0WDMhdg6/576+vpmpdTVtL0FsDc2xvpuAJlM5n2l1D1AEPqKFwSx0AWhCkS8FugHnAsMCMUmHy7SWo9qleoHu2KHmFetouoohYVeTBY4sL7x3Pkxz/l1YMs8z5cBngf+DDwaOq4RBLHQBaGSSKfTKWPMYOByYKs8vrrc+9tkrJvRbPPj51aZmHcGehm7++CkmGOHAwdgR176AMOwu3Zq2jhfCtgVu6f9daXUzcDNWutlUtWCWOiCUBlW+aHYodmtE2Q3wDPAA8D7wNSc3sb8YHfg6Sqsmmq30AHmObBRnJUe0w42x3ruGwzsSbJ49K9iR2Xuk1+SIBa6IJRPyLcEzgKG58jaBNwPTK2trZ3wwAMP5LtA6hyp7bLR29iANSfmyqi1fht4G5g4dOhQp6mp6RfAUCBN9kV0WwP3KqVmY/0OPCdVLoiFLgilE/K+wJmhmLflHOlJ4G7g1vbOlzp+sLqBd6mOkKad0UJfbqVvajz36/Z8OVwZvxPWT/9BbWTNYFfrnyQOhYRqRDzFCdUm5nsBjwJ/bKP9TgH2SKVS/bXWN3Vk8ZOx8+a9pebLbqW3e/1CfX19s9b62VQqlQb6YlfIz8vSHx4JfKyU2lOqXag2ZMhdqCYx/w026la3eO3lIeAyrfUMqS0hSrgX/VvgRKXU2djwroNjsvYEHlVK3ai1Pl1qThBBF4TCCXkf4MbQeorjU+A0rfXd+ZzX8YMfhZbfr7Cro48OXwwex3NPlJqvUPzgH8C+2CnDO4Bm4C4HPjOeuzDJKbTW3wEHKaV2w25j2zeSpRtwmlJqV+AgrfW3UvGCCLogdFzMnyZ+z7EJLfZztNZLc50r5Qd1GevIZQBwmIGdiV9H8qbUfEWzDrBZ+P/ljmcuNvA5fvABNj79v1LwWsZzG3MI+0yl1EFY74F/obWXu92Ap5VS/bXWX0rVCyLogtA+Mf8FcEsWMf8EOEpr/WQCS3wVA5dk7L7lflKznZa1ws8uABmYgx/c5MCYtix3rfUS4Aal1MPAGOyWt5ZsiZ1XV1rrR6WahUpFFsUJlSrmvwSmE+8atd5xnA1zirkfbI8fTDAwF/i9iPlKRz/grwbm4geX4Qc75LDW33EcZx9aR94jtNx12C4FQQRdEBKK+X7Ag8QH+TjfcZyh9fX1mTaEfLswxOks4Bis3/Sk/A+Y9L11D18C91RpVT6d4+9q4Z7wOSxnUvicktIL60vgRfxAO37wo2wZwxXxQ8J2EyfqD4btUxAqDtmHLlSiZf4graeDDHCc1vr2NoR8XeBY4FLadgGajRnACDz37Zhz/wm7eKoa+ALYH899OaYc22K3/f2oSspyPp57SUw5NsfGdl+/HedsDM97RY62eAwwIeZQEzBIaz1NfrGCWOiCEN+BrgFcGyPmmQRiroDHgdHtFPO5gBsr5sCaqdSlwA1VUpUjYsUcCNNHhC9Ilc4NYb3HleNtbLjW9vgYqANG4wev4QdZo+eF7W1z4OPIodrQUl9DfrWCWOiC0FrM+2LnzKP+2JuB47XWcZYStX5Q02Q9xl1MxxZ5XoznXtjmj8UPehm7Ra5nBVfl7XjusTlz+cHzwE4VXI5FDqxjPHdBjnJcBZzRges0ARfUwpVNntucpW1uiB29iY4GvArsLVvahEpBVrkLZWfIkCFOJpO5IouYj8gm5mFvvF0osKM7eBt+rgzGcxfgByOp7BjmLybMdymwYwWX47WcYm65HhvDviP0DNvRrCyW+kdKqd8C97Hi6M/WwN1Dhgw5IHRaIwhioQsrvXU+Gjg7kpwB3LbEXBBK3E6PBQJaT1VeobX+o9SQUG5qpAqEMneSe2Cdw3SN6SSvkRoSKoW33377lX79+r2PjeDWkm379ev31Ntvv/2R1JJQTmTIXSinmK+KXQQX3VamHcf5U9Lz9B0zzmkuwP18N3J4m8Omq48Z5zQV8TrFPn9LVhszzinmdQpx/lrg6xxlKcR1aoBvEtQZgOM4dxljhgGqRXIv4Fql1ACt9Xz5ZQvlQobchXIK+kXABZHkuY7jbFhfX59Mo/3gd1j3n30KcEsj8dzblv/R9Z//Sy09fINMeJ2fYrdJrVOA69zby3GOWNBSRPxgy/D8axXg/HfjuUe1UWd3kt0vfj68AByP577R4tybArdRmDCtL3eBHZZ5bgagx93/7b74yE2WtLjW8VjPbh3lW+AiPPf6JJnDcKwfAetGDl2stb5QftmCCLqwson5TsATQPfIoS211m/GiNCGwDTgaDz3BQDHD9Yy8A75OY5piybgT8B4PPfTFtfeGxtXfe0CVsE/8NyTAFJ+0CVjV0xvXsDz3wmcjed+3KIcGwFjaR2IpCO8iOfu1OIaNwO/LuD5Pwmf+RMtrrEOcBEwksJtvV3gwGbGcz8Pr/Er7M6J/fDcD2Pa7xbAG5HkJdhV7y/IL1woBzLkLpSLa2LE/Nw4Me/iB6llMBEbkKNfaBliYPUCivny38NoYBR+MB0rssdinbAU2mfDT5b/J2PLsXmBz38UcCh+8DTwEnB4+ELStcDX2cjxg14tVqRvXODzrwc8jh98gXXysjXQn/gQuh2hV9iePg//PgjYFLiiix8ctXyUYDla6zeVUucCl7VI7h62a4mlLpQFcSwjlMM6H0TrIdmvgKvj8i+Df2Ajo5WKbthALmeGIlitv5Ou2MhyZwIbFUHMAdY0sEoJ+qm1w3IcUAQxb8vYOSJsf3FcHbbbluwetm9BEEEXVgrOZ8XpHgMcrbVe1iqnHwwBhkuVCWVkOH6wfzQxbK9Hs6LXPSds34Iggi50eut8f2DXSPLTcWEpwyAatxEfpEUQSkUX4G+OH/SNEfVHaR30ZtewnQuCCLrQqbmY1osxL4vLaGws9D5SZUIFsJmx3vXiiLZfJ2zngiCCLnRa63wfYJdI8pNa64dbZfaDzQCZixQqiRFhu4xa6Q8DT0aSdwnbuyCIoAudkiEJrJvl3I0MtQuVRReyxwy4LGF7FwQRdKHqrfNa4Pcx1vkjMdb5UcD2UmtCJTZl/KBfjJX+SIyV/vuw3QuCCLrQqTg9Ju3OPPIKQiVQh/VMSML2PEKqTBBBFzoN6XQ6Revhx7lYRyFR63xLbChLQahUjsAPtopJnxC26xWav1SXIIIudBqMMT2BX0SSH9NaL47J/ltpl0IV9Jut5sfD9vxYJHk/pVRPqTJBBF3oLBwSk3Z7q8boB12wLkoFodI5bZX4SG/Rdt0VOEyqSxBBFzoLwyJ/fwI8Fc2UsX7TV5fqEqqA1RcaMzAm/dmYtN2kugQRdKHqUUp1A6LzjW9orZfGZN8hx+neBt5r8fc8YHaVVs205f9xbJSuu6q0HDelbPjRVuWqMmaH7Wk592Aj+bVFq/lxrfVCWg+7y44NQQRd6BSsBvw4kjY5mqnGD2qxEa6ycRue2w/Pfeb7FM+di+f+HDiniurjQ2AzPPfK5QnGc+eF8ctPqaJyfAociOeenPHchhbP5EpsVLwPq6gs5+C5P8dz57Yox/3AfsC4Nr63Qxc/iOtD/xP5e0el1FrSFQgi6EK1s3tM2oxoQjNsgP3E8Qaem337j+eOBu6vgrrIAAPw3HezlONGsjvaqTT+jOc+lKUc72KnT6qBv4ftJ64cHwHnAu9m+e7OTVATk/5MTNp60hUIIuhCtbNlTNrrMWmD2xSP3FxZBXVxFZ77Xo4f5EXA1xVejll9Hecfbebw3KewvvgrGifX6I612s9v4w1tZEzy1Ji0A6UrEIqNeDESik10T/lUrXVjTL5tiZ+zdICXc12kBmY1w/QKt4Qm5zThPXcZfjAWOLiCy/H4NyOHmwT57gYq2Z/5zNUcZ+G83PleDq30uDIvatVgHafZGPNG5GW2l3QFQgleUAWheCil3sbOqS7nPq21bOMROnu7vxc4tEXSu1rrzaRmhGIiQ+5CqXlPqkBYCWiK/G2kSoRiI0PuQjGtlFWB3pHkN2LfLK1TmaydXsZzG9u6Vo0f1JoCjDhlu06hzl8HzUs9N1PsctRC87KY63Txg1SWhVwFOf9yuvpBqrEA13HANHtuU6nPH2mbdW2dIuO5y2LSHwSOkF5AEAtd6Cz8CFgzZ6fqB6tmYGkGlmX5LMEPvo+N3uOf/3O6/vN/P7RdP9i+GT5v4/uJP/jBda08gPnBjs3wZSHOvxT+bwWB/+f/vn+prvODmmZ4oRDXWQaz8IOtI+XYehnMKtD5p9T5QU1cOdYcO95ZCncX4jrN8CV+sGPLYqwyZpyzFO4t0Pk/xw+2jytHWGeDMrCkjXMsdfxg1fh3hRVYVym1tnQJggi6sLJTA2j84CSAxYdvYJYevkEm7HAPxjoz6Vuga/1uoTHntXjZ6AFMihlpaC/X4geX4QcbAzQevkFTWI79G2EmhQtMsx1wdiTt7AKef1AjTMYPNouUY+MvM5l7aO0dsL30BiaFzwGA8PkMLdD5+wLTwnb0QzlsWUYBmgKMBAA9gVXkpywUExlyF8qOSbYyvQa4ET+4DrgVu6d7eNhJFnpx504t7m0tCrty3sFulTobP/CBRqwnsV2LUI4f5/i7owwGDsAPngdeArbBujmtKfB11gufw/vR51Mg+gD34wcLsY5kUsAJ2FCpgiCCLgh5cFAeeeuAkztBmVPArzvJ6MkvaB1Nr9pwsFvLfis/R6GaOxVBKDfzpQoEQRBE0IXqN43ulFoQBEEQQRc6haYLgiAIIuiCIAiVzSfAx1INggi6UK18Gn4EobPyOXanQpQdI38v1lo3SHUJIuhCVaK1XgQsjCSraD4HlgBvSY0JVcgbxnOXxKSvI1UjiKALnY2c8+Ohu1Wx5IXORNSNsbRvQQRdqHqiK9i3SafTcY5HXpOqEqoQHU1QStXR2pPdY1JVggi6UO1E5xc3M8bEtbsXpaqEKuSZmLTVaO0t7zupKkEEXah2/hmTdkRMQ7xbqkqoMpalrMvbnO07y+9AEETQhapiXkzaDtGEbo7TCDwh1SVUEVOzhE7dO/L3F8AiqS5BBF2oarTWXwAvRJK3juZbPHK4Id7aKTVN2FjWADjWLe0ztBGrvUIxwORI2uQqLcczzorugR8Mn1O5eTaaEM6fbxNJ/kBrvVB6A0EEXegMzIz8PUAp1Ssm36Qy3+dbwI/x3Ju/VxPP/RrP3Q04qYrq+31gTzz3qhVS7d978kPUsmrgJDx3N+O5X7cox83YyHHl3uoYN4y+DdAvkjZRugBBBF3oLDwVk9Yq0tiaqdRTwIwy3WMjMADP/ST2qBWRK6rEoh2O587IUo4ZwJ+qxFK/ouXLVaQcnwADiHfqUpKX1DVTqQ9j0vvHpE2XLkAQQRc6Cw/Sei79sGimL0ccZ4D6Mt3jKDx3bo4fywVVUNcz8dyn2szhuXfSetSk0vgiBefnKMdcYFSZ7u/6sL1+j1KqC+BF8r0NvCxdgFAKJB66UHS01kuUUtMiIr6rUmoNrfVXkQZ5dRMcQuttP8VmSq4MGc9dhh9cTetFT5WEnzDfQ0DXCi7HtNDhUJLnNrTE99ZcC/fGTOJvBvw0Ws9a60bpBYRSIFGuhJKglDoWGB9JvkhrPUpqR+gkbfwK4KxI8q5a6+ekdoRSIEPuQmneHB3nDmBOJPnYdDotbVDoDGLem9bD7XMcxxGHSULJkCF3oSTU19dnlFL1wJktkjcxxihab6+izg9qmqBHiyRjPDd264/jBz3o+BB9q/OvOvFjZ/6w9U2L63QvxG/GeO6C2LdrP6gz0K0Ab+lLmj0367auGj+ozUD3Dr+kQUPcsHiNH9RlClAOoKll4JO+9/zX+eaITUzk2a9CB0caHViaZT959PxZ22Ao5n0jaf+or69vll+/IBa60Bn5KxDt4GIXPjVBDwP/MzA//CzAD25tldEPLjXwZYt87f0swA+ObHnqxcbUthDbrgZmF+A68/GD8TV+UBspx64ZeL0Q52+GqbV+EPuCU+sHNc0wtRDXycDr+MHO0ZeFZnioEOc3MDvlB9/P8y81dInU2ZEGFhSgHG/iB/1bnrqrH6Twg1sj5/9vFut8DVovmGxGvMMJIuhCZ0VrPReYEEneQSl1aBYr9tRI8kj8YK8WHfr6YZ4eBbrFu/CDc7uNGZcCaDp8g8bwOjtmrK/5zQt0nWOb4dKI5X8PdlFVIdi/CabiB1tFBHCrJpgK7F+g62wGnBdRsTHY7WSFYPMMvIgf7Aiw6MhNlgJ0GzMuhR9cB9xVoOtsAjwYtif78gBH03oI/egs3z8KiPpVuCxs74JQMmTIXSg1NwPHRV4m/6SUeiK64h3PvQ0/OI4f9vY6wIYtcqxKAYaOI1zaYMyl+MGE0MraLvwUmp9///ICvSPlKgQDgYH4wV1Wn9iaGJe7BWBPxw9WM567PPhIoeOA/wx4AT+YDcwGahqMObYI5egetqflDI4cn4DnPhZjna8OXB5jnfvyUxfEQhc6u5X+LK0dzWyXzfpx4HBgcRlu9VjALZKYl5JfheXYoUjn72MKN0LSFtuF5Ti2RPXWcl5+rgOnZMn3R1qX/1Kt9UfyaxdE0IWVgRFAdBHSaKXUltGMxnO/DK0l8YUtlINFwNFxCxmVUrvRelpoGXbaQRBE0IWVwkr/L3BtJLkbMDb2C547Hfib1JxQBk4L219UzFcF/k7r3RV/EOtcEEEXVjauB76KpO2ilDozi6ifE/MSIAjF5Fo895Ysx86n9XTMx2KdCyLowspopc/FzktGg4Sco5TaOYuon+ZYl6WCUGzOwXNPizsQts8zIskGOFRrvUyqThBBF1ZGUf8noCPJfYDxSqlYP+MrhNEUhGLhudn2nO8IPBxz6O9a6+el4gQRdGFl5jjgm0haP2CaUqqbVI9QKYTt8ZrwpbMlj8dY7IIggi6sdFb6d8ABMYf2AO6VGhIqRMx7AI8Ae0YOfQWcrrVeKrUkiKALIupav0DrKFUAg5VSp2X9oue+AZyI3VokCO1lMbDvqo7zZhYx7wk8COwVc/hErfVsqUJBBF0QfhD1q4CrYg79RSl1ehuifjPWK9p/pBaFdjDbgfXx3H/PHzncZBHzKcDeMd89S2t9n1ShIIIuCK25EJgRSXOAq5RSp4eda5yoz3DsEP0lwAKpRiEBC4FLHNjdeO63WSzzHljf9/1jDl8SvoQKggi6IMRY6UtCa/vpGFH/C/BgtoVyxnMX47nnYwOPTJfaFNrg3w5siueebzx3cRYx74bdIhlnmT8NXCHVKIigC0Lbor4IODBG1MHOYT6ilMrul9xzn8Vz9wlfDJ6k9T73SmApcF+Lt5VFwL9oHVq20skANzgrrmG4LyxfpWHC9jAQz93XeO7n2TIqpXYC3iR+zvxp4ECttbgiFioOR6pAqESUUr2wC5H2iDn8DTAo0b5fP/glNsDLiAp5gX3DgQHGcz+LudfDgbur5HdpgCPx3FYxvx0/WNvYF5QtK+SlYyzwz7hoaTHt7kisS9e+bYi5TOsIIuiCkKeor4J14rF7lixXA6MSWUt+8BMgDRyM3XpUjrbfBGyI537axn2eS4tY6RXMEXFi3qIc2wMvlOklymAj+k0C6vHc9xK2tVuBI7Nk+TNwpVjmggi6IHRM2M8GRmc5/DJwktb6mcQn9IMNgH2BQcC2wE9LVJTz8NzL2srQY8w4Z7ExH1D4+OiFZOYaKWePr0YMNznq+VHglyW6p7fCtvAQ8Die+7882tdRwC1AzyxZ/qi1ljlzQQRdEAok6ocB/wBWjzmcwc7dnq+1npPPeev8oKYZUhnYBtg1TF6nxf8LyZl4bu7tdX5wdgmFsD08hudekaAchwInFeH6zwLLRzmeTcErNZBp9NzmPNtUv9DyHpYlyzfAQK31i/ILFETQBTGZ/hQAACAASURBVKGwov5z7DD7PlmyNAI3ARdrrcXnu5CtHW2G9XlwIFCXJdu/gYO01oulxgQRdEEoTmfcFetP++Q2ss0PO+QztdbvSK0JESEfBHTJkm0e1h/CLVrrBqk1QQRdEIrfOe+KdSQzoI1sjcDr2NjVT8jq5JWynayCdQ98NLBVGxZ5MzANOFVr/abUnCCCLgil7ay7AUcAFwEb5cj+JTYq1izgZqBBYld3yjbRBegG/AbYAbv4cc0cX/sQu/DtbqlBQQRdEMpIOp1OGWNOwIaw3DTh194BXg1FfjbwPIDjOM319fUZqdWqEO/l1vbOwHaheG8NbJbwFO8Cf3Ec51Z55oIIuiBUXif/f8Ap2Jjq7eF54GOpyYrHAIe287tzgL9rrW+QahRE0AWh8oV9J+A0rCOZblIjKz0NWEcz14ThegVBBF0QqkzYa7H7jA8G9iPepafQOfkGu9BtEjBRa90kVSKIoAtC5xD37livcAOAw4BeVIa/caEwvIENn3sv1pf8W2EEP0EQQReEzkw6na41xiz3PJcG1gr/vwHZndcI5ecd4JkWfdh4oMFxnK/r6+vFChcEQRAEQRAEQRAEQRAEQRAEQRAEQRAEQRAEQRAEQRAEQRAEQRAEQRAEQRAEQRAEQRAEQRAEQRAEQRAEQRAEQRAEQRAEQRAEQRAEQRAEQRAEQRAEQRAEQRAEQRAEQRAEQRAEQRAEQRAEQRAEQRAEQRAEQRAEQRAEQRAEQeisOB09QY0f1GWgr4EjgV5Zss1zYCJgjOd+0aEb9oMebVynqHVVA182eW5zlvtaBehZqIsZz/28g/XUB+gSSW42nvtVySvOD1YFuicpY50f1DTBmoBpkbzUeO68It7fWgZ2A7YK29YhkeuPD//90oFJwCLjuQs7cL01gJoytOFlxnO/LfRJlVK9ga4FPm1Ga/1lhd/jIq31wgLe42pAt5z9UE3N55MmTTIFfobdgdUAL0xaHRjc8nkAE0LNcIDbgAat9VftvF4voEeObE1a6687WK68+mWtdd797qhRo1IvvfTSz4wxOzuOs7Mx5mdAX6A30Cesu4XAAmA+8L4x5m3Hcd4GXl9nnXVm3XLLLY2FeI617f6mH2wLHNtsH/pPcwoU3AAY/OB5YKIDtxjPXZC30MGJwNXlePtpgs2Ad7Pc17nAOQW7mB+82OKlayIwMwXPZTx3WcJ6ugQ4uVUR/OCneO57paw3Aw8Dv4gkvwDsHM3bCOsBH0aSH4x0Lh1ilTHjnEXG9DEwGvi5gR1zfOXPLcryD+Az/GAacEcNTGv23KY86+MlYIMyNOEngP5FOO84IF3on5tSanb4//eAWcDNWuv57f1FAYcW+B4/U0p9HP7/aeAp4CGt9ZJ2nu8fWMOoTZqbm7sDDQUQ8S7h7/JYYP8EbfKSFv+/GFimlHoOuBf4h9Z6WR6Xvxj4Q448rwM/60D51g2fy8YJvxLbJ2VjyJAhGzQ3N4+YNWvW8cBGAMZkfc/qBqwR/n9bx/nBlv70008XK6WecRzniebm5gemTp36WskEPeUHXTIwBjimnSMCuwC7GPgLfnAncA2eOyu//rAiyRT4fC1FZofwAh/gB7cA4/DcuTm+f2WMoNeGb+DnlKxW/GBvYNeYI1eUpW79YNeFxpwPHNiBs6wdtv9jmuEV/ODhGjgvD2Fv7iRttJjnrW3xG9gROAK4Uik1EbiqpqbmxTyt1GLc49rhZ/k9/gH4Vik1DfhLTU3NCxVwj61Ip9MpY8wZYf+wUQdO1QXYM/ycpZR62HGcE+vr65P8DkwJ6mNaHmL+HHBAkoxDhw5dvampaXQmkxnhOE6qAI+kBzDAGDMglUpdnE6nZwO319fXX5Ov3uV3M34wNANz2ynmcRwFvIgfXBUOWQtt82PgMuAJ/OCMNluI43wEzIw5dIrjB6uX8J4PovXUziIH/l3SmvODdfCD0cD0Dop5lG2As5ptO05LEy06w4Dnm5ub7w2HqCuNPuE9Ptfc3HydUqpvJd2cUmp3Y8yc8IV6owKeej1gpDHmA6XUKKVUbZnLORbYIg/L/ACtdc5pvYMOOuj4pqamOaFhlCrGvRtjtjPG/KV///55T8slvyE/OBO4Hzu3UmjOMHYYcxfprxKxKXAVfnB7tgyLRw432GmA6BteL5NgWK8Q9BgzzgHiXjzONp77TQnF/OfAY8DZFH4edTnbApPxg1HhOg+huBwCTFNK9ange/w/4DGl1NblvpEhQ4Y4SqnLsNMCmxbxUusBFwJTlVL9yijmxyfMvhgYkkvMhw0bVpNOp29xHGdskTSwICR7i/KDrYHzshxdGA5tTK6BO0zrMZNfAFtj52j2I/tCiJ7ATPzg93ju3/Isx0LgWQqwyK8NnPDh58PrwGcduOaAHMePxg9Y1XGOnW8FfEU89wn8YG74I2vJscDfi924FhtzZkzyUuyceKnEfBCgaXsR2leh4M90YIITec4Z2CRsuz8DBuWwbC400N/xg8HGcxflcaf/KkFtzO5kor4j8IhS6gCt9TcVeo/bA7OUUj/XWr9eJoHbOJPJjKU46yeysT8wQym1dynLnaeYLwQGa60/zdX3NzQ0jMeOKFc0OQXd8YPuxnZ2ccNbDzpwlPHc7yDrxOCT4efvjh/0MHAYdpHRhjF5Pw4733x5D8/9ZQXW72g89/Z2v0H4QS8De4UNaQCwVpyozzfmO+CULKe5FvhLJG1n/GAfPLdow97dx4xzlhgTt5DtQTz3/RKJ+YHA5DbEfA5wpgPTjOcuIRzOMPH55sD3a0hOAs4C1s1y3r0NTHH8QCVdDV8LA7PtoBDaZCfgTEq5LiR/6oDxSqlflvrFQym1Udj/rl+Gcq8OPKWU2ktr/VoxLzRkyBAnk8n47RDzJ3NlPOigg86rBjGHBEPu4fBsnJBciOcOXi7mSTCeuxjPHe/YVfHnYpfwL6cZOBXP/VD6qO/rawGeOxXPPdqBnwB3Zsl6An4wIMsDvh5ojBltOLqY977EmN2wLyNRxpVIzAdjt5jFvbR+C4xMwTZ4rl4u5knIeO4yPPc6x+54+HUbozZbGrt1RSg+Zymlflbh97g9cMHQoUOdUl0w3Ko3o0xi3tJonF/si2QymdOBEQmzL04q5oMHD97CcZwLquWHkGQOPW4B3J147sUdEKoleO7lwN7h2yPAFXju/dI3Za2zRTUwPMvzqAMu6eoHqRgBasTuGY1yPH7w0yLecpzF9FoNTC12XYWL/m4O6yXKp8D2eO7YpFsA23g5vRU7H/litNqBNJ77kbTckvVjB1fBff6+qalph1JcKJ1O1wI30Xq6rZQ0A6dorYv6O1BKDWbFLXVt2hrYBXBPJmpYqdSoLP1INr4yxlznOM4gYKMFCxZ032GHHWq6devWC9gok8nsBZziOM54OjYdm/XtqS0rZ0Ng95iHdGlBru65sx0/GGTgtzVwrYw35vh1eG5TjR/cE+79/1Xk8K5L7TTGBzFfHY19Gega6QSHAG8VQVD7mPj5unH57tnOl75jxjnfGDMlS0c2F9gDz/2gYBf03E8dP9jfwGn8sM7kFDz3OWmxK/AWMCXp+1L44roWyRfuFsJCfwc7RZPk/oZj1/3k60zqiJgXwMIbAMYcRfsWvy4EbsH6SpgTObY7dtRtEDGOomJeao/XWk8ospgfCNxHssWuS4H9tdZPJzn3wIED+2IXXybF79at26kTJ05cYZpt+vTpy+t1IfARdmHijYCjlNrFcZzhxpijKYDDtFxz6JvHVFQznvtGAS3PxcCVIubJRd3xgxGmtaATdjIXxYjO+/jBLKw3tBUshtXGjLvyu7gFdR15ptb5T7Sj+8KBG4vtROAbY04ift/7x0D/Yszfh97XzscPvgDm47njpKW24mWt9Zl55D9LKbUncDfZ1yqsIJTpdPqo+vr6juxdfjWPezwr3Jp1Anb3RNItYIOVUudorYv2YquUWg87QpUPywAvhwC/CFwXDuUfF1rF2URoQgnEfBDwAK09YmYT8wFa6xlJz19XV/dLkvtquU9rfUK+XYfW+lng2WHDhv2xoaHhpLAt9e7IUFW+PCZ9U3kxnttA/Erxn7TxtdExaet8Z8w+BbbOu2MXjUW5PXx5KxqOH/RuY/Rov6J7yPPcG0TMC4fW+inglxV8f01a65tSqdTG2C29SdgioQB1hDHkdiHbkknAekkFWGs9T2t9PbAOEMRkqXccZ2SRxfwAoD5hXTYA++Uj5gCO42yXNG8mk7muI+WZOHHid1rr0cuWLftJljotmqD/UrqayuhPYtL2aENsNHb+OMopBbbOhxDvQvL2YleIgcOzvN1ehOfOkSZTlaL+BvBQJd/j5MmTDfBH7HBqEn5TRKHbDrvFMilXa62Htscnu9Z6kdb6eOx001ctxHxofX19cxHLuBZ2aiSp9XxY0mH2iKCvm0fegiz8e+SRR77RWh+vtXamT5+e9yhOewQ9FQaXEMpsqLfjO3HW6yH4wcYFvK9jY8Xcc/9Tgjq5PCbt09oWvtiFqqS+Cl483sHO5ZabA0ke+GeG1vqMApT9WmAg1pfCWR2c9kgi5o/lMcpxtda6XQtxjTGJnVClUqn9KqEd5hL0+bTeXl5rChgoQygdjrWS497Ezy7IBfxgM+Ldqk4ueuH8YHes280oN8j+7qoniQvPlxzHKXech2cqoK6SbrGai3XLXKgXmpe01vtprYs2EqaUWhPrxCyp572rU6nUme29Xj5WtzHmgsGDB+9Z2YLuuc9jl/lHuSnsQIXyEef7vk0rOPQZ8HjMoQNSflCIeb1fx6S93s1xSrEdMU1rT4HNKbhGmkr1opRag2QGxAvh0PfKXFeHkdy18RVJfJdXUNlWx8ZhSLqb4epUKnVmR9qEMSafUN+rplKp6Uqpe4YMGbLfsGHDyhEeOdEcxG1Yn8Qt6Q48gh8MWd1xHv+6wKukhRwtZ8w4Z74xcZbwywm+fh52rrklG2XAxW5Xaa+FvA6to7sB3NAwcngpoki5MWn3ZDx3qbSYqhWovthRpZ/kyJrBhmde2UlquX6EDdVaTe3gaRKE6Q65phBTCbkMpCwG8uGZTObwhoaGeel0+t/GmKdSqdTMtdZa66VCxTzvqKBfAYyktQ/2nsC0r42Zhh/8OQXPdsRRh5Cc+cbsCuwbc+jVXN+tgQ+arfBvGzl0RJ8x4279tv0vZ7+MaSPLHLi32G97Xf0gtTTeNXG9tJaKoVYplXSf7S7YPc+/JtmWtYnl8pMeYa+E+YrVsScVPD/P2OXl5m95lO1arfXphbhoXV3dzMbGxgztW2vW2xgzFBiayWT49NNPlyilXgCmZzKZaT169Jg5ceLEgk8F5r5Rz/2EuL3NP7Af8EQG5uAHN+IHe6f8oA6hKISRvK6NOfS1Ez+cvgKhY5e4OfN9vzVmnQ7c2rkxaRcZz/262HWyFBSthxobE45YCKXhUOyanCSfx4BRCcX8BeJHhkptRW4ZljEJYwp9/XQ6XUPy4CtPV0ujUUpdS7zPjTiu01qfVqhr33///Z9i5+wLQffwhe+CVCr1ZENDw2dKqVvT6XRBp66TLfv33CvxAwNc2UauH2P3H5+UAfCD+4FXgI9ScFfG7p0uFn3xg+EUJ9ras3juW5XQuB0/WMXYBhYXZvaupH71UzA9Y90Orh05dBnxQ9c53veDbWk9LNpM6aKqxQ0CLKuU55aEJhiOHxRjaiKD547vpC8JLwIDtdbflvMm0ul0jTHmKuy+7FzMJWscq451D8CPEuadUSXPd2uSTyMAFDzwjTHmSsdx9i9C2dYAPGOMl06nZxtjLtFad3iXRPIg9J57FX5ADlFvySHhhwyMxQ/uxYZv1HjuKwWunA3owGb8HPyWIrhHbYdobmnAzyLmb6fg9KRqkPHcpfjBeGzEsBWemeMHZxvP/TzPu/t1TFuahud2tnCdxWRMkc7bBHRGQb8fGKG1/q5cN6CU6gocbIz5a8zLcTYeLvNw96e2S+6UXKiUmq21LthU25QpU/6llLoH67K3ONaIMdsB9yqlngRcrXW7vVnW5pXbivo04FTi9xu3xWHh52L84HXgGjw3QMgl5PtiHVEcRvwUydfAUfmuX0jBBZnWgt7L2CmUO/IYNVjTWPeXUa6UhycUkc+x0ewKKejbKaX+ljDvjtgIavlOL15X5np7rphuZ8tMCrhSKfWi1npuoU66dOnSkd26ddvUGFPswDp7AbOGDBly+OTJk9s11F+b9zesg5Dj8IOrsd6R9iX5UM/ySt8auA0/OBO4rA7ubuyce4V/FQ5Ht4dB2GArbS0k+gbYH899Kd+Th1b6OKz/95aMzkfQjZ1miXZq7/V0nH8vEtERisdJwEil1B3A77XWCwpwzk0osOfECLdprV+RR1dU+gETgAGFOuGjjz66aODAgft36dLlLmD/It9/n0wmUz948OCBU6dOfao9bzTtw3NfxnN/5djwkQqYCOTrK3tL4PZGqMcPNuiEjetA4Ix2frbKIebTsf7JX+rA/V1D6/nndfP0MRC3EOjCRbKVsVJwOnHZugDHAw8rpXap8HudRwUs3gO2DBfQdWb2VUoV1P/EI4888s0OO+wwyHGcs4EFRb7/7qlU6u5hw4atVnwLPWqhee4CbFjEKWHoyk2BfbDz2iOx24l6JBC+mfjBbnju/9pxG2+FLxUF77wc+KLClOkT4AwH6jsc7MRzX8EPXmHFLWwp4CiSLJzxg8OAbSKpCx34l6h53vyU4sxtrgyPYjfgMaXU/mH0qkpjATbSV0MF3MvmxpgairMwr5I4SSn1iNb6kUKdcNSoURngynQ6Pc4Yc3b4Mtm7SPe/7tKlS8+j9bRocQW9Jd9Yq+yd8AM2pOT62D3KO4UCn80j2frADPzgF+FWuXxYiue+W4xarYDesAkbLeg24N4UPJfx3KUFvK+rab1oysMPRid4uRoSkzbWeO5nFfCDrsMPNsJzP6yG3qcW3u3kLmqbiPc62RY9ST6K2AsYm06nty5mYJB2sBDYW2v9nwq6p22x2/2qkddI5i2uG3CbUmrLQnvEq6+v/xw4TSn1J8dxhhljDsOuPepWyOsYY0b079//gunTpzfk0Y8UGc/9OBSj2/CD0cAB2H3Qm8Tk3gC7berSTtKJNedpddXGjDJ8l4J1ly96yxT++UzAD26JNMblQ5kXt2Gd/xw4JubItWWo5/+GdV0TKcOWwIcIlcC9Wutf5fOFcBh9O6xnw/4JxH2L0JnHvRVQXgM8AYzUWv+32BdzHKfZGPMEsHeC7L+qUkF/WWu9nVJKk8wP/TrAVKyTooKjtV4MjAPGKaV6OI6zO7CXMWb30IBdpYOXWH2VVVbZHRv0pkIEfUXx+Ai4BT94FLgEODom14X4QdAOK70SGY7nJl5ghh+MDYV0hYeagUdTfrB/ET3xnQ9cFUk7uk1Bt8PyUabiuR+UvJY99zX8oJHWUabSVHjozZWIvKfDtNbPAc8BNyulDsZuVct1nt9WgKC/CIxqb5Sv9jB58mSjlEq63XSQUupsrXVjFbWfV/lhQZqHdV+bJP7EbkqpqwvlPS6HuD8Wfhg2bFjNkiVLfpZKpfobY/YJDdmuef9oHGenfAQ9VZZH47kf4LnHAHfGHK0L38pXuk7MsT7z4+YA987AiUW8yQnYYf2WbI4fDI3N7wfdid+2eHkZ6zrOD/1I0dHOgdZ6UmgE5GJvpdRqZbzVlx3H2bWUYt6CKQnz/RS7i6ZaeA27BuGLsC18jp3uS/pCcrJSqqSR0CZOnNg8ZcqUl+vr66/TWh9cU1OztuM455LntJPjOBvlkz9V1sfkuUfzw3x7S9TK2GkZz12E3eMfF7bvOvxgpyJd93PsqvkoJ8Tmt8Ofa0WSP3LgpTJW3+zYl0M/OBGhs5B0mHi9dp7/i9Aaivu8mfAc2xpjxpbFenCcO0i+7OcqpVQ1uOh+A+ivtf4y8oL3MMkdJnUDrlFK9SlXISZNmjSvvr7+8lQqtSPwZdLvZTKZvBbdpSrggU3tqGXbqfDcZ4HfZTn6sOMHPyrSlc/CLlxqySD8YMeWCTV+UEu805iLjOcuKWPNPQrERVb7rejgSkd743w/Hcb0bvXBjhomjUtwjFLqwFIXur6+PoONTpeEzYkfIW0XSqk1lVI3KaX2KWCRPgf21FrH1ntNTc0JJAhIFbIj8PdyN8zJkye/YYxJGrMex3Hy0sJKEHQt/c+KrOE447M0vr4Gbkv5QdeCX9RzX8UuLotySMs/mq3P9ugq0wYH7irzi9An2BX7UbbCDzxpVZ2CnmXrpKy71hF59Ku3KKV6l+FW787DSh+qlDq+EGKO3eZ6IvCQUmrfApXlC631N21YvSbsn5J6vvuVUur0PMo1L51OTxw4cGDfQj4gY0w+wXHyWqFfCYLegLACX40cbhz4E/FD2AdmrO/0YnBeTNrvQqt8OXE7EG4ts3W+nGxDjtc7frCatKyqJ2lnXJQRvtBHeFKf++tRhhjtWusHiV+HE2vkAr5S6nilVJd8r5VOp2uUUodg/YBsFiZ3BaYopQaUqLzvEr9ANxsX5OOEyBhzWJcuXV5Pp9MFC/5VU1OzZh4W+juFFXQ/WA8/GN1zzLhiDYMPQGjdkDx3HnZRV9zK9uvwg70Kfc2UjR8e3Xves9luG8Lxg95Yp0FRLq+ISvPcN4DrY450N/C44werFPX6fnAkfvC44wdrSAsuHEqpHkqpG7DDpkm4r4i383vi17jEcYRSKl2GKrs8Dys9BYwFHlBKbZPHM9nEGHNXWNdRC7Y7UF8qUXcc54FwZCIJqwJjlVL57Blf2xgTKKVmpdPpQzoq7MYYL4+yPZPPuWtzdFAbYBdLbbLImFW6+MHvlnluobdCx60+fB8BPHc2fnACdq9j1AK5Az/Yp5AOdTKeuww/mEzreeeRwJ3GbmWL/nin93SczyrFb7sDFxu7Aj96n9sbeMLxg72N5y4sgpgfEY4QpAw85fjBXsZzv5RG/INw5LkIa4fwsylwXMzzbIui1bvWepFS6lfEr/2JUgdcXehgIQnuUSulbie/AFoHAgcqpSYAz4ci3xjT75yA3Q76yxzC1gPQSqmDtNaPF7O89fX1TUqp47AeAzdM8JUtsQvqDs/zUj83xtynlHofCJqbm+9+8MEH30765WHDhnVvaGi4LI8Rhc+7dOnyXCEt9LH84ADmlGXwGn6wTsGehHVOEp1vKWUc7WoQ9fHED92tD1yxSoFHThw77B6dt9oXP9g+poMwwHmV5LfdeO43ZJ+S2N7AdMcPVi3U9VYdM87BD/6KXUOw/Pf00/A6a0kD/qE/C0ebkn6eAf4G/CFPMZ9e7JCq4bB2Uv8SmwJ/LkN9n0L74oMfG/Y3i2KeydLwmeyf0ErtDkwt8EK5bM+kkdY+PNpsj0qpM9t5uY2Bi2pqauak0+k5SqmblVIjhwwZstshhxyyzrBhw7qPGjUqlU6ne6XT6X5py5UNDQ3vhe05qXV+68SJE/PyephqQ2zHYd3ZtWQL4H/4wUUFEPP1sKsso85A5hQhXnpV49j9t6/HHDpkoTHnFVgQ5wNPxhy6j9ax2D/Ec2dW4EvQfcBp2Sw/A0/hB3sUoA1vOt+Yp7DDsNEObktjvR4KpeWaEl3nZOCrhHmHK6UOKGUlhNHn0ljXs+WkG/GLVYtR5seJXweUjT8qpbbtyDWNMZuHBoSfyWRmNDY2zm1oaFg8a9asZmPMfGPMW8aYycaYM7Ge65LyVSqVyrve2rLQs60crAEuwA/eCoeD29MRpoFpWAcHUa6SPqmVyH6BdaQQN59+cRgzvZBcEZP245i06yu1zmqsJZFtNek2wBP4wf34wRbtaL8b4QdXAnPI7lZyLJ57hbTekvKa4zglGd3TWs8n3tNltj5TK6VKOmKjtZ6BdSCzoIzP5E1gYMmMH8cZjV0LlIS+2AV83SqtITuO85tJkybl7YO+tg0rZyR+8CTWD3vc8Eo/rBvXa4EAGz51fhgvPa4TXDscqhiFHWaPu/YdXWH80vzLv27YwRZ7//o0PPeRsjxhz30PPzgn5m3XAcbgB3u1M1JdK1Z3nOe+zu0XOkMFbzls9tzGlB/sl7GLZQ7O8jI7FDgIP3gYO2T+Th38pzEuSIof7IDdi7wLNoZ8W6uCx3Z3HC+fZf9NcAV+UOypCycFf8p4bmfcWfINMLyUgVlSqdRjmUxmAsnmqmvDvrSk+9O11k8rpQZj5/x7lfiZ3A6cqrX+qlQXrK+vzyilTgN2BtZO8JX1QyPy/ypIzC+qr6+/vz3frc0hIuPwgxewPpT7ZcnVEztfcwpg8IPPswjrKrS9j/RjB05d2r5Fd2sCZ5agrpcAj5TrQXeBvy6DXbHzkVHr+dpaPziiEBG7vh453OAHt+cQ9BuKFeGuUGQ8dykwFD84jezDfnVYz4QKoBG+xA+ibdAk7ByWAYfXwZQl+a8rOL0UdWKsf/7OJujfYV2Dzi7lRUP/6b/DLuz9cYKvDFJKnaS1vqnEov5UOOR/bSh0xWYxcKvjOKfW19eXfH2N1vo9pdQR2AXdSYy8k5VSz2qt7yh3QzbGjNJat3tKO/e2Nc99o9Y6ErkIu1CizZeLsONbK+bTlpg/COwmq4JzqIV92fkd8F7M4UOb8oydm+PlYSx2SDmLLjCxairOc68B9gCShHVdM6btJhHzl4B+eO7kxs4dBrWSMMDDwKalFvMW4jGP/OIsXKOU6luG+5yJXRM1IRTcYjEfUFrrP5RDzFuU90mSTwmmgGuVUlGjtZTrDz4C1JQpUzq0Pi2RY5kmz23Cc0c5dsX7H4l3sdkelgJ/qoN0oYaLOz021vgJ2N0AUS7CDwoypBe+PGSbi3oaz51RZfU2I2WnfI4HChnJ7wVgGJ67Q1kiza2cLAX+jfXxPaiUQ7qxVozjPIp9AU5CN+DOgw8+uOTurbXWC7TWxwF7AU+RfK96EhYCJwE/LvY2ldOORQAAAkVJREFUtTz4I5D0XtYE/HQ6/f0i7W7dum2G3TI5vcB1tUJXC1zbrVu3rbTWUzp6srw8xRnP/QLPvcKxw0vDgcnEL9RKUohzgE3w3EvFoslbnP6NDXkapQ64poDbpf6a5cXh8mqstoznNuC5QY1tvyeHotCettcE3AMcgefujOfeK42yaDRh90M3AjcCvwE211rvG1phZSe0RC8g+4hWlIHNzc3Dy2i9ztJa7xUK+/VhHbdHsJqx4W3/AKyvtf6H1vrbSmk4WusG7A6UpNv39jDGfL8oe+LEiUu01hO01vs0NTVtGI7EaHKPVCfhFeDU2tradbXWp02cOLEgowHtiodurJU4nuXRbvxgMLAadn/i8oaxMXYP5mPLX2TDN515eO6kjjwn4MMytZG32jh2F61dtb5YRFG/HD94O8sPsbFA15iLH/wGO1z9vXXkwMxiva468JWBwyLl+qyQ12j23CbgJuCm0HnSTvwQ0ONI7P7ZFUck4F2sX+WnHXjIeG5Hhi1PwjreKLkxmYIlRXh7vhI7lFsMprflzzsPria3N7F2O3/RWn+ilDqGZI5NIH7l+V/J7eXOcRynIL9vrfXTYdv+vVJqD6wjn+2Adfkh9nhL3g3zO9hp0pe11nPaefmA7LtQljO/AGV8TSm1G7BV8i6oNQ899NDHwM3AzYMGDerapUuXHTKZzI6O42xhjPlJWGdrYNeKdQ3PswC7vuM74HNjzH9SqdSLqVTqhUmTJn0g7+qCIAiCIAiCIAiCIAiCIAiCULH8P1F8RIwORTGdAAAAAElFTkSuQmCC;" parent="j1-eY5sRp-LMkJEAcrBZ-1" vertex="1">
          <mxGeometry x="140" y="80" width="150" height="60" as="geometry" />
        </mxCell>
        <mxCell id="V0OLn-leTy9lyK8CeLU7-3" value="" style="endArrow=classic;html=1;rounded=0;entryX=-0.013;entryY=0.58;entryDx=0;entryDy=0;entryPerimeter=0;fillColor=#bac8d3;strokeColor=#23445d;" parent="j1-eY5sRp-LMkJEAcrBZ-1" target="V0OLn-leTy9lyK8CeLU7-0" edge="1">
          <mxGeometry width="50" height="50" relative="1" as="geometry">
            <mxPoint x="230" y="330" as="sourcePoint" />
            <mxPoint x="369" y="199" as="targetPoint" />
          </mxGeometry>
        </mxCell>
        <mxCell id="V0OLn-leTy9lyK8CeLU7-4" value="" style="endArrow=classic;html=1;rounded=0;exitX=1;exitY=0.5;exitDx=0;exitDy=0;entryX=0;entryY=0.5;entryDx=0;entryDy=0;fillColor=#bac8d3;strokeColor=#23445d;" parent="j1-eY5sRp-LMkJEAcrBZ-1" source="j1-eY5sRp-LMkJEAcrBZ-3" target="V0OLn-leTy9lyK8CeLU7-1" edge="1">
          <mxGeometry width="50" height="50" relative="1" as="geometry">
            <mxPoint x="250" y="350" as="sourcePoint" />
            <mxPoint x="379" y="209" as="targetPoint" />
          </mxGeometry>
        </mxCell>
        <mxCell id="V0OLn-leTy9lyK8CeLU7-5" value="" style="endArrow=classic;html=1;rounded=0;entryX=0;entryY=0.5;entryDx=0;entryDy=0;fillColor=#bac8d3;strokeColor=#23445d;" parent="j1-eY5sRp-LMkJEAcrBZ-1" target="V0OLn-leTy9lyK8CeLU7-2" edge="1">
          <mxGeometry width="50" height="50" relative="1" as="geometry">
            <mxPoint x="230" y="330" as="sourcePoint" />
            <mxPoint x="389" y="219" as="targetPoint" />
          </mxGeometry>
        </mxCell>
        <mxCell id="obLTRIAbCv2FcWqruGiW-1" value="" style="endArrow=classic;html=1;rounded=0;entryX=0;entryY=0.3;entryDx=0;entryDy=0;fillColor=#0050ef;strokeColor=#001DBC;exitX=1;exitY=0.75;exitDx=0;exitDy=0;" parent="j1-eY5sRp-LMkJEAcrBZ-1" edge="1" source="j1-eY5sRp-LMkJEAcrBZ-6">
          <mxGeometry width="50" height="50" relative="1" as="geometry">
            <mxPoint x="560" y="200" as="sourcePoint" />
            <mxPoint x="790" y="410" as="targetPoint" />
          </mxGeometry>
        </mxCell>
        <mxCell id="obLTRIAbCv2FcWqruGiW-2" value="" style="endArrow=classic;html=1;rounded=0;entryX=0;entryY=0.5;entryDx=0;entryDy=0;fillColor=#0050ef;strokeColor=#001DBC;" parent="j1-eY5sRp-LMkJEAcrBZ-1" edge="1">
          <mxGeometry width="50" height="50" relative="1" as="geometry">
            <mxPoint x="560" y="310" as="sourcePoint" />
            <mxPoint x="790" y="430" as="targetPoint" />
          </mxGeometry>
        </mxCell>
        <mxCell id="obLTRIAbCv2FcWqruGiW-3" value="" style="endArrow=classic;html=1;rounded=0;entryX=0;entryY=0.7;entryDx=0;entryDy=0;exitX=1;exitY=0.75;exitDx=0;exitDy=0;fillColor=#0050ef;strokeColor=#001DBC;" parent="j1-eY5sRp-LMkJEAcrBZ-1" source="j1-eY5sRp-LMkJEAcrBZ-8" edge="1">
          <mxGeometry width="50" height="50" relative="1" as="geometry">
            <mxPoint x="560" y="620" as="sourcePoint" />
            <mxPoint x="790" y="450" as="targetPoint" />
          </mxGeometry>
        </mxCell>
        <mxCell id="obLTRIAbCv2FcWqruGiW-4" value="" style="endArrow=classic;html=1;rounded=0;exitX=1;exitY=0.5;exitDx=0;exitDy=0;entryX=-0.01;entryY=0.837;entryDx=0;entryDy=0;entryPerimeter=0;fillColor=#0050ef;strokeColor=#001DBC;" parent="j1-eY5sRp-LMkJEAcrBZ-1" source="j1-eY5sRp-LMkJEAcrBZ-9" edge="1">
          <mxGeometry width="50" height="50" relative="1" as="geometry">
            <mxPoint x="561" y="725" as="sourcePoint" />
            <mxPoint x="789" y="463.70000000000005" as="targetPoint" />
          </mxGeometry>
        </mxCell>
        <mxCell id="iaqzGSJ671PbNShllTSF-0" value="Service Bus" style="image;sketch=0;aspect=fixed;html=1;points=[];align=center;fontSize=12;image=img/lib/mscae/Service_Bus.svg;" parent="j1-eY5sRp-LMkJEAcrBZ-1" vertex="1">
          <mxGeometry x="800" y="395" width="80" height="80" as="geometry" />
        </mxCell>
        <mxCell id="H_tuwT8JIxV88d4C66FG-0" value="Logging Microservice" style="rounded=1;whiteSpace=wrap;html=1;fillColor=#b0e3e6;strokeColor=#0e8088;" vertex="1" parent="j1-eY5sRp-LMkJEAcrBZ-1">
          <mxGeometry x="395" y="190" width="165" height="30" as="geometry" />
        </mxCell>
        <mxCell id="H_tuwT8JIxV88d4C66FG-1" value="" style="endArrow=classic;html=1;rounded=0;exitX=1;exitY=0.5;exitDx=0;exitDy=0;fillColor=#f0a30a;strokeColor=#BD7000;" edge="1" parent="j1-eY5sRp-LMkJEAcrBZ-1" source="H_tuwT8JIxV88d4C66FG-0">
          <mxGeometry width="50" height="50" relative="1" as="geometry">
            <mxPoint x="570" y="175" as="sourcePoint" />
            <mxPoint x="780" y="210" as="targetPoint" />
          </mxGeometry>
        </mxCell>
        <mxCell id="H_tuwT8JIxV88d4C66FG-2" value="Logging Microservice" style="rounded=1;whiteSpace=wrap;html=1;fillColor=#b0e3e6;strokeColor=#0e8088;" vertex="1" parent="j1-eY5sRp-LMkJEAcrBZ-1">
          <mxGeometry x="396.25" y="540" width="165" height="30" as="geometry" />
        </mxCell>
        <mxCell id="H_tuwT8JIxV88d4C66FG-3" value="" style="endArrow=classic;html=1;rounded=0;exitX=1;exitY=0.5;exitDx=0;exitDy=0;entryX=-0.01;entryY=0.837;entryDx=0;entryDy=0;entryPerimeter=0;fillColor=#f0a30a;strokeColor=#BD7000;" edge="1" parent="j1-eY5sRp-LMkJEAcrBZ-1" source="H_tuwT8JIxV88d4C66FG-2">
          <mxGeometry width="50" height="50" relative="1" as="geometry">
            <mxPoint x="571" y="515" as="sourcePoint" />
            <mxPoint x="799" y="264" as="targetPoint" />
          </mxGeometry>
        </mxCell>
        <mxCell id="H_tuwT8JIxV88d4C66FG-4" value="Logging Microservice" style="rounded=1;whiteSpace=wrap;html=1;fillColor=#b0e3e6;strokeColor=#0e8088;" vertex="1" parent="j1-eY5sRp-LMkJEAcrBZ-1">
          <mxGeometry x="395" y="410" width="165" height="30" as="geometry" />
        </mxCell>
        <mxCell id="H_tuwT8JIxV88d4C66FG-5" value="" style="endArrow=classic;html=1;rounded=0;exitX=1;exitY=0.5;exitDx=0;exitDy=0;fillColor=#f0a30a;strokeColor=#BD7000;" edge="1" parent="j1-eY5sRp-LMkJEAcrBZ-1" source="H_tuwT8JIxV88d4C66FG-4">
          <mxGeometry width="50" height="50" relative="1" as="geometry">
            <mxPoint x="570" y="395" as="sourcePoint" />
            <mxPoint x="780" y="250" as="targetPoint" />
          </mxGeometry>
        </mxCell>
      </root>
    </mxGraphModel>
  </diagram>
  <diagram name="Example4" id="f-TnL6140Ek3RXt7JrI2">
    <mxGraphModel dx="1002" dy="545" grid="1" gridSize="10" guides="1" tooltips="1" connect="1" arrows="1" fold="1" page="1" pageScale="1" pageWidth="1100" pageHeight="850" math="0" shadow="0">
      <root>
        <mxCell id="Snlr6LAyoKVYqT1IV_n2-0" />
        <mxCell id="Snlr6LAyoKVYqT1IV_n2-1" parent="Snlr6LAyoKVYqT1IV_n2-0" />
        <mxCell id="Snlr6LAyoKVYqT1IV_n2-2" value="ServiceBricks Security Web Application&lt;div&gt;&lt;br&gt;&lt;/div&gt;&lt;div&gt;&lt;br&gt;&lt;/div&gt;&lt;div&gt;&lt;br&gt;&lt;/div&gt;&lt;div&gt;&lt;br&gt;&lt;/div&gt;&lt;div&gt;&lt;br&gt;&lt;/div&gt;" style="rounded=1;whiteSpace=wrap;html=1;fillColor=#bac8d3;strokeColor=#23445d;" parent="Snlr6LAyoKVYqT1IV_n2-1" vertex="1">
          <mxGeometry x="358.75" y="470" width="237.5" height="110" as="geometry" />
        </mxCell>
        <mxCell id="Snlr6LAyoKVYqT1IV_n2-3" value="ServiceBricks Notification Web Application&lt;div&gt;&lt;br&gt;&lt;/div&gt;&lt;div&gt;&lt;br&gt;&lt;/div&gt;&lt;div&gt;&lt;br&gt;&lt;/div&gt;&lt;div&gt;&lt;br&gt;&lt;/div&gt;&lt;div&gt;&lt;br&gt;&lt;/div&gt;" style="rounded=1;whiteSpace=wrap;html=1;fillColor=#bac8d3;strokeColor=#23445d;" parent="Snlr6LAyoKVYqT1IV_n2-1" vertex="1">
          <mxGeometry x="360" y="350" width="237.5" height="110" as="geometry" />
        </mxCell>
        <mxCell id="Snlr6LAyoKVYqT1IV_n2-4" value="ServiceBricks Logging Web Application&lt;div&gt;&lt;br&gt;&lt;/div&gt;&lt;div&gt;&lt;br&gt;&lt;/div&gt;&lt;div&gt;&lt;br&gt;&lt;/div&gt;" style="rounded=1;whiteSpace=wrap;html=1;fillColor=#bac8d3;strokeColor=#23445d;" parent="Snlr6LAyoKVYqT1IV_n2-1" vertex="1">
          <mxGeometry x="358.75" y="250" width="237.5" height="90" as="geometry" />
        </mxCell>
        <mxCell id="Snlr6LAyoKVYqT1IV_n2-5" value="Example 4 -&amp;nbsp;&lt;span style=&quot;background-color: initial;&quot;&gt;Multiple Applications&amp;nbsp;&lt;/span&gt;&lt;span style=&quot;background-color: initial;&quot;&gt;Multiple Databases&lt;/span&gt;" style="text;html=1;align=center;verticalAlign=middle;whiteSpace=wrap;rounded=0;fontSize=20;" parent="Snlr6LAyoKVYqT1IV_n2-1" vertex="1">
          <mxGeometry x="260" y="70" width="500" height="45" as="geometry" />
        </mxCell>
        <mxCell id="Snlr6LAyoKVYqT1IV_n2-6" value="Client Web Application" style="rounded=1;whiteSpace=wrap;html=1;fillColor=#d5e8d4;strokeColor=#82b366;" parent="Snlr6LAyoKVYqT1IV_n2-1" vertex="1">
          <mxGeometry x="110" y="280" width="120" height="100" as="geometry" />
        </mxCell>
        <mxCell id="Snlr6LAyoKVYqT1IV_n2-7" value="ServiceBricks Cache Web Application&lt;div&gt;&lt;br&gt;&lt;/div&gt;&lt;div&gt;&lt;br&gt;&lt;/div&gt;&lt;div&gt;&lt;br&gt;&lt;/div&gt;&lt;div&gt;&lt;br&gt;&lt;/div&gt;&lt;div&gt;&lt;br&gt;&lt;/div&gt;" style="rounded=1;whiteSpace=wrap;html=1;fillColor=#bac8d3;strokeColor=#23445d;" parent="Snlr6LAyoKVYqT1IV_n2-1" vertex="1">
          <mxGeometry x="360" y="120" width="237.5" height="110" as="geometry" />
        </mxCell>
        <mxCell id="Snlr6LAyoKVYqT1IV_n2-8" value="&lt;div&gt;Cache&lt;/div&gt;Database" style="shape=datastore;whiteSpace=wrap;html=1;fillColor=#ffe6cc;strokeColor=#d79b00;" parent="Snlr6LAyoKVYqT1IV_n2-1" vertex="1">
          <mxGeometry x="790" y="140" width="100" height="60" as="geometry" />
        </mxCell>
        <mxCell id="Snlr6LAyoKVYqT1IV_n2-9" value="Cache Microservice" style="rounded=1;whiteSpace=wrap;html=1;fillColor=#b0e3e6;strokeColor=#0e8088;" parent="Snlr6LAyoKVYqT1IV_n2-1" vertex="1">
          <mxGeometry x="395" y="155" width="165" height="30" as="geometry" />
        </mxCell>
        <mxCell id="Snlr6LAyoKVYqT1IV_n2-10" value="Logging Microservice" style="rounded=1;whiteSpace=wrap;html=1;fillColor=#b0e3e6;strokeColor=#0e8088;" parent="Snlr6LAyoKVYqT1IV_n2-1" vertex="1">
          <mxGeometry x="395" y="290" width="165" height="30" as="geometry" />
        </mxCell>
        <mxCell id="Snlr6LAyoKVYqT1IV_n2-11" value="Notification Microservice" style="rounded=1;whiteSpace=wrap;html=1;fillColor=#b0e3e6;strokeColor=#0e8088;" parent="Snlr6LAyoKVYqT1IV_n2-1" vertex="1">
          <mxGeometry x="395" y="380" width="165" height="30" as="geometry" />
        </mxCell>
        <mxCell id="Snlr6LAyoKVYqT1IV_n2-12" value="Security Microservice" style="rounded=1;whiteSpace=wrap;html=1;fillColor=#b0e3e6;strokeColor=#0e8088;" parent="Snlr6LAyoKVYqT1IV_n2-1" vertex="1">
          <mxGeometry x="396.25" y="500" width="165" height="30" as="geometry" />
        </mxCell>
        <mxCell id="Snlr6LAyoKVYqT1IV_n2-13" value="" style="endArrow=classic;html=1;rounded=0;exitX=1;exitY=0.5;exitDx=0;exitDy=0;entryX=-0.005;entryY=0.546;entryDx=0;entryDy=0;entryPerimeter=0;fillColor=#bac8d3;strokeColor=#23445d;" parent="Snlr6LAyoKVYqT1IV_n2-1" source="Snlr6LAyoKVYqT1IV_n2-6" target="Snlr6LAyoKVYqT1IV_n2-7" edge="1">
          <mxGeometry width="50" height="50" relative="1" as="geometry">
            <mxPoint x="230" y="370" as="sourcePoint" />
            <mxPoint x="280" y="320" as="targetPoint" />
          </mxGeometry>
        </mxCell>
        <mxCell id="Snlr6LAyoKVYqT1IV_n2-14" value="" style="endArrow=classic;html=1;rounded=0;exitX=1;exitY=0.5;exitDx=0;exitDy=0;entryX=0;entryY=0.3;entryDx=0;entryDy=0;fillColor=#f0a30a;strokeColor=#BD7000;" parent="Snlr6LAyoKVYqT1IV_n2-1" source="Snlr6LAyoKVYqT1IV_n2-9" target="Snlr6LAyoKVYqT1IV_n2-8" edge="1">
          <mxGeometry width="50" height="50" relative="1" as="geometry">
            <mxPoint x="630" y="380" as="sourcePoint" />
            <mxPoint x="680" y="330" as="targetPoint" />
          </mxGeometry>
        </mxCell>
        <mxCell id="Snlr6LAyoKVYqT1IV_n2-15" value="" style="endArrow=classic;html=1;rounded=0;exitX=1;exitY=0.5;exitDx=0;exitDy=0;entryX=0;entryY=0.7;entryDx=0;entryDy=0;fillColor=#f0a30a;strokeColor=#BD7000;" parent="Snlr6LAyoKVYqT1IV_n2-1" source="Snlr6LAyoKVYqT1IV_n2-10" target="Vj0HZS8lFaHgZ3sXc-I7-0" edge="1">
          <mxGeometry width="50" height="50" relative="1" as="geometry">
            <mxPoint x="670" y="370" as="sourcePoint" />
            <mxPoint x="720" y="320" as="targetPoint" />
          </mxGeometry>
        </mxCell>
        <mxCell id="Snlr6LAyoKVYqT1IV_n2-16" value="" style="endArrow=classic;html=1;rounded=0;exitX=1;exitY=0.75;exitDx=0;exitDy=0;entryX=0;entryY=0.5;entryDx=0;entryDy=0;fillColor=#f0a30a;strokeColor=#BD7000;" parent="Snlr6LAyoKVYqT1IV_n2-1" source="Snlr6LAyoKVYqT1IV_n2-11" target="Vj0HZS8lFaHgZ3sXc-I7-1" edge="1">
          <mxGeometry width="50" height="50" relative="1" as="geometry">
            <mxPoint x="660" y="360" as="sourcePoint" />
            <mxPoint x="710" y="310" as="targetPoint" />
          </mxGeometry>
        </mxCell>
        <mxCell id="Snlr6LAyoKVYqT1IV_n2-17" value="" style="endArrow=classic;html=1;rounded=0;exitX=1;exitY=0.5;exitDx=0;exitDy=0;entryX=0;entryY=0.5;entryDx=0;entryDy=0;fillColor=#f0a30a;strokeColor=#BD7000;" parent="Snlr6LAyoKVYqT1IV_n2-1" source="Snlr6LAyoKVYqT1IV_n2-12" target="Vj0HZS8lFaHgZ3sXc-I7-2" edge="1">
          <mxGeometry width="50" height="50" relative="1" as="geometry">
            <mxPoint x="650" y="340" as="sourcePoint" />
            <mxPoint x="700" y="290" as="targetPoint" />
          </mxGeometry>
        </mxCell>
        <mxCell id="Snlr6LAyoKVYqT1IV_n2-18" value="" style="shape=image;verticalLabelPosition=bottom;labelBackgroundColor=default;verticalAlign=top;aspect=fixed;imageAspect=0;image=data:image/png,iVBORw0KGgoAAAANSUhEUgAAAfQAAADICAYAAAAeGRPoAAABhWlDQ1BJQ0MgcHJvZmlsZQAAKJF9kT1Iw0AcxV8/pCIVB0sRFclQnSyIijhKFYtgobQVWnUwufQLmjQkKS6OgmvBwY/FqoOLs64OroIg+AHi7OCk6CIl/i8ptIjx4Lgf7+497t4B3kaFKYZ/AlBUU0/FY0I2tyoEXuHHEMIYQVhkhpZIL2bgOr7u4eHrXZRnuZ/7c/TKeYMBHoF4jmm6SbxBPLNpapz3iUOsJMrE58TjOl2Q+JHrksNvnIs2e3lmSM+k5olDxEKxg6UOZiVdIZ4mjsiKSvnerMMy5y3OSqXGWvfkLwzm1ZU012kOI44lJJCEAAk1lFGBiSitKikGUrQfc/EP2v4kuSRylcHIsYAqFIi2H/wPfndrFKYmnaRgDOh6sayPUSCwCzTrlvV9bFnNE8D3DFypbX+1Acx+kl5va5EjoG8buLhua9IecLkDDDxpoi7ako+mt1AA3s/om3JA/y3Qs+b01trH6QOQoa6Wb4CDQ2CsSNnrLu/u7uzt3zOt/n4Amudyt8P7z4YAAAAGYktHRAAAAAAAAPlDu38AAAAJcEhZcwAALiMAAC4jAXilP3YAAAAHdElNRQfoBBsWKAuWf+3xAAAgAElEQVR42u2deZgUxfnHPz27yykKqPHWaFSixiPe8UQxImINoqLGixbaxCO/JN5Ro6LxQI0aNdGoDTbgGTxgCzyJwQM8MXiLRzyieCtyLuzu1O+PanTp7dnp2Z1zeT/PMw9sdU13V3VNffut430dBEGoOpRS2wGbAFsAm4bJg4C18jjN88Ab4f/fBd4E/qu1ni01LAjVhyNVIAgVL94/Bn4KKGBzYG+gBkgV4XIZoBn4AHgM0MBbWusP5EkIggi6IAj5i/j2wGGAB6wGdCnj7SwDvgN84F6t9UvyhARBBF0QhBiGDBniZDKZfsAxwEhg7Qq+3c+AMcDttbW1cx544AEjT1AQRNAFYWW3xHuGAn4MsFM7TvEFYIDZwAst0p8F3o7Jvzmwa4u/dwK2C/uCH7Xj+v8FbgH+prVeJE9UEETQBWFlFPKzgRPysMYXA68DTwAvAu85jvNSfX19pqP3k06nU8aY7cM+4XDsPP1WQI88rPZ/AZdord+SJywIIuiC0NmF/GfAqcCIBNmbga+B8cDDwIta6+9KeK+rATsCBwC7AbtgF+PlYixwrdb6NXnigiCCLgidTcjrgAuAPyXI/gFwA1CvtX63gsqwKZAGDgb2TPCVW4HrRdgFQQRdEDqLmJ8CjALWyGGNXwtMqq2tnVnpC82UUruHwn5qDqv9K+Bq4AaZYxcEEXRBqFYh3xH4G7BzG7+194GbgfFa60+rsIy1wInAacDGbWR9Hrhcaz1JWoYgiKALQrWIXO/Qcv0j2fePfxxa7RO01svadSE/2B7ojfUQB7A1dq47KTOBV8P/PwTMw3NfameZuwDHhmVaP0s2A9wJnKy1ni8tRRBE0AWhksV8d+Ca0CqPYwHwF+AqrfWSxD9UP+htrFvXY7Er0DelOHvVP8O6gX0CuL2348yZN3K4yaP83YFDgKuAdbJkmwccpLWeIS1GEETQBaGiCB3DjACuA3pmsU7HAOdprb9IKOK9jBXv44B9gdXLULT/ArOA8Q48YTx3QUJh7xHWxVHEb31bCPy9pqbmnEmTJoljGkEQQReEirDKVwP+CrhZsnwFHKG1fjzXuWr8oK4ZtsQO1+9L+5y9FIsvgAnABDz35YR1szXwd7Kviv8XcGgpt+MJggi6IAhxgtUbeBI7fx3HDcCZWuulbZ2nzg9SjTAUuAQbiKXSeRy4sQ4eaPTcTI466g6cAlxBfECZV4H+WutvpEUJggi6IJRDzAeE1me/mMOfAsO11o/l/BH6QR8DT2Mt82rjDQf2MJ77bYL62iK0yOPm1pcCByYZxRAEIZ6UVIEgtEvM9wEezCLmDzqOs0ESMQcw0K1KxRxgy/D+c6K1ftNxnA3CeovSFXgorFdBEETQBaFkYv4I8VvSLnMcR9XX1zdnPYEfbIEfnNwpK8cPTsYPtsh2uL6+vtlxHEX8eoMuwCMi6oIggi4IpRLzh4G61oY2x2utz2szWIof/AF4GetlrTNyMPByWM5sop7RWo8Djg/rrSV1wMMi6oIggi4IxRTzAVgHLFHL/FNga6110IaQb4If/Afr3rWuk1dVHXAtfvAf/GCTbJnC+to6rL+opf5QWN+CIIigC0LBxVxj53qjYr6b1vr1uO/V+kENfjAUeAsbd3xlYjvgLfxgaK0f1GQR9dex3u2iot4V0CLqgiCCLgiFFPO9gXqge+TQXGB3rfUHsT8uP+jSBD5w/0pglbdlrd/fBH63MeNSWUT9A2D3sD5b0j0U9TWlFQqCCLogdFTMe2M9nkW9nX0M7KW1fj/2i36wQQbeJLuzmZUNt8GYp/GDDbKI+vvAXmG9RkV9WvgcBEEQQReEdol5H+DfwLaRQx8B+2qt38si5htiHa9sIrW4Ar8AHg/rJ07U3wP2izm0DTBVqk8QRNAFob2cTfy89wit9TttiPk0bPAUoTWbAtPaEPU52NXvUXZTSo2W6hMEEXRByNc6PyQU9Dgx/1cWMd8A6wltsxyn/5IWzlUc+A47R1+N1If3v5wHw/K1xWbAv9oYfg+AEbTe0naqUmpXaZ2CEI+4fhWE1mK+BfASrT2gXa21PiOLmK+HDTn6kxyn/xoYEA1u0mfMOOdbY3YDpmBjnFc63wGD+zjOzG+j4VX9YNvwxSZXdLj3gL3x3E+yPIepwIGR5EXAOlrrBdJSBUEsdEHIxZgYMZ8KnJNFzNcBnkog5hlg37hIZd+OHG7w3BnAlVVSR6fguTO+jYuVbsu3b1jetvgJ8FRYf3EMwcZnb0lP4EZpooIggi4Iuazz07GLt6JW9W+01o1ZxHwmsHGC04/Fc19pK0NvxxkNLKnwanoVz72jzRy2nHckONfGwEzHD1qNSmitm4D+wOLIoWOUUsOktQrCitRKFQjC92K+HXBeJNkAv9Vaf5Lla9sC9ya8xM25MswbOdzgB8cDO1ZwVc1KmO8G4PMkGY211mfFiPocpdS52HjzLblFKaW11g3ScgXBInPogvCDoE8AjokkT9FaK6mdsj6XHtgpj/6RQ3/RWp8pNSQIFhlyFwQrGgfHiPm3wLFSO+VFa70YODV8Hi05Qyn1c6khQRBBF4TlYt4FuCLm0Ila63lSQxUh6rOBiTGHzpDaEQSLDLkLIuhKKVrvA79Pa31Y7Bf8QAMD23k5H8+NjYXe1Q9SS2EOsFEBivUU4OG577e47x9jt5NtUIDz393XcYZ/E7fK3V7rRsBr57lvwXN/G/OcugOv0no3wbZa61ekJQsi6IKwcor4+sBagAJ+A6wdybKL1vr5GKE6Ebipg5e/0YELjed+1eK824QW6OYFLOZteO6IFteYDuxdwPM/Apy1wsp9P+gHXBXWa3sxwH547uMxz+1YYHzMy8tzWN/5rwBva63nSysXRNAFoXMK+GrYiF6/CC3HVWkdcGU519fU1Pxh0qRJK1ifjh/0MTAD2KIAt7QA+BDrK/5wrBOWQu86mYHn7tFCbJ8O66CQNGG39f0T2Cd8IelSgPO+2c1xftYwcvgKe9nT6XSNMeaNHC8+84A3QuF/PJVKvTt58mQjvwKhsyPb1oTOLOI9gROAo7D7nddI8LUG4MKomIdm44UFEnOAXsDPwk+19yFrAf9X4PNu0WDMhdg6/576+vpmpdTVtL0FsDc2xvpuAJlM5n2l1D1AEPqKFwSx0AWhCkS8FugHnAsMCMUmHy7SWo9qleoHu2KHmFetouoohYVeTBY4sL7x3Pkxz/l1YMs8z5cBngf+DDwaOq4RBLHQBaGSSKfTKWPMYOByYKs8vrrc+9tkrJvRbPPj51aZmHcGehm7++CkmGOHAwdgR176AMOwu3Zq2jhfCtgVu6f9daXUzcDNWutlUtWCWOiCUBlW+aHYodmtE2Q3wDPAA8D7wNSc3sb8YHfg6Sqsmmq30AHmObBRnJUe0w42x3ruGwzsSbJ49K9iR2Xuk1+SIBa6IJRPyLcEzgKG58jaBNwPTK2trZ3wwAMP5LtA6hyp7bLR29iANSfmyqi1fht4G5g4dOhQp6mp6RfAUCBN9kV0WwP3KqVmY/0OPCdVLoiFLgilE/K+wJmhmLflHOlJ4G7g1vbOlzp+sLqBd6mOkKad0UJfbqVvajz36/Z8OVwZvxPWT/9BbWTNYFfrnyQOhYRqRDzFCdUm5nsBjwJ/bKP9TgH2SKVS/bXWN3Vk8ZOx8+a9pebLbqW3e/1CfX19s9b62VQqlQb6YlfIz8vSHx4JfKyU2lOqXag2ZMhdqCYx/w026la3eO3lIeAyrfUMqS0hSrgX/VvgRKXU2djwroNjsvYEHlVK3ai1Pl1qThBBF4TCCXkf4MbQeorjU+A0rfXd+ZzX8YMfhZbfr7Cro48OXwwex3NPlJqvUPzgH8C+2CnDO4Bm4C4HPjOeuzDJKbTW3wEHKaV2w25j2zeSpRtwmlJqV+AgrfW3UvGCCLogdFzMnyZ+z7EJLfZztNZLc50r5Qd1GevIZQBwmIGdiV9H8qbUfEWzDrBZ+P/ljmcuNvA5fvABNj79v1LwWsZzG3MI+0yl1EFY74F/obWXu92Ap5VS/bXWX0rVCyLogtA+Mf8FcEsWMf8EOEpr/WQCS3wVA5dk7L7lflKznZa1ws8uABmYgx/c5MCYtix3rfUS4Aal1MPAGOyWt5ZsiZ1XV1rrR6WahUpFFsUJlSrmvwSmE+8atd5xnA1zirkfbI8fTDAwF/i9iPlKRz/grwbm4geX4Qc75LDW33EcZx9aR94jtNx12C4FQQRdEBKK+X7Ag8QH+TjfcZyh9fX1mTaEfLswxOks4Bis3/Sk/A+Y9L11D18C91RpVT6d4+9q4Z7wOSxnUvicktIL60vgRfxAO37wo2wZwxXxQ8J2EyfqD4btUxAqDtmHLlSiZf4graeDDHCc1vr2NoR8XeBY4FLadgGajRnACDz37Zhz/wm7eKoa+ALYH899OaYc22K3/f2oSspyPp57SUw5NsfGdl+/HedsDM97RY62eAwwIeZQEzBIaz1NfrGCWOiCEN+BrgFcGyPmmQRiroDHgdHtFPO5gBsr5sCaqdSlwA1VUpUjYsUcCNNHhC9Ilc4NYb3HleNtbLjW9vgYqANG4wev4QdZo+eF7W1z4OPIodrQUl9DfrWCWOiC0FrM+2LnzKP+2JuB47XWcZYStX5Q02Q9xl1MxxZ5XoznXtjmj8UPehm7Ra5nBVfl7XjusTlz+cHzwE4VXI5FDqxjPHdBjnJcBZzRges0ARfUwpVNntucpW1uiB29iY4GvArsLVvahEpBVrkLZWfIkCFOJpO5IouYj8gm5mFvvF0osKM7eBt+rgzGcxfgByOp7BjmLybMdymwYwWX47WcYm65HhvDviP0DNvRrCyW+kdKqd8C97Hi6M/WwN1Dhgw5IHRaIwhioQsrvXU+Gjg7kpwB3LbEXBBK3E6PBQJaT1VeobX+o9SQUG5qpAqEMneSe2Cdw3SN6SSvkRoSKoW33377lX79+r2PjeDWkm379ev31Ntvv/2R1JJQTmTIXSinmK+KXQQX3VamHcf5U9Lz9B0zzmkuwP18N3J4m8Omq48Z5zQV8TrFPn9LVhszzinmdQpx/lrg6xxlKcR1aoBvEtQZgOM4dxljhgGqRXIv4Fql1ACt9Xz5ZQvlQobchXIK+kXABZHkuY7jbFhfX59Mo/3gd1j3n30KcEsj8dzblv/R9Z//Sy09fINMeJ2fYrdJrVOA69zby3GOWNBSRPxgy/D8axXg/HfjuUe1UWd3kt0vfj68AByP577R4tybArdRmDCtL3eBHZZ5bgagx93/7b74yE2WtLjW8VjPbh3lW+AiPPf6JJnDcKwfAetGDl2stb5QftmCCLqwson5TsATQPfIoS211m/GiNCGwDTgaDz3BQDHD9Yy8A75OY5piybgT8B4PPfTFtfeGxtXfe0CVsE/8NyTAFJ+0CVjV0xvXsDz3wmcjed+3KIcGwFjaR2IpCO8iOfu1OIaNwO/LuD5Pwmf+RMtrrEOcBEwksJtvV3gwGbGcz8Pr/Er7M6J/fDcD2Pa7xbAG5HkJdhV7y/IL1woBzLkLpSLa2LE/Nw4Me/iB6llMBEbkKNfaBliYPUCivny38NoYBR+MB0rssdinbAU2mfDT5b/J2PLsXmBz38UcCh+8DTwEnB4+ELStcDX2cjxg14tVqRvXODzrwc8jh98gXXysjXQn/gQuh2hV9iePg//PgjYFLiiix8ctXyUYDla6zeVUucCl7VI7h62a4mlLpQFcSwjlMM6H0TrIdmvgKvj8i+Df2Ajo5WKbthALmeGIlitv5Ou2MhyZwIbFUHMAdY0sEoJ+qm1w3IcUAQxb8vYOSJsf3FcHbbbluwetm9BEEEXVgrOZ8XpHgMcrbVe1iqnHwwBhkuVCWVkOH6wfzQxbK9Hs6LXPSds34Iggi50eut8f2DXSPLTcWEpwyAatxEfpEUQSkUX4G+OH/SNEfVHaR30ZtewnQuCCLrQqbmY1osxL4vLaGws9D5SZUIFsJmx3vXiiLZfJ2zngiCCLnRa63wfYJdI8pNa64dbZfaDzQCZixQqiRFhu4xa6Q8DT0aSdwnbuyCIoAudkiEJrJvl3I0MtQuVRReyxwy4LGF7FwQRdKHqrfNa4Pcx1vkjMdb5UcD2UmtCJTZl/KBfjJX+SIyV/vuw3QuCCLrQqTg9Ju3OPPIKQiVQh/VMSML2PEKqTBBBFzoN6XQ6Revhx7lYRyFR63xLbChLQahUjsAPtopJnxC26xWav1SXIIIudBqMMT2BX0SSH9NaL47J/ltpl0IV9Jut5sfD9vxYJHk/pVRPqTJBBF3oLBwSk3Z7q8boB12wLkoFodI5bZX4SG/Rdt0VOEyqSxBBFzoLwyJ/fwI8Fc2UsX7TV5fqEqqA1RcaMzAm/dmYtN2kugQRdKHqUUp1A6LzjW9orZfGZN8hx+neBt5r8fc8YHaVVs205f9xbJSuu6q0HDelbPjRVuWqMmaH7Wk592Aj+bVFq/lxrfVCWg+7y44NQQRd6BSsBvw4kjY5mqnGD2qxEa6ycRue2w/Pfeb7FM+di+f+HDiniurjQ2AzPPfK5QnGc+eF8ctPqaJyfAociOeenPHchhbP5EpsVLwPq6gs5+C5P8dz57Yox/3AfsC4Nr63Qxc/iOtD/xP5e0el1FrSFQgi6EK1s3tM2oxoQjNsgP3E8Qaem337j+eOBu6vgrrIAAPw3HezlONGsjvaqTT+jOc+lKUc72KnT6qBv4ftJ64cHwHnAu9m+e7OTVATk/5MTNp60hUIIuhCtbNlTNrrMWmD2xSP3FxZBXVxFZ77Xo4f5EXA1xVejll9Hecfbebw3KewvvgrGifX6I612s9v4w1tZEzy1Ji0A6UrEIqNeDESik10T/lUrXVjTL5tiZ+zdICXc12kBmY1w/QKt4Qm5zThPXcZfjAWOLiCy/H4NyOHmwT57gYq2Z/5zNUcZ+G83PleDq30uDIvatVgHafZGPNG5GW2l3QFQgleUAWheCil3sbOqS7nPq21bOMROnu7vxc4tEXSu1rrzaRmhGIiQ+5CqXlPqkBYCWiK/G2kSoRiI0PuQjGtlFWB3pHkN2LfLK1TmaydXsZzG9u6Vo0f1JoCjDhlu06hzl8HzUs9N1PsctRC87KY63Txg1SWhVwFOf9yuvpBqrEA13HANHtuU6nPH2mbdW2dIuO5y2LSHwSOkF5AEAtd6Cz8CFgzZ6fqB6tmYGkGlmX5LMEPvo+N3uOf/3O6/vN/P7RdP9i+GT5v4/uJP/jBda08gPnBjs3wZSHOvxT+bwWB/+f/vn+prvODmmZ4oRDXWQaz8IOtI+XYehnMKtD5p9T5QU1cOdYcO95ZCncX4jrN8CV+sGPLYqwyZpyzFO4t0Pk/xw+2jytHWGeDMrCkjXMsdfxg1fh3hRVYVym1tnQJggi6sLJTA2j84CSAxYdvYJYevkEm7HAPxjoz6Vuga/1uoTHntXjZ6AFMihlpaC/X4geX4QcbAzQevkFTWI79G2EmhQtMsx1wdiTt7AKef1AjTMYPNouUY+MvM5l7aO0dsL30BiaFzwGA8PkMLdD5+wLTwnb0QzlsWUYBmgKMBAA9gVXkpywUExlyF8qOSbYyvQa4ET+4DrgVu6d7eNhJFnpx504t7m0tCrty3sFulTobP/CBRqwnsV2LUI4f5/i7owwGDsAPngdeArbBujmtKfB11gufw/vR51Mg+gD34wcLsY5kUsAJ2FCpgiCCLgh5cFAeeeuAkztBmVPArzvJ6MkvaB1Nr9pwsFvLfis/R6GaOxVBKDfzpQoEQRBE0IXqN43ulFoQBEEQQRc6haYLgiAIIuiCIAiVzSfAx1INggi6UK18Gn4EobPyOXanQpQdI38v1lo3SHUJIuhCVaK1XgQsjCSraD4HlgBvSY0JVcgbxnOXxKSvI1UjiKALnY2c8+Ohu1Wx5IXORNSNsbRvQQRdqHqiK9i3SafTcY5HXpOqEqoQHU1QStXR2pPdY1JVggi6UO1E5xc3M8bEtbsXpaqEKuSZmLTVaO0t7zupKkEEXah2/hmTdkRMQ7xbqkqoMpalrMvbnO07y+9AEETQhapiXkzaDtGEbo7TCDwh1SVUEVOzhE7dO/L3F8AiqS5BBF2oarTWXwAvRJK3juZbPHK4Id7aKTVN2FjWADjWLe0ztBGrvUIxwORI2uQqLcczzorugR8Mn1O5eTaaEM6fbxNJ/kBrvVB6A0EEXegMzIz8PUAp1Ssm36Qy3+dbwI/x3Ju/VxPP/RrP3Q04qYrq+31gTzz3qhVS7d978kPUsmrgJDx3N+O5X7cox83YyHHl3uoYN4y+DdAvkjZRugBBBF3oLDwVk9Yq0tiaqdRTwIwy3WMjMADP/ST2qBWRK6rEoh2O587IUo4ZwJ+qxFK/ouXLVaQcnwADiHfqUpKX1DVTqQ9j0vvHpE2XLkAQQRc6Cw/Sei79sGimL0ccZ4D6Mt3jKDx3bo4fywVVUNcz8dyn2szhuXfSetSk0vgiBefnKMdcYFSZ7u/6sL1+j1KqC+BF8r0NvCxdgFAKJB66UHS01kuUUtMiIr6rUmoNrfVXkQZ5dRMcQuttP8VmSq4MGc9dhh9cTetFT5WEnzDfQ0DXCi7HtNDhUJLnNrTE99ZcC/fGTOJvBvw0Ws9a60bpBYRSIFGuhJKglDoWGB9JvkhrPUpqR+gkbfwK4KxI8q5a6+ekdoRSIEPuQmneHB3nDmBOJPnYdDotbVDoDGLem9bD7XMcxxGHSULJkCF3oSTU19dnlFL1wJktkjcxxihab6+izg9qmqBHiyRjPDd264/jBz3o+BB9q/OvOvFjZ/6w9U2L63QvxG/GeO6C2LdrP6gz0K0Ab+lLmj0367auGj+ozUD3Dr+kQUPcsHiNH9RlClAOoKll4JO+9/zX+eaITUzk2a9CB0caHViaZT959PxZ22Ao5n0jaf+or69vll+/IBa60Bn5KxDt4GIXPjVBDwP/MzA//CzAD25tldEPLjXwZYt87f0swA+ObHnqxcbUthDbrgZmF+A68/GD8TV+UBspx64ZeL0Q52+GqbV+EPuCU+sHNc0wtRDXycDr+MHO0ZeFZnioEOc3MDvlB9/P8y81dInU2ZEGFhSgHG/iB/1bnrqrH6Twg1sj5/9vFut8DVovmGxGvMMJIuhCZ0VrPReYEEneQSl1aBYr9tRI8kj8YK8WHfr6YZ4eBbrFu/CDc7uNGZcCaDp8g8bwOjtmrK/5zQt0nWOb4dKI5X8PdlFVIdi/CabiB1tFBHCrJpgK7F+g62wGnBdRsTHY7WSFYPMMvIgf7Aiw6MhNlgJ0GzMuhR9cB9xVoOtsAjwYtif78gBH03oI/egs3z8KiPpVuCxs74JQMmTIXSg1NwPHRV4m/6SUeiK64h3PvQ0/OI4f9vY6wIYtcqxKAYaOI1zaYMyl+MGE0MraLvwUmp9///ICvSPlKgQDgYH4wV1Wn9iaGJe7BWBPxw9WM567PPhIoeOA/wx4AT+YDcwGahqMObYI5egetqflDI4cn4DnPhZjna8OXB5jnfvyUxfEQhc6u5X+LK0dzWyXzfpx4HBgcRlu9VjALZKYl5JfheXYoUjn72MKN0LSFtuF5Ti2RPXWcl5+rgOnZMn3R1qX/1Kt9UfyaxdE0IWVgRFAdBHSaKXUltGMxnO/DK0l8YUtlINFwNFxCxmVUrvRelpoGXbaQRBE0IWVwkr/L3BtJLkbMDb2C547Hfib1JxQBk4L219UzFcF/k7r3RV/EOtcEEEXVjauB76KpO2ilDozi6ifE/MSIAjF5Fo895Ysx86n9XTMx2KdCyLowspopc/FzktGg4Sco5TaOYuon+ZYl6WCUGzOwXNPizsQts8zIskGOFRrvUyqThBBF1ZGUf8noCPJfYDxSqlYP+MrhNEUhGLhudn2nO8IPBxz6O9a6+el4gQRdGFl5jjgm0haP2CaUqqbVI9QKYTt8ZrwpbMlj8dY7IIggi6sdFb6d8ABMYf2AO6VGhIqRMx7AI8Ae0YOfQWcrrVeKrUkiKALIupav0DrKFUAg5VSp2X9oue+AZyI3VokCO1lMbDvqo7zZhYx7wk8COwVc/hErfVsqUJBBF0QfhD1q4CrYg79RSl1ehuifjPWK9p/pBaFdjDbgfXx3H/PHzncZBHzKcDeMd89S2t9n1ShIIIuCK25EJgRSXOAq5RSp4eda5yoz3DsEP0lwAKpRiEBC4FLHNjdeO63WSzzHljf9/1jDl8SvoQKggi6IMRY6UtCa/vpGFH/C/BgtoVyxnMX47nnYwOPTJfaFNrg3w5siueebzx3cRYx74bdIhlnmT8NXCHVKIigC0Lbor4IODBG1MHOYT6ilMrul9xzn8Vz9wlfDJ6k9T73SmApcF+Lt5VFwL9oHVq20skANzgrrmG4LyxfpWHC9jAQz93XeO7n2TIqpXYC3iR+zvxp4ECttbgiFioOR6pAqESUUr2wC5H2iDn8DTAo0b5fP/glNsDLiAp5gX3DgQHGcz+LudfDgbur5HdpgCPx3FYxvx0/WNvYF5QtK+SlYyzwz7hoaTHt7kisS9e+bYi5TOsIIuiCkKeor4J14rF7lixXA6MSWUt+8BMgDRyM3XpUjrbfBGyI537axn2eS4tY6RXMEXFi3qIc2wMvlOklymAj+k0C6vHc9xK2tVuBI7Nk+TNwpVjmggi6IHRM2M8GRmc5/DJwktb6mcQn9IMNgH2BQcC2wE9LVJTz8NzL2srQY8w4Z7ExH1D4+OiFZOYaKWePr0YMNznq+VHglyW6p7fCtvAQ8Die+7882tdRwC1AzyxZ/qi1ljlzQQRdEAok6ocB/wBWjzmcwc7dnq+1npPPeev8oKYZUhnYBtg1TF6nxf8LyZl4bu7tdX5wdgmFsD08hudekaAchwInFeH6zwLLRzmeTcErNZBp9NzmPNtUv9DyHpYlyzfAQK31i/ILFETQBTGZ/hQAACAASURBVKGwov5z7DD7PlmyNAI3ARdrrcXnu5CtHW2G9XlwIFCXJdu/gYO01oulxgQRdEEoTmfcFetP++Q2ss0PO+QztdbvSK0JESEfBHTJkm0e1h/CLVrrBqk1QQRdEIrfOe+KdSQzoI1sjcDr2NjVT8jq5JWynayCdQ98NLBVGxZ5MzANOFVr/abUnCCCLgil7ay7AUcAFwEb5cj+JTYq1izgZqBBYld3yjbRBegG/AbYAbv4cc0cX/sQu/DtbqlBQQRdEMpIOp1OGWNOwIaw3DTh194BXg1FfjbwPIDjOM319fUZqdWqEO/l1vbOwHaheG8NbJbwFO8Cf3Ec51Z55oIIuiBUXif/f8Ap2Jjq7eF54GOpyYrHAIe287tzgL9rrW+QahRE0AWh8oV9J+A0rCOZblIjKz0NWEcz14ThegVBBF0QqkzYa7H7jA8G9iPepafQOfkGu9BtEjBRa90kVSKIoAtC5xD37livcAOAw4BeVIa/caEwvIENn3sv1pf8W2EEP0EQQReEzkw6na41xiz3PJcG1gr/vwHZndcI5ecd4JkWfdh4oMFxnK/r6+vFChcEQRAEQRAEQRAEQRAEQRAEQRAEQRAEQRAEQRAEQRAEQRAEQRAEQRAEQRAEQRAEQRAEQRAEQRAEQRAEQRAEQRAEQRAEQRAEQRAEQRAEQRAEQRAEQRAEQRAEQRAEQRAEQRAEQRAEQRAEQRAEQRAEQRAEQRAEQRAEQRAEQeisOB09QY0f1GWgr4EjgV5Zss1zYCJgjOd+0aEb9oMebVynqHVVA182eW5zlvtaBehZqIsZz/28g/XUB+gSSW42nvtVySvOD1YFuicpY50f1DTBmoBpkbzUeO68It7fWgZ2A7YK29YhkeuPD//90oFJwCLjuQs7cL01gJoytOFlxnO/LfRJlVK9ga4FPm1Ga/1lhd/jIq31wgLe42pAt5z9UE3N55MmTTIFfobdgdUAL0xaHRjc8nkAE0LNcIDbgAat9VftvF4voEeObE1a6687WK68+mWtdd797qhRo1IvvfTSz4wxOzuOs7Mx5mdAX6A30Cesu4XAAmA+8L4x5m3Hcd4GXl9nnXVm3XLLLY2FeI617f6mH2wLHNtsH/pPcwoU3AAY/OB5YKIDtxjPXZC30MGJwNXlePtpgs2Ad7Pc17nAOQW7mB+82OKlayIwMwXPZTx3WcJ6ugQ4uVUR/OCneO57paw3Aw8Dv4gkvwDsHM3bCOsBH0aSH4x0Lh1ilTHjnEXG9DEwGvi5gR1zfOXPLcryD+Az/GAacEcNTGv23KY86+MlYIMyNOEngP5FOO84IF3on5tSanb4//eAWcDNWuv57f1FAYcW+B4/U0p9HP7/aeAp4CGt9ZJ2nu8fWMOoTZqbm7sDDQUQ8S7h7/JYYP8EbfKSFv+/GFimlHoOuBf4h9Z6WR6Xvxj4Q448rwM/60D51g2fy8YJvxLbJ2VjyJAhGzQ3N4+YNWvW8cBGAMZkfc/qBqwR/n9bx/nBlv70008XK6WecRzniebm5gemTp36WskEPeUHXTIwBjimnSMCuwC7GPgLfnAncA2eOyu//rAiyRT4fC1FZofwAh/gB7cA4/DcuTm+f2WMoNeGb+DnlKxW/GBvYNeYI1eUpW79YNeFxpwPHNiBs6wdtv9jmuEV/ODhGjgvD2Fv7iRttJjnrW3xG9gROAK4Uik1EbiqpqbmxTyt1GLc49rhZ/k9/gH4Vik1DfhLTU3NCxVwj61Ip9MpY8wZYf+wUQdO1QXYM/ycpZR62HGcE+vr65P8DkwJ6mNaHmL+HHBAkoxDhw5dvampaXQmkxnhOE6qAI+kBzDAGDMglUpdnE6nZwO319fXX5Ov3uV3M34wNANz2ynmcRwFvIgfXBUOWQtt82PgMuAJ/OCMNluI43wEzIw5dIrjB6uX8J4PovXUziIH/l3SmvODdfCD0cD0Dop5lG2As5ptO05LEy06w4Dnm5ub7w2HqCuNPuE9Ptfc3HydUqpvJd2cUmp3Y8yc8IV6owKeej1gpDHmA6XUKKVUbZnLORbYIg/L/ACtdc5pvYMOOuj4pqamOaFhlCrGvRtjtjPG/KV///55T8slvyE/OBO4Hzu3UmjOMHYYcxfprxKxKXAVfnB7tgyLRw432GmA6BteL5NgWK8Q9BgzzgHiXjzONp77TQnF/OfAY8DZFH4edTnbApPxg1HhOg+huBwCTFNK9ange/w/4DGl1NblvpEhQ4Y4SqnLsNMCmxbxUusBFwJTlVL9yijmxyfMvhgYkkvMhw0bVpNOp29xHGdskTSwICR7i/KDrYHzshxdGA5tTK6BO0zrMZNfAFtj52j2I/tCiJ7ATPzg93ju3/Isx0LgWQqwyK8NnPDh58PrwGcduOaAHMePxg9Y1XGOnW8FfEU89wn8YG74I2vJscDfi924FhtzZkzyUuyceKnEfBCgaXsR2leh4M90YIITec4Z2CRsuz8DBuWwbC400N/xg8HGcxflcaf/KkFtzO5kor4j8IhS6gCt9TcVeo/bA7OUUj/XWr9eJoHbOJPJjKU46yeysT8wQym1dynLnaeYLwQGa60/zdX3NzQ0jMeOKFc0OQXd8YPuxnZ2ccNbDzpwlPHc7yDrxOCT4efvjh/0MHAYdpHRhjF5Pw4733x5D8/9ZQXW72g89/Z2v0H4QS8De4UNaQCwVpyozzfmO+CULKe5FvhLJG1n/GAfPLdow97dx4xzlhgTt5DtQTz3/RKJ+YHA5DbEfA5wpgPTjOcuIRzOMPH55sD3a0hOAs4C1s1y3r0NTHH8QCVdDV8LA7PtoBDaZCfgTEq5LiR/6oDxSqlflvrFQym1Udj/rl+Gcq8OPKWU2ktr/VoxLzRkyBAnk8n47RDzJ3NlPOigg86rBjGHBEPu4fBsnJBciOcOXi7mSTCeuxjPHe/YVfHnYpfwL6cZOBXP/VD6qO/rawGeOxXPPdqBnwB3Zsl6An4wIMsDvh5ojBltOLqY977EmN2wLyNRxpVIzAdjt5jFvbR+C4xMwTZ4rl4u5knIeO4yPPc6x+54+HUbozZbGrt1RSg+Zymlflbh97g9cMHQoUOdUl0w3Ko3o0xi3tJonF/si2QymdOBEQmzL04q5oMHD97CcZwLquWHkGQOPW4B3J147sUdEKoleO7lwN7h2yPAFXju/dI3Za2zRTUwPMvzqAMu6eoHqRgBasTuGY1yPH7w0yLecpzF9FoNTC12XYWL/m4O6yXKp8D2eO7YpFsA23g5vRU7H/litNqBNJ77kbTckvVjB1fBff6+qalph1JcKJ1O1wI30Xq6rZQ0A6dorYv6O1BKDWbFLXVt2hrYBXBPJmpYqdSoLP1INr4yxlznOM4gYKMFCxZ032GHHWq6devWC9gok8nsBZziOM54OjYdm/XtqS0rZ0Ng95iHdGlBru65sx0/GGTgtzVwrYw35vh1eG5TjR/cE+79/1Xk8K5L7TTGBzFfHY19Gega6QSHAG8VQVD7mPj5unH57tnOl75jxjnfGDMlS0c2F9gDz/2gYBf03E8dP9jfwGn8sM7kFDz3OWmxK/AWMCXp+1L44roWyRfuFsJCfwc7RZPk/oZj1/3k60zqiJgXwMIbAMYcRfsWvy4EbsH6SpgTObY7dtRtEDGOomJeao/XWk8ospgfCNxHssWuS4H9tdZPJzn3wIED+2IXXybF79at26kTJ05cYZpt+vTpy+t1IfARdmHijYCjlNrFcZzhxpijKYDDtFxz6JvHVFQznvtGAS3PxcCVIubJRd3xgxGmtaATdjIXxYjO+/jBLKw3tBUshtXGjLvyu7gFdR15ptb5T7Sj+8KBG4vtROAbY04ift/7x0D/Yszfh97XzscPvgDm47njpKW24mWt9Zl55D9LKbUncDfZ1yqsIJTpdPqo+vr6juxdfjWPezwr3Jp1Anb3RNItYIOVUudorYv2YquUWg87QpUPywAvhwC/CFwXDuUfF1rF2URoQgnEfBDwAK09YmYT8wFa6xlJz19XV/dLkvtquU9rfUK+XYfW+lng2WHDhv2xoaHhpLAt9e7IUFW+PCZ9U3kxnttA/Erxn7TxtdExaet8Z8w+BbbOu2MXjUW5PXx5KxqOH/RuY/Rov6J7yPPcG0TMC4fW+inglxV8f01a65tSqdTG2C29SdgioQB1hDHkdiHbkknAekkFWGs9T2t9PbAOEMRkqXccZ2SRxfwAoD5hXTYA++Uj5gCO42yXNG8mk7muI+WZOHHid1rr0cuWLftJljotmqD/UrqayuhPYtL2aENsNHb+OMopBbbOhxDvQvL2YleIgcOzvN1ehOfOkSZTlaL+BvBQJd/j5MmTDfBH7HBqEn5TRKHbDrvFMilXa62Htscnu9Z6kdb6eOx001ctxHxofX19cxHLuBZ2aiSp9XxY0mH2iKCvm0fegiz8e+SRR77RWh+vtXamT5+e9yhOewQ9FQaXEMpsqLfjO3HW6yH4wcYFvK9jY8Xcc/9Tgjq5PCbt09oWvtiFqqS+Cl483sHO5ZabA0ke+GeG1vqMApT9WmAg1pfCWR2c9kgi5o/lMcpxtda6XQtxjTGJnVClUqn9KqEd5hL0+bTeXl5rChgoQygdjrWS497Ezy7IBfxgM+Ldqk4ueuH8YHes280oN8j+7qoniQvPlxzHKXech2cqoK6SbrGai3XLXKgXmpe01vtprYs2EqaUWhPrxCyp572rU6nUme29Xj5WtzHmgsGDB+9Z2YLuuc9jl/lHuSnsQIXyEef7vk0rOPQZ8HjMoQNSflCIeb1fx6S93s1xSrEdMU1rT4HNKbhGmkr1opRag2QGxAvh0PfKXFeHkdy18RVJfJdXUNlWx8ZhSLqb4epUKnVmR9qEMSafUN+rplKp6Uqpe4YMGbLfsGHDyhEeOdEcxG1Yn8Qt6Q48gh8MWd1xHv+6wKukhRwtZ8w4Z74xcZbwywm+fh52rrklG2XAxW5Xaa+FvA6to7sB3NAwcngpoki5MWn3ZDx3qbSYqhWovthRpZ/kyJrBhmde2UlquX6EDdVaTe3gaRKE6Q65phBTCbkMpCwG8uGZTObwhoaGeel0+t/GmKdSqdTMtdZa66VCxTzvqKBfAYyktQ/2nsC0r42Zhh/8OQXPdsRRh5Cc+cbsCuwbc+jVXN+tgQ+arfBvGzl0RJ8x4279tv0vZ7+MaSPLHLi32G97Xf0gtTTeNXG9tJaKoVYplXSf7S7YPc+/JtmWtYnl8pMeYa+E+YrVsScVPD/P2OXl5m95lO1arfXphbhoXV3dzMbGxgztW2vW2xgzFBiayWT49NNPlyilXgCmZzKZaT169Jg5ceLEgk8F5r5Rz/2EuL3NP7Af8EQG5uAHN+IHe6f8oA6hKISRvK6NOfS1Ez+cvgKhY5e4OfN9vzVmnQ7c2rkxaRcZz/262HWyFBSthxobE45YCKXhUOyanCSfx4BRCcX8BeJHhkptRW4ZljEJYwp9/XQ6XUPy4CtPV0ujUUpdS7zPjTiu01qfVqhr33///Z9i5+wLQffwhe+CVCr1ZENDw2dKqVvT6XRBp66TLfv33CvxAwNc2UauH2P3H5+UAfCD+4FXgI9ScFfG7p0uFn3xg+EUJ9ras3juW5XQuB0/WMXYBhYXZvaupH71UzA9Y90Orh05dBnxQ9c53veDbWk9LNpM6aKqxQ0CLKuU55aEJhiOHxRjaiKD547vpC8JLwIDtdbflvMm0ul0jTHmKuy+7FzMJWscq451D8CPEuadUSXPd2uSTyMAFDzwjTHmSsdx9i9C2dYAPGOMl06nZxtjLtFad3iXRPIg9J57FX5ADlFvySHhhwyMxQ/uxYZv1HjuKwWunA3owGb8HPyWIrhHbYdobmnAzyLmb6fg9KRqkPHcpfjBeGzEsBWemeMHZxvP/TzPu/t1TFuahud2tnCdxWRMkc7bBHRGQb8fGKG1/q5cN6CU6gocbIz5a8zLcTYeLvNw96e2S+6UXKiUmq21LthU25QpU/6llLoH67K3ONaIMdsB9yqlngRcrXW7vVnW5pXbivo04FTi9xu3xWHh52L84HXgGjw3QMgl5PtiHVEcRvwUydfAUfmuX0jBBZnWgt7L2CmUO/IYNVjTWPeXUa6UhycUkc+x0ewKKejbKaX+ljDvjtgIavlOL15X5np7rphuZ8tMCrhSKfWi1npuoU66dOnSkd26ddvUGFPswDp7AbOGDBly+OTJk9s11F+b9zesg5Dj8IOrsd6R9iX5UM/ySt8auA0/OBO4rA7ubuyce4V/FQ5Ht4dB2GArbS0k+gbYH899Kd+Th1b6OKz/95aMzkfQjZ1miXZq7/V0nH8vEtERisdJwEil1B3A77XWCwpwzk0osOfECLdprV+RR1dU+gETgAGFOuGjjz66aODAgft36dLlLmD/It9/n0wmUz948OCBU6dOfao9bzTtw3NfxnN/5djwkQqYCOTrK3tL4PZGqMcPNuiEjetA4Ix2frbKIebTsf7JX+rA/V1D6/nndfP0MRC3EOjCRbKVsVJwOnHZugDHAw8rpXap8HudRwUs3gO2DBfQdWb2VUoV1P/EI4888s0OO+wwyHGcs4EFRb7/7qlU6u5hw4atVnwLPWqhee4CbFjEKWHoyk2BfbDz2iOx24l6JBC+mfjBbnju/9pxG2+FLxUF77wc+KLClOkT4AwH6jsc7MRzX8EPXmHFLWwp4CiSLJzxg8OAbSKpCx34l6h53vyU4sxtrgyPYjfgMaXU/mH0qkpjATbSV0MF3MvmxpgairMwr5I4SSn1iNb6kUKdcNSoURngynQ6Pc4Yc3b4Mtm7SPe/7tKlS8+j9bRocQW9Jd9Yq+yd8AM2pOT62D3KO4UCn80j2frADPzgF+FWuXxYiue+W4xarYDesAkbLeg24N4UPJfx3KUFvK+rab1oysMPRid4uRoSkzbWeO5nFfCDrsMPNsJzP6yG3qcW3u3kLmqbiPc62RY9ST6K2AsYm06nty5mYJB2sBDYW2v9nwq6p22x2/2qkddI5i2uG3CbUmrLQnvEq6+v/xw4TSn1J8dxhhljDsOuPepWyOsYY0b079//gunTpzfk0Y8UGc/9OBSj2/CD0cAB2H3Qm8Tk3gC7berSTtKJNedpddXGjDJ8l4J1ly96yxT++UzAD26JNMblQ5kXt2Gd/xw4JubItWWo5/+GdV0TKcOWwIcIlcC9Wutf5fOFcBh9O6xnw/4JxH2L0JnHvRVQXgM8AYzUWv+32BdzHKfZGPMEsHeC7L+qUkF/WWu9nVJKk8wP/TrAVKyTooKjtV4MjAPGKaV6OI6zO7CXMWb30IBdpYOXWH2VVVbZHRv0pkIEfUXx+Ai4BT94FLgEODom14X4QdAOK70SGY7nJl5ghh+MDYV0hYeagUdTfrB/ET3xnQ9cFUk7uk1Bt8PyUabiuR+UvJY99zX8oJHWUabSVHjozZWIvKfDtNbPAc8BNyulDsZuVct1nt9WgKC/CIxqb5Sv9jB58mSjlEq63XSQUupsrXVjFbWfV/lhQZqHdV+bJP7EbkqpqwvlPS6HuD8Wfhg2bFjNkiVLfpZKpfobY/YJDdmuef9oHGenfAQ9VZZH47kf4LnHAHfGHK0L38pXuk7MsT7z4+YA987AiUW8yQnYYf2WbI4fDI3N7wfdid+2eHkZ6zrOD/1I0dHOgdZ6UmgE5GJvpdRqZbzVlx3H2bWUYt6CKQnz/RS7i6ZaeA27BuGLsC18jp3uS/pCcrJSqqSR0CZOnNg8ZcqUl+vr66/TWh9cU1OztuM455LntJPjOBvlkz9V1sfkuUfzw3x7S9TK2GkZz12E3eMfF7bvOvxgpyJd93PsqvkoJ8Tmt8Ofa0WSP3LgpTJW3+zYl0M/OBGhs5B0mHi9dp7/i9Aaivu8mfAc2xpjxpbFenCcO0i+7OcqpVQ1uOh+A+ivtf4y8oL3MMkdJnUDrlFK9SlXISZNmjSvvr7+8lQqtSPwZdLvZTKZvBbdpSrggU3tqGXbqfDcZ4HfZTn6sOMHPyrSlc/CLlxqySD8YMeWCTV+UEu805iLjOcuKWPNPQrERVb7rejgSkd743w/Hcb0bvXBjhomjUtwjFLqwFIXur6+PoONTpeEzYkfIW0XSqk1lVI3KaX2KWCRPgf21FrH1ntNTc0JJAhIFbIj8PdyN8zJkye/YYxJGrMex3Hy0sJKEHQt/c+KrOE447M0vr4Gbkv5QdeCX9RzX8UuLotySMs/mq3P9ugq0wYH7irzi9An2BX7UbbCDzxpVZ2CnmXrpKy71hF59Ku3KKV6l+FW787DSh+qlDq+EGKO3eZ6IvCQUmrfApXlC631N21YvSbsn5J6vvuVUur0PMo1L51OTxw4cGDfQj4gY0w+wXHyWqFfCYLegLACX40cbhz4E/FD2AdmrO/0YnBeTNrvQqt8OXE7EG4ts3W+nGxDjtc7frCatKyqJ2lnXJQRvtBHeFKf++tRhhjtWusHiV+HE2vkAr5S6nilVJd8r5VOp2uUUodg/YBsFiZ3BaYopQaUqLzvEr9ANxsX5OOEyBhzWJcuXV5Pp9MFC/5VU1OzZh4W+juFFXQ/WA8/GN1zzLhiDYMPQGjdkDx3HnZRV9zK9uvwg70Kfc2UjR8e3Xves9luG8Lxg95Yp0FRLq+ISvPcN4DrY450N/C44werFPX6fnAkfvC44wdrSAsuHEqpHkqpG7DDpkm4r4i383vi17jEcYRSKl2GKrs8Dys9BYwFHlBKbZPHM9nEGHNXWNdRC7Y7UF8qUXcc54FwZCIJqwJjlVL57Blf2xgTKKVmpdPpQzoq7MYYL4+yPZPPuWtzdFAbYBdLbbLImFW6+MHvlnluobdCx60+fB8BPHc2fnACdq9j1AK5Az/Yp5AOdTKeuww/mEzreeeRwJ3GbmWL/nin93SczyrFb7sDFxu7Aj96n9sbeMLxg72N5y4sgpgfEY4QpAw85fjBXsZzv5RG/INw5LkIa4fwsylwXMzzbIui1bvWepFS6lfEr/2JUgdcXehgIQnuUSulbie/AFoHAgcqpSYAz4ci3xjT75yA3Q76yxzC1gPQSqmDtNaPF7O89fX1TUqp47AeAzdM8JUtsQvqDs/zUj83xtynlHofCJqbm+9+8MEH30765WHDhnVvaGi4LI8Rhc+7dOnyXCEt9LH84ADmlGXwGn6wTsGehHVOEp1vKWUc7WoQ9fHED92tD1yxSoFHThw77B6dt9oXP9g+poMwwHmV5LfdeO43ZJ+S2N7AdMcPVi3U9VYdM87BD/6KXUOw/Pf00/A6a0kD/qE/C0ebkn6eAf4G/CFPMZ9e7JCq4bB2Uv8SmwJ/LkN9n0L74oMfG/Y3i2KeydLwmeyf0ErtDkwt8EK5bM+kkdY+PNpsj0qpM9t5uY2Bi2pqauak0+k5SqmblVIjhwwZstshhxyyzrBhw7qPGjUqlU6ne6XT6X5py5UNDQ3vhe05qXV+68SJE/PyephqQ2zHYd3ZtWQL4H/4wUUFEPP1sKsso85A5hQhXnpV49j9t6/HHDpkoTHnFVgQ5wNPxhy6j9ax2D/Ec2dW4EvQfcBp2Sw/A0/hB3sUoA1vOt+Yp7DDsNEObktjvR4KpeWaEl3nZOCrhHmHK6UOKGUlhNHn0ljXs+WkG/GLVYtR5seJXweUjT8qpbbtyDWNMZuHBoSfyWRmNDY2zm1oaFg8a9asZmPMfGPMW8aYycaYM7Ge65LyVSqVyrve2rLQs60crAEuwA/eCoeD29MRpoFpWAcHUa6SPqmVyH6BdaQQN59+cRgzvZBcEZP245i06yu1zmqsJZFtNek2wBP4wf34wRbtaL8b4QdXAnPI7lZyLJ57hbTekvKa4zglGd3TWs8n3tNltj5TK6VKOmKjtZ6BdSCzoIzP5E1gYMmMH8cZjV0LlIS+2AV83SqtITuO85tJkybl7YO+tg0rZyR+8CTWD3vc8Eo/rBvXa4EAGz51fhgvPa4TXDscqhiFHWaPu/YdXWH80vzLv27YwRZ7//o0PPeRsjxhz30PPzgn5m3XAcbgB3u1M1JdK1Z3nOe+zu0XOkMFbzls9tzGlB/sl7GLZQ7O8jI7FDgIP3gYO2T+Th38pzEuSIof7IDdi7wLNoZ8W6uCx3Z3HC+fZf9NcAV+UOypCycFf8p4bmfcWfINMLyUgVlSqdRjmUxmAsnmqmvDvrSk+9O11k8rpQZj5/x7lfiZ3A6cqrX+qlQXrK+vzyilTgN2BtZO8JX1QyPy/ypIzC+qr6+/vz3frc0hIuPwgxewPpT7ZcnVEztfcwpg8IPPswjrKrS9j/RjB05d2r5Fd2sCZ5agrpcAj5TrQXeBvy6DXbHzkVHr+dpaPziiEBG7vh453OAHt+cQ9BuKFeGuUGQ8dykwFD84jezDfnVYz4QKoBG+xA+ibdAk7ByWAYfXwZQl+a8rOL0UdWKsf/7OJujfYV2Dzi7lRUP/6b/DLuz9cYKvDFJKnaS1vqnEov5UOOR/bSh0xWYxcKvjOKfW19eXfH2N1vo9pdQR2AXdSYy8k5VSz2qt7yh3QzbGjNJat3tKO/e2Nc99o9Y6ErkIu1CizZeLsONbK+bTlpg/COwmq4JzqIV92fkd8F7M4UOb8oydm+PlYSx2SDmLLjCxairOc68B9gCShHVdM6btJhHzl4B+eO7kxs4dBrWSMMDDwKalFvMW4jGP/OIsXKOU6luG+5yJXRM1IRTcYjEfUFrrP5RDzFuU90mSTwmmgGuVUlGjtZTrDz4C1JQpUzq0Pi2RY5kmz23Cc0c5dsX7H4l3sdkelgJ/qoN0oYaLOz021vgJ2N0AUS7CDwoypBe+PGSbi3oaz51RZfU2I2WnfI4HChnJ7wVgGJ67Q1kiza2cLAX+jfXxPaiUQ7qxVozjPIp9AU5CN+DOgw8+uOTurbXWC7TWxwF7AU+RfK96EhYCJwE/LvY2ldOORQAAAkVJREFUtTz4I5D0XtYE/HQ6/f0i7W7dum2G3TI5vcB1tUJXC1zbrVu3rbTWUzp6srw8xRnP/QLPvcKxw0vDgcnEL9RKUohzgE3w3EvFoslbnP6NDXkapQ64poDbpf6a5cXh8mqstoznNuC5QY1tvyeHotCettcE3AMcgefujOfeK42yaDRh90M3AjcCvwE211rvG1phZSe0RC8g+4hWlIHNzc3Dy2i9ztJa7xUK+/VhHbdHsJqx4W3/AKyvtf6H1vrbSmk4WusG7A6UpNv39jDGfL8oe+LEiUu01hO01vs0NTVtGI7EaHKPVCfhFeDU2tradbXWp02cOLEgowHtiodurJU4nuXRbvxgMLAadn/i8oaxMXYP5mPLX2TDN515eO6kjjwn4MMytZG32jh2F61dtb5YRFG/HD94O8sPsbFA15iLH/wGO1z9vXXkwMxiva468JWBwyLl+qyQ12j23CbgJuCm0HnSTvwQ0ONI7P7ZFUck4F2sX+WnHXjIeG5Hhi1PwjreKLkxmYIlRXh7vhI7lFsMprflzzsPria3N7F2O3/RWn+ilDqGZI5NIH7l+V/J7eXOcRynIL9vrfXTYdv+vVJqD6wjn+2Adfkh9nhL3g3zO9hp0pe11nPaefmA7LtQljO/AGV8TSm1G7BV8i6oNQ899NDHwM3AzYMGDerapUuXHTKZzI6O42xhjPlJWGdrYNeKdQ3PswC7vuM74HNjzH9SqdSLqVTqhUmTJn0g7+qCIAiCIAiCIAiCIAiCIAiCULH8P1F8RIwORTGdAAAAAElFTkSuQmCC;" parent="Snlr6LAyoKVYqT1IV_n2-1" vertex="1">
          <mxGeometry x="140" y="80" width="150" height="60" as="geometry" />
        </mxCell>
        <mxCell id="Snlr6LAyoKVYqT1IV_n2-19" value="" style="endArrow=classic;html=1;rounded=0;entryX=-0.013;entryY=0.58;entryDx=0;entryDy=0;entryPerimeter=0;fillColor=#bac8d3;strokeColor=#23445d;" parent="Snlr6LAyoKVYqT1IV_n2-1" target="Snlr6LAyoKVYqT1IV_n2-4" edge="1">
          <mxGeometry width="50" height="50" relative="1" as="geometry">
            <mxPoint x="230" y="330" as="sourcePoint" />
            <mxPoint x="369" y="199" as="targetPoint" />
          </mxGeometry>
        </mxCell>
        <mxCell id="Snlr6LAyoKVYqT1IV_n2-20" value="" style="endArrow=classic;html=1;rounded=0;exitX=1;exitY=0.5;exitDx=0;exitDy=0;entryX=0;entryY=0.5;entryDx=0;entryDy=0;fillColor=#bac8d3;strokeColor=#23445d;" parent="Snlr6LAyoKVYqT1IV_n2-1" source="Snlr6LAyoKVYqT1IV_n2-6" target="Snlr6LAyoKVYqT1IV_n2-3" edge="1">
          <mxGeometry width="50" height="50" relative="1" as="geometry">
            <mxPoint x="250" y="350" as="sourcePoint" />
            <mxPoint x="379" y="209" as="targetPoint" />
          </mxGeometry>
        </mxCell>
        <mxCell id="Snlr6LAyoKVYqT1IV_n2-21" value="" style="endArrow=classic;html=1;rounded=0;entryX=0;entryY=0.5;entryDx=0;entryDy=0;fillColor=#bac8d3;strokeColor=#23445d;" parent="Snlr6LAyoKVYqT1IV_n2-1" target="Snlr6LAyoKVYqT1IV_n2-2" edge="1">
          <mxGeometry width="50" height="50" relative="1" as="geometry">
            <mxPoint x="230" y="330" as="sourcePoint" />
            <mxPoint x="389" y="219" as="targetPoint" />
          </mxGeometry>
        </mxCell>
        <mxCell id="Snlr6LAyoKVYqT1IV_n2-22" value="" style="endArrow=classic;html=1;rounded=0;fillColor=#0050ef;strokeColor=#001DBC;exitX=1;exitY=0.75;exitDx=0;exitDy=0;" parent="Snlr6LAyoKVYqT1IV_n2-1" edge="1" source="Snlr6LAyoKVYqT1IV_n2-9">
          <mxGeometry width="50" height="50" relative="1" as="geometry">
            <mxPoint x="560" y="200" as="sourcePoint" />
            <mxPoint x="790" y="320" as="targetPoint" />
          </mxGeometry>
        </mxCell>
        <mxCell id="Snlr6LAyoKVYqT1IV_n2-23" value="" style="endArrow=classic;html=1;rounded=0;fillColor=#0050ef;strokeColor=#001DBC;" parent="Snlr6LAyoKVYqT1IV_n2-1" edge="1">
          <mxGeometry width="50" height="50" relative="1" as="geometry">
            <mxPoint x="560" y="310" as="sourcePoint" />
            <mxPoint x="790" y="340" as="targetPoint" />
          </mxGeometry>
        </mxCell>
        <mxCell id="Snlr6LAyoKVYqT1IV_n2-24" value="" style="endArrow=classic;html=1;rounded=0;exitX=1;exitY=0.25;exitDx=0;exitDy=0;fillColor=#0050ef;strokeColor=#001DBC;" parent="Snlr6LAyoKVYqT1IV_n2-1" source="Snlr6LAyoKVYqT1IV_n2-11" edge="1">
          <mxGeometry width="50" height="50" relative="1" as="geometry">
            <mxPoint x="560" y="620" as="sourcePoint" />
            <mxPoint x="790" y="360" as="targetPoint" />
          </mxGeometry>
        </mxCell>
        <mxCell id="Snlr6LAyoKVYqT1IV_n2-25" value="" style="endArrow=classic;html=1;rounded=0;exitX=1;exitY=0.5;exitDx=0;exitDy=0;fillColor=#0050ef;strokeColor=#001DBC;" parent="Snlr6LAyoKVYqT1IV_n2-1" source="Snlr6LAyoKVYqT1IV_n2-12" edge="1">
          <mxGeometry width="50" height="50" relative="1" as="geometry">
            <mxPoint x="561" y="725" as="sourcePoint" />
            <mxPoint x="789" y="380" as="targetPoint" />
          </mxGeometry>
        </mxCell>
        <mxCell id="Snlr6LAyoKVYqT1IV_n2-26" value="Service Bus" style="image;sketch=0;aspect=fixed;html=1;points=[];align=center;fontSize=12;image=img/lib/mscae/Service_Bus.svg;" parent="Snlr6LAyoKVYqT1IV_n2-1" vertex="1">
          <mxGeometry x="800" y="300" width="80" height="80" as="geometry" />
        </mxCell>
        <mxCell id="Vj0HZS8lFaHgZ3sXc-I7-0" value="&lt;div&gt;Logging&lt;/div&gt;Database" style="shape=datastore;whiteSpace=wrap;html=1;fillColor=#ffe6cc;strokeColor=#d79b00;" parent="Snlr6LAyoKVYqT1IV_n2-1" vertex="1">
          <mxGeometry x="790" y="220" width="100" height="60" as="geometry" />
        </mxCell>
        <mxCell id="Vj0HZS8lFaHgZ3sXc-I7-1" value="&lt;div&gt;Notification&lt;/div&gt;Database" style="shape=datastore;whiteSpace=wrap;html=1;fillColor=#ffe6cc;strokeColor=#d79b00;" parent="Snlr6LAyoKVYqT1IV_n2-1" vertex="1">
          <mxGeometry x="790" y="420" width="100" height="60" as="geometry" />
        </mxCell>
        <mxCell id="Vj0HZS8lFaHgZ3sXc-I7-2" value="&lt;div&gt;Security&lt;/div&gt;Database" style="shape=datastore;whiteSpace=wrap;html=1;fillColor=#ffe6cc;strokeColor=#d79b00;" parent="Snlr6LAyoKVYqT1IV_n2-1" vertex="1">
          <mxGeometry x="790" y="490" width="100" height="60" as="geometry" />
        </mxCell>
        <mxCell id="8ZAAe8sP9hKbMVTxt_wp-0" value="Logging Microservice" style="rounded=1;whiteSpace=wrap;html=1;fillColor=#b0e3e6;strokeColor=#0e8088;" vertex="1" parent="Snlr6LAyoKVYqT1IV_n2-1">
          <mxGeometry x="395" y="190" width="165" height="30" as="geometry" />
        </mxCell>
        <mxCell id="8ZAAe8sP9hKbMVTxt_wp-1" value="" style="endArrow=classic;html=1;rounded=0;exitX=1;exitY=0.5;exitDx=0;exitDy=0;fillColor=#f0a30a;strokeColor=#BD7000;" edge="1" parent="Snlr6LAyoKVYqT1IV_n2-1" source="8ZAAe8sP9hKbMVTxt_wp-0">
          <mxGeometry width="50" height="50" relative="1" as="geometry">
            <mxPoint x="570" y="180" as="sourcePoint" />
            <mxPoint x="780" y="180" as="targetPoint" />
          </mxGeometry>
        </mxCell>
        <mxCell id="8ZAAe8sP9hKbMVTxt_wp-2" value="Logging Microservice" style="rounded=1;whiteSpace=wrap;html=1;fillColor=#b0e3e6;strokeColor=#0e8088;" vertex="1" parent="Snlr6LAyoKVYqT1IV_n2-1">
          <mxGeometry x="395" y="420" width="165" height="30" as="geometry" />
        </mxCell>
        <mxCell id="8ZAAe8sP9hKbMVTxt_wp-3" value="" style="endArrow=classic;html=1;rounded=0;exitX=1;exitY=0.5;exitDx=0;exitDy=0;fillColor=#f0a30a;strokeColor=#BD7000;" edge="1" parent="Snlr6LAyoKVYqT1IV_n2-1" source="8ZAAe8sP9hKbMVTxt_wp-2">
          <mxGeometry width="50" height="50" relative="1" as="geometry">
            <mxPoint x="570" y="413" as="sourcePoint" />
            <mxPoint x="780" y="460" as="targetPoint" />
          </mxGeometry>
        </mxCell>
        <mxCell id="8ZAAe8sP9hKbMVTxt_wp-4" value="Logging Microservice" style="rounded=1;whiteSpace=wrap;html=1;fillColor=#b0e3e6;strokeColor=#0e8088;" vertex="1" parent="Snlr6LAyoKVYqT1IV_n2-1">
          <mxGeometry x="396.25" y="540" width="165" height="30" as="geometry" />
        </mxCell>
        <mxCell id="8ZAAe8sP9hKbMVTxt_wp-5" value="" style="endArrow=classic;html=1;rounded=0;exitX=1;exitY=0.5;exitDx=0;exitDy=0;fillColor=#f0a30a;strokeColor=#BD7000;" edge="1" parent="Snlr6LAyoKVYqT1IV_n2-1" source="8ZAAe8sP9hKbMVTxt_wp-4">
          <mxGeometry width="50" height="50" relative="1" as="geometry">
            <mxPoint x="571" y="525" as="sourcePoint" />
            <mxPoint x="780" y="540" as="targetPoint" />
          </mxGeometry>
        </mxCell>
      </root>
    </mxGraphModel>
  </diagram>
</mxfile>
